<svg xmlns="http://www.w3.org/2000/svg" viewBox="0 0 404.58 401.11"><defs><style>.cls-1{fill:none;stroke:#f2cbbd;stroke-miterlimit:10;stroke-width:5px;}.cls-2{fill:#d97979;}</style></defs><title>doctor</title><g id="レイヤー_2" data-name="レイヤー 2"><g id="レイヤー_21" data-name="レイヤー 21"><path class="cls-1" d="M402.08,201.75c0,27.15-6.8,52.41-16.59,76-10.15,24.47-20.78,49.83-39.23,68.28s-43,30.93-67.51,41.08c-23.61,9.79-49.63,11.39-76.79,11.39s-54.47,1.53-78.08-8.26C99.41,380.11,78.16,362.45,59.72,344s-32.13-41.34-42.28-65.82A198.4,198.4,0,0,1,2.5,201.75c0-27.15,4.76-53,14.55-76.59,10.15-24.48,22.43-49,40.88-67.44s42.67-31.44,67.15-41.59C148.69,6.34,174.81,2.5,202,2.5s53.81,2.57,77.42,12.36C303.85,25,322.74,44.08,341.19,62.53s36.75,37.65,46.9,62.13C397.88,148.27,402.08,174.6,402.08,201.75Z"/></g><g id="レイヤー_20" data-name="レイヤー 20"><path class="cls-2" d="M138.1,235.82a7.24,7.24,0,0,0-1.07.39c-1.1.56-2.18,1.15-3.27,1.75-.69.38-1.34.83-2,1.16-1.54.73-3.11,1.4-4.66,2.11-.67.31-1.3.68-2,1s-1,.56-1.53.86L120,245.35a13.27,13.27,0,0,1-1.17.64c-1.44.7-2.91,1.34-4.32,2.1a39.34,39.34,0,0,0-4.55,2.72c-1.32,1-3,1.23-4.24,2.27-.94.77-1.92,1.48-2.9,2.21-.23.18-.5.31-.74.47l-2.93,1.91c-.81.52-1.66,1-2.47,1.52-.66.44-1.26,1-1.93,1.4s-1.14.53-1.64.88a15.19,15.19,0,0,0-2,1.66,15,15,0,0,1-1.5,1.62c-.86.67-1.25,1.93-1.87,2.91-.37.59,0,1.4-.64,1.92a22.47,22.47,0,0,0-2.87,2.9,9,9,0,0,0-1.9,3.15,18,18,0,0,1-1,1.6c-.33.71-.55,1.47-.84,2.2a9,9,0,0,1-.44.95c0,.12-.21.23-.19.33a3.46,3.46,0,0,1-.76,2.31,3.6,3.6,0,0,0-.39,1.67,10.7,10.7,0,0,1-.94,2.95A34.74,34.74,0,0,0,76,293.53a19.51,19.51,0,0,1-1,3.13c-.13.38-.15.79-.27,1.17-.35,1.14-.73,2.26-1.11,3.38-.24.73-.54,1.44-.74,2.18-.24.91-.41,1.85-.59,2.78a7.39,7.39,0,0,1-.15,1.08c-.44,1.16-1,2.28-1.37,3.47-.27.91-.26,1.91-.44,2.86a9.71,9.71,0,0,1-.46,1.06c-.3,1-.56,1.93-.83,2.9s-.63,2.09-.89,3.15-.52,2.34-.73,3.53c-.07.34.09.73,0,1.08a11.54,11.54,0,0,1-.41,1.76,4,4,0,0,0-.08,2.09,5.85,5.85,0,0,1-.28,2.46,3.68,3.68,0,0,0,.2,3.17,2.79,2.79,0,0,1,0,3.66,8.51,8.51,0,0,1-2.82,2,10.2,10.2,0,0,1-3.42.4c-.47,0-.79-.35-.86-1a9.59,9.59,0,0,1,.71-4.28,5.1,5.1,0,0,0,.42-2.71,5.27,5.27,0,0,1,.16-1.34,3.76,3.76,0,0,0,.06-1,1.85,1.85,0,0,1,.25-1.73A2.56,2.56,0,0,0,61.6,327a10.92,10.92,0,0,1,1-5,22.46,22.46,0,0,0,.68-3.18,4.9,4.9,0,0,1,.16-.78c.54-1.39,1.12-2.77,1.63-4.17.38-1.07.67-2.18,1-3.27s.68-2.34,1-3.51c.14-.49.21-1,.31-1.51,0-.15.06-.34.16-.43a1.32,1.32,0,0,0,.39-1.1,11.51,11.51,0,0,1,.57-2.2c.19-.9.29-1.81.45-2.72a1,1,0,0,1,.24-.61,2.83,2.83,0,0,0,.94-2.23,10.24,10.24,0,0,1,1-3.36c.4-1.13.48-2.38.85-3.53.29-.89.13-1.93.92-2.68.24-.22.15-.78.24-1.17.14-.62.27-1.24.47-1.84a4.59,4.59,0,0,1,.61-1.35,4.92,4.92,0,0,0,1-2.61,15.51,15.51,0,0,1,.42-3c.18-.6.8-1.06,1.13-1.63a19.83,19.83,0,0,0,.9-2c0-.08,0-.21.07-.23.82-.34,1-1.1,1.14-1.83a2.28,2.28,0,0,0,.1-.85,3.51,3.51,0,0,1,1.45-2.83c.45-.31.66-.94,1-1.4.21-.27.51-.47.73-.74s.38-.57.58-.85l.81-1.09a9.62,9.62,0,0,0,1.56-2.22c.3-.85.74-1.47,1.54-1.5,1.62-.05,2.74-1.24,4.18-1.63.76-.21,1-.91,1.45-1.39a2.31,2.31,0,0,1,.9-.62,8,8,0,0,0,2.53-1.55c.72-.58,1.72-.91,2.26-1.61,1.12-1.49,3-1.5,4.34-2.42s2.56-1.47,3.87-2.18c.32-.17.72-.21,1-.41.51-.33,1-.75,1.47-1.12a1.74,1.74,0,0,1,.49-.25,14.25,14.25,0,0,0,3.52-1.95c.71-.41,1.45-.76,2.16-1.17s1.66-1,2.49-1.52c.32-.19.63-.4,1-.58.11-.06.31,0,.38-.11,1.1-1.44,2.91-1.66,4.35-2.5,1.06-.62,2.14-1.21,3.23-1.76.51-.26,1.1-.35,1.62-.59,1.11-.52,2.22-1,3.28-1.65,1.44-.82,2.84-1.72,4.27-2.56a11.72,11.72,0,0,1,1.19-.55c1.73-.78,3.47-1.56,5.19-2.36a3.1,3.1,0,0,0,.72-.59c1.27-1.24,2.45-2.59,3.83-3.69a6,6,0,0,1,3.29-1.65c1.7,0,2.38-1.33,3.6-1.9a15.66,15.66,0,0,0,2.27-1.33c.42-.3.7-.8,1.11-1.12a3.67,3.67,0,0,1,1.21-.66c1.1-.3,1.6-1.31,2.43-1.91a15.81,15.81,0,0,1,2.71-2,9,9,0,0,0,3.48-2.2c.26-.33.75-.45,1.09-.73.62-.49,1.22-1,1.8-1.54a18.85,18.85,0,0,1,1.43-1.4c.9-.66,1.91-1.16,2.77-1.86a4.57,4.57,0,0,0,.91-1.48,6.38,6.38,0,0,0,.31-1A4.87,4.87,0,0,0,172,203c-1.46-.27-2.9-.64-4.33-1a27.46,27.46,0,0,0-2.67-1c-1.41-.24-2.66-1-4.09-1.13a4.16,4.16,0,0,1-1.23-.45,12.33,12.33,0,0,1-1.41-.7c-.45-.27-.84-.63-1.29-.91-.67-.42-1.37-.8-2-1.2a2.28,2.28,0,0,1-.75-.52,8.33,8.33,0,0,0-3.1-2.82,6.28,6.28,0,0,1-1.3-1.13c-.72-.72-1.44-1.45-2.1-2.22a13.73,13.73,0,0,1-1-1.5c-.68-1.06-1.39-2.1-2-3.18a4.52,4.52,0,0,1-.46-1.26,29,29,0,0,0-1.16-4.67,9.14,9.14,0,0,1-.78-4.48c0-.27-.45-.71-.78-.85a2.4,2.4,0,0,0-2-.08,1.6,1.6,0,0,1-1.32-.17c-1.28-.81-2.66-.63-4-.62-1,0-2-.23-3-.3-1.84-.13-3.68-.19-5.51-.35a24.74,24.74,0,0,1-3.75-.55,32.32,32.32,0,0,1-3.67-1.24,5,5,0,0,1-.92-.62c-1-.69-2-1.37-3-2.08a4,4,0,0,1-.62-.78,11.91,11.91,0,0,0-1-1.19,14.76,14.76,0,0,1-2.58-3.69,8.32,8.32,0,0,1-.8-2.19c-.25-1-.41-2-.56-3-.25-1.76-.47-3.53-.69-5.29-.07-.54-.1-1.08-.15-1.62-.15-2-.41-3.92-.39-5.87,0-.8-.32-1.77.49-2.53.22-.21,0-.84.08-1.26a30.64,30.64,0,0,1,.71-4.07,12.1,12.1,0,0,1,1.38-2.47c1-1.59,1.83-3.24,2.88-4.76.64-.93,1.63-1.61,2.34-2.49a22.58,22.58,0,0,1,3.61-3.1,15.37,15.37,0,0,1,3.26-1.73c1.08-.51,2.24-.87,3.29-1.42a4.41,4.41,0,0,1,1.19-.64.8.8,0,0,0,0-.6,5.58,5.58,0,0,0-1.31-1.38,2.57,2.57,0,0,1-1-1.91,13.44,13.44,0,0,1-.37-4.23c.2-2.17.37-4.4,1.74-6.29.93-1.28.54-2.71.25-4.1-.16-.77-.27-1.56-.45-2.33a2.22,2.22,0,0,0-.38-.6,4.21,4.21,0,0,1,.12-.83,14.45,14.45,0,0,1,1-2.83c.36-.61,1.25-.89,1.65-1.49a4,4,0,0,0,.85-3.4,5.53,5.53,0,0,0-1.1-2.09,2.84,2.84,0,0,1-.67-2,.3.3,0,0,0-.16-.27v.81l-.1,0c-.12-.64-.2-1.28-.38-1.9s-.54-1.32-.74-2a2.24,2.24,0,0,1,.73-2.65,5.51,5.51,0,0,0,1-1.63,4.85,4.85,0,0,1,1.87-1.89c1.42-.86,3-1.61,3.69-3.37.26-.64,1-1.07,1.45-1.66a5.86,5.86,0,0,0,.52-1.26l.53-1.24c-.37-.92-.27-1.34.46-1.35l-.49.82.19.2,1.51-.73c.07,0,.14-.11.21-.11a16.08,16.08,0,0,1,3.11.09c.46.09.86.78,1.15,1.28.18.31,0,.79.14,1.16.3,1-.21,1.55-1,2.1s-1.69,1.42-2.53,2.15c-.55.47-1.1,1-1.62,1.45a12.8,12.8,0,0,0-2.7,2.87c-.42.83-1.46,1.21-1.47,2.26,0,.69-.43,1.31,0,2.06s.61,2,1.14,2.81a8.61,8.61,0,0,1,1.26,3.57,6.42,6.42,0,0,1-1,4.63C133.15,95,132.54,96,132,97a1.86,1.86,0,0,0-.17,1c.08.83.24,1.65.35,2.47.07.55.36,1.27.12,1.62-.76,1.14-.76,2.48-1.15,3.7a25.32,25.32,0,0,0-.57,3.15,10.19,10.19,0,0,1-.25,1.36c-.17.55-.43,1.08-.6,1.64a1.18,1.18,0,0,0,0,.72,10.18,10.18,0,0,0,1.69,3.31,4.17,4.17,0,0,1,.7,1.23c.18.47.24.84.94.78s1.34.22,1.92-.48c.21-.25.84-.14,1.28-.2l0-.21c.19.09.47.3.55.25.32-.25.78-.54.85-.88a17.24,17.24,0,0,0,.27-2.88c0-.47-.18-.95-.22-1.43s-.14-.88-.2-1.32a5,5,0,0,1-.17-1.26,25.27,25.27,0,0,0,.4-3.75c0-.52.24-.84.24-1.28a4.67,4.67,0,0,0-.74-3.19.7.7,0,0,1,.08-.62,16.35,16.35,0,0,1,1.66-2c.66-.64,3.83-.78,4.4-.22a6.32,6.32,0,0,1,1.46,1.9,3.29,3.29,0,0,1-.15,1.73c-.3,1.64-.92,3.21-.62,5a13.73,13.73,0,0,1-.28,2.81c-.06,1-.06,2.06,0,3.09s.14,1.86.19,2.78c.1,1.71.22,3.41.27,5.11,0,1-.08,2.08,0,3.12.06,2,.19,4.06.26,6.09,0,.42-.16.86-.13,1.28.06.8.25,1.59.3,2.39a28.31,28.31,0,0,0,.3,4.95,6.84,6.84,0,0,1-.13,2,7.73,7.73,0,0,0,.45,3.74,7.81,7.81,0,0,1,.37,2.07,8.89,8.89,0,0,1,.14,2.18,18,18,0,0,0,.36,4.21c.14,1.21.23,2.43.33,3.65.11,1.43.17,2.86.34,4.28.1.81.44,1.58.54,2.39s0,1.69.1,2.53c.09,1.31-.08,2.75.42,3.88.74,1.69.45,3.45.9,5.13.18.64.44,1.26.64,1.89a5.6,5.6,0,0,1,.41,1.5,7.53,7.53,0,0,0,1.61,3.79.83.83,0,0,1,.12.44,4.92,4.92,0,0,0,1.57,3.17c.85,1,1.62,2,2.42,3a2.31,2.31,0,0,0,.34.36c.93.77,1.86,1.56,2.81,2.31a36.3,36.3,0,0,0,3.72,2.85,19.25,19.25,0,0,0,3.47,1.41c1.07.39,2.15.76,3.24,1.07,1.26.37,2.54.68,3.83,1a23.27,23.27,0,0,1,2.52.44c1.39.47,2.71,1.12,4.09,1.64a7.94,7.94,0,0,0,1.48.32l2.58.46a10.8,10.8,0,0,0,1.27.19c2.29.06,4.58.08,6.86.17,1.14.05,2.27.24,3.4.31a13.36,13.36,0,0,0,1.54-.08c.21,0,.43-.06.64-.06,1.24,0,2.48,0,3.71,0,.83,0,1.66.27,2.48.26,1,0,2-.19,3-.26.61-.05,1.23.07,1.82,0,2.5-.4,5.06.23,7.54-.46a1.3,1.3,0,0,1,.73,0,6.78,6.78,0,0,0,4.87-.36,2.1,2.1,0,0,1,.88-.15,7.71,7.71,0,0,0,3.77-.41,13.39,13.39,0,0,1,2.57-.29c.87-.13,1.73-.35,2.59-.53a.47.47,0,0,1,.15-.06,35.7,35.7,0,0,0,8.16-1.89c2.24-.64,4.44-1.42,6.65-2.18.39-.14.69-.52,1.08-.7A40.81,40.81,0,0,0,254,190a18.24,18.24,0,0,0,3.53-3.49,34.18,34.18,0,0,0,2.83-4.05,17.9,17.9,0,0,0,1.84-4.14c.34-1.2.89-2.35,1.2-3.56a13.79,13.79,0,0,0,.18-2.42c0-.1-.05-.22,0-.31.36-1.05.75-2.08,1.07-3.13a5.76,5.76,0,0,0,.19-1.32c.12-1.71.17-3.43.35-5.13.11-1.1.44-2.18.62-3.27a10.72,10.72,0,0,0,0-1.39c.05-1.54.15-3.08.16-4.61,0-.87-.13-1.74-.18-2.62-.11-1.82-.2-3.64-.31-5.46-.1-1.52-.2-3-.36-4.56a15.26,15.26,0,0,1-.41-3.63c.21-1.44-.36-2.7-.45-4.06-.17-2.58-.68-5.13-.83-7.71-.09-1.68-.33-3.34-.53-5-.05-.33.16-.7.1-1a1.79,1.79,0,0,0-.46-1,2.25,2.25,0,0,1-.76-2.7,2.88,2.88,0,0,0,.14-2c-.39-1.92-.6-3.88-.86-5.82-.14-1-.19-2-.35-3-.08-.49-.37-.94-.46-1.43-.41-2.19-.73-4.38-1.16-6.57a39.64,39.64,0,0,0-1-4c-.24-.81.32-1.34.52-2a2.38,2.38,0,0,0,.13-.79,21.47,21.47,0,0,1-.15-2.53,3.33,3.33,0,0,0-1.31-2.89,2.65,2.65,0,0,1-.66-1.11c-.57-1.54-1.17-3-2.94-3.58a2.24,2.24,0,0,1-1.49-2.34,17.14,17.14,0,0,1,.38-3.8,14.71,14.71,0,0,0,.46-4.84.66.66,0,0,0-.45-.44,9.78,9.78,0,0,0-4.67.76,12.17,12.17,0,0,1-4.55,1.32,5.93,5.93,0,0,1-3.57-1.23,8,8,0,0,1-1.24-1.86,6.7,6.7,0,0,0-1.06-1.44c-1.33-1.15-2.81-.81-4.3-.33a7.77,7.77,0,0,1-1.81.28c-1.38.09-2.76.12-4.14.18a5.61,5.61,0,0,1-3.07-1.24A6,6,0,0,0,221,64a18.23,18.23,0,0,1-2.53-.4c-.89-.17-1.78-.36-2.66-.56-1.08-.24-2.15-.52-3.23-.73a3.49,3.49,0,0,0-2.79.37,2.82,2.82,0,0,0-.94,1.14c-.65,1.47-2,2-3.32,2.5a2.94,2.94,0,0,1-1.05.31,8,8,0,0,1-1.68-.2c-.52-.1-1-.33-1.55-.4a5.84,5.84,0,0,1-3.16-1.74,4.75,4.75,0,0,0-4-1.46,7.17,7.17,0,0,0-1.77.62,6.51,6.51,0,0,1-4.69.41,4.11,4.11,0,0,0-2.3.07,20.24,20.24,0,0,1-3,.22,10.39,10.39,0,0,0-3.13.32c-.32.14-.78-.09-1.18-.11-1.38-.07-2.76-.12-4.13-.17a1.79,1.79,0,0,0-1.63,1.36c-.57,1.41-1.94,1.83-2.91,2.73-.14.12-.44.06-.66.1A19.34,19.34,0,0,0,164.38,70c-.61.28-1.23.93-2.09.63-.19-.07-.48.18-.73.27-1.68.61-3.36,1.19-5,1.83a12.63,12.63,0,0,0-2.15,1.06,2.77,2.77,0,0,0-1.29,2c0,.39.31.85.53,1.26a4.75,4.75,0,0,1-1.11,5.72,23.56,23.56,0,0,0-1.68,1.78c-.67.67-1.38,1.3-2.05,2a12.47,12.47,0,0,0-2.26,3.22c-.06.11,0,.28,0,.4a16,16,0,0,1-.61,1.81,6.92,6.92,0,0,1-1,1.83,8.36,8.36,0,0,1-3.74,2.59,3.2,3.2,0,0,1-3-.29,3,3,0,0,0-.89-.22,30,30,0,0,1,.2-3.29,1.37,1.37,0,0,1,.73-1A5.21,5.21,0,0,0,139.62,90a8.19,8.19,0,0,0,.66-1.26l-.57-.3c1,.35,1.32-.37,1.79-1,.78-1,1.66-1.92,2.46-2.9.42-.51.72-1.11,1.16-1.6a21.05,21.05,0,0,1,1.75-1.65,1.86,1.86,0,0,0,.51-2.07.74.74,0,0,0-.32-.31l-.39-1.49-.26.65-.23,0,.35-1.69c-.13-.09-.33-.18-.32-.23.23-1.08.46-2.17.75-3.24.37-1.4,1.65-1.69,2.77-2.18a4.37,4.37,0,0,0,.61-.31,9.49,9.49,0,0,1,4.31-1.51,4.08,4.08,0,0,0,1.38-.52,16.41,16.41,0,0,0,1.71-1,4.66,4.66,0,0,0,.67-.66c.22.47.82.65,1.74.26,1.27-.54,2.5-1.16,3.73-1.77a10.66,10.66,0,0,0,1.65-1A9.32,9.32,0,0,0,168,61.2a4,4,0,0,1,3.33-2.44c.89-.06,1.78-.2,2.66-.21a3.26,3.26,0,0,1,1.21.4,14.86,14.86,0,0,0,1.46.69c.79.23,1.6.36,2.41.53a.62.62,0,0,0,.33,0c1.88-.73,3.91-.55,5.85-.92,1.05-.2,2-.72,3.09-1a20.63,20.63,0,0,1,3.11-.53,26,26,0,0,1,3.3-.07c.52,0,1.07.45,1.53.34.63-.16,1.15.22,1.76.08,0-.13,0-.28.08-.43,0,0,.12,0,.12,0,.12.87,1,.65,1.46,1,.63.47,1.3.87,2,1.29l1.08.65s0,.07,0,.18L203,61c.18-.29.38-.57.56-.86a8.24,8.24,0,0,0,.69-1.23c.5-1.23,1.69-1.51,2.72-1.94a12.94,12.94,0,0,1,1.43-.58c1.14-.35,1.91.23,2.82.58a11.31,11.31,0,0,0,1.92.51,4.09,4.09,0,0,0,1.46.15c1.16-.2,2.25,1,3.42-.1l.06.26-.37.46c.75,0,1.42.71,2.06-.15a.29.29,0,0,1,.22-.06c.37.52.83.11,1.25.16,1.17.12,2.33.33,3.5.49a1.94,1.94,0,0,0,.58-.1c.68.29,1.44.93,2,.79s.81.25,1.08.58l1.29-.48c-.55.78-.06,1.08.37,1.11a15.51,15.51,0,0,0,3,0,26.76,26.76,0,0,0,3.16-.63,3,3,0,0,0,.8-.52l.23.68c1.16.26,2.41.51,3.63.85A4.64,4.64,0,0,1,244,63.86c.44,1,.9,1.73,2.19.78a2.85,2.85,0,0,1,1.52-.39,4.43,4.43,0,0,0,2.38-.41,5.69,5.69,0,0,1,1.95-.34c.54-.1,1.06-.27,1.6-.36a5.31,5.31,0,0,1,1.43-.1,12.88,12.88,0,0,1,2.39.43,1.77,1.77,0,0,1,1,.82,6.7,6.7,0,0,1,.16,4,15.41,15.41,0,0,0-.12,6.45c0,.15,0,.37.15.44,1.19.73,1.62,2,2.24,3.09l.58-.87.22.11c-.74.72-.3,1.47-.07,2.17a5.63,5.63,0,0,0,1.9,2.68c.58.45.68,1.57.86,2.42a2,2,0,0,1-.26,1.73c-.23.3-.09.86-.25,1.24a16.21,16.21,0,0,1-1,1.89,1.11,1.11,0,0,0,.37,1.72,3.93,3.93,0,0,1,1.88,3.41c.11,1.86,0,3.78.68,5.63.25.64.46,1.37.67,2.06a21.41,21.41,0,0,1,.2,2.29c.19,1,.82,2.1.66,3-.22,1.24.33,2.27.37,3.4a.76.76,0,0,0,.86.85c1.3,0,2.59,0,3.89,0a5.53,5.53,0,0,0,2-.09c.78-.31.22-1.18.41-1.77.5-1.52.63-3.14,1.5-4.55a1.7,1.7,0,0,0-.09-1.37,7.91,7.91,0,0,1-.6-3.59c0-.2,0-.49.15-.6.73-.66.29-1.23,0-1.92a18.34,18.34,0,0,1-1.28-4,6,6,0,0,0-1.49-3.2,1.4,1.4,0,0,1-.36-.6c-.13-.9-.23-1.81-.31-2.72A4,4,0,0,1,273,85a4.32,4.32,0,0,0,.26-.66c.26-.63.51-1.26.8-1.89.74-1.63,1.27-3.29.6-5.09a.47.47,0,0,1,0-.23c.18-1.18-.57-1.8-1.29-2.58a23.3,23.3,0,0,1-2.25-3.32,5,5,0,0,0-2.42-1.91,6.29,6.29,0,0,1-1.62-1.45,7.56,7.56,0,0,1-.55-.69c-.1-.13-.33-.24-.33-.35,0-1-1-1.18-1.53-1.6a3.57,3.57,0,0,1-1.53-2.13c-.05-.21-.38-.36-.52-.48.06-.17.22-.4.17-.54-.39-1-.87-2.06-1.25-3.1s-.53-1.87-.87-2.78c-.59-1.62-1.18-3.24-1.89-4.8-.46-1-1.62-1.12-2.53-1.49A18.07,18.07,0,0,0,253,49c-1-.21-1.81-1.08-2.76-1.55a3.74,3.74,0,0,0-2.58-.24,8.09,8.09,0,0,1-5-.26,14.82,14.82,0,0,1-2-1.24,8.31,8.31,0,0,0-1.08-.53,10.94,10.94,0,0,1-2.21-1.74,9.7,9.7,0,0,0-1.49-1c-.87-.44-1.78-.8-2.68-1.19a4.61,4.61,0,0,0-.8-.32,6.23,6.23,0,0,1-2.77-1.85,8.94,8.94,0,0,0-1-.56c-.3-.2-.56-.45-.91-.72l-.48.89.12-1.22a1.37,1.37,0,0,0-1.64-.27,7.13,7.13,0,0,1-2.68.46c-.56,0-1.13.47-1.72.59a6,6,0,0,1-2.52.3,19.36,19.36,0,0,0-4-.1c-.34,0-.69-.06-1.14-.11l-.28,1.06s-.08,0-.09-.07c-.13-1.26-.44-1.5-1.79-1.45a8.39,8.39,0,0,1-3-.54,2.44,2.44,0,0,0-1.07,0c-.82.12-1.64.27-2.46.42-.57.1-1.13.28-1.71.33-.88.09-1.78.08-2.66.15a12.92,12.92,0,0,0-1.39.2,4.56,4.56,0,0,1-.7.14c-1.84,0-3.68,0-5.52,0a26.22,26.22,0,0,0-2.94.18,13.2,13.2,0,0,0-1.6.46c-.8.19-1.62.31-2.41.53-.22.06-.37.37-.6.61-.38-.56-1-.38-1.68-.17a1.77,1.77,0,0,1-.56,0c-.65,0-1.29,0-1.93.05a3,3,0,0,1-1.6,0,4.2,4.2,0,0,0-3.57.2c-1,.49-1.87,1.42-3.11,1.52-.23,0-.43.43-.66.67l-.46-.19-.16,1.1c-.39-1.24-.86-.32-1.23-.25-.6.11-1.16.65-1.74.67a7.7,7.7,0,0,0-3.53,1.29,15.79,15.79,0,0,1-1.57,1,23.08,23.08,0,0,0-2.44.74,12.23,12.23,0,0,0-2,1.67,4.72,4.72,0,0,1-.53.33c-.19.13-.37.28-.37.28a3.55,3.55,0,0,0-1.12.34,16.89,16.89,0,0,1-1.5,1.44c-1,.66-2.2,1.14-3.26,1.76s-2.39.5-3.57.8a7.83,7.83,0,0,0-2.28.91c-.35.23-.41.9-.62,1.42l-.37-.45c-2.34,2.27-2.21,5.32-2.61,8.24l.46,0c-1.08.95-2.05,2-3.59,1.9-.3,0-.6-.19-.91-.22a2.51,2.51,0,0,0-.69.16c0-.74-.77-.82-1.41-1,0-1.31,0-2.61,0-3.91a7.48,7.48,0,0,1,.47-1.69,10.71,10.71,0,0,1,.4-1.21,5.28,5.28,0,0,1,.49-.59c1-1.35,1.87-2.72,2.86-4a25.09,25.09,0,0,1,1.8-1.93l2-2.11.33.3.88-.91c.07.24.09.27.09.28l-.27.23a5.92,5.92,0,0,0,.64,0c1-.2,2-.46,3-.6a6.49,6.49,0,0,0,2.74-1c.69-.46,1.37-1,2.06-1.41a17.94,17.94,0,0,0,3.28-2.17,11.11,11.11,0,0,1,3.16-2.18c1.4-.67,2.59-1.71,4.2-2a28.54,28.54,0,0,0,4.57-1.45A17.89,17.89,0,0,0,172,36.85c.05,0,.08-.08.13-.11,1.31-.66,2.62-1.36,4-2a3.41,3.41,0,0,1,2.24-.17,9.47,9.47,0,0,0,2.38,0c.81,0,1.63,0,2.43-.1a9.29,9.29,0,0,0,2.43-.4,7.77,7.77,0,0,1,2.91-.26,38.48,38.48,0,0,0,4.46-.76,5.13,5.13,0,0,1,1.79,0,4.64,4.64,0,0,0,3.07-.36c.06,0,.15-.1.18-.08.63.37,1.22,0,1.85,0a15.16,15.16,0,0,1,2.91.27,7.26,7.26,0,0,0,1.66.17,22.28,22.28,0,0,0,2.37-.61,11.65,11.65,0,0,1,4.63-.14c.47.07.87.55,1.34.64,1.15.22,2.31.33,3.48.46a20.64,20.64,0,0,0,3.41.28,9.13,9.13,0,0,0,2.53-.78,11.72,11.72,0,0,1,1.51-.66,17.44,17.44,0,0,1,3.78-.46A3.26,3.26,0,0,1,230.22,33c.12.17.41.21.62.33l1.25.73c.06,0,.12.16.17.16,1-.07,1.24.8,1.79,1.31a11.77,11.77,0,0,0,3.86,2.32A12.42,12.42,0,0,0,240.74,39c.9.09,1.07,1.1,1.94,1.1.2,0,.32.69.61.87a9.66,9.66,0,0,0,1.68.72,4.17,4.17,0,0,0,1,.32c1.35.14,2.7.22,4,.38a18.47,18.47,0,0,1,3.49.61c.38.12.79.45,1.23.63.7.3,1.32.77,2,1a4.78,4.78,0,0,0,1.26,0,16.32,16.32,0,0,1,3.37.27c.59.16,1,.94,1.48,1.5.25.33.32.79.54,1.15a3.91,3.91,0,0,1,.88,2.28.2.2,0,0,0,.09.13c1.15.71,1,1.89,1.12,3a2.45,2.45,0,0,0,.52,1.12,3.51,3.51,0,0,1,.38,2,2.11,2.11,0,0,0,.49,1.23,6.17,6.17,0,0,1,1.41,2.47c.15.44.62.76,1.06,1.27,0,0,.14.24.28.43A4.81,4.81,0,0,0,270,62c.63.65,1.27,1.3,1.89,2a2.83,2.83,0,0,1,.31.6,2.11,2.11,0,0,0,.3.6c1,1,2,1.87,3,2.84a16.68,16.68,0,0,1,4,6.2,10,10,0,0,1,.31,4.82,2,2,0,0,0,0,.49c.12,2.22-.84,4.14-1.78,6a3.19,3.19,0,0,0,.45,3.06c.93.72.84,1.91,1.21,2.89a13.83,13.83,0,0,0,1.14,3A6.67,6.67,0,0,1,281.4,97a2.07,2.07,0,0,1-.19,1.36,3.62,3.62,0,0,0-.18,2.19,4.18,4.18,0,0,1,0,2.75c-.08.19.09.48.14.73a6.33,6.33,0,0,0-.88,1.83,16.44,16.44,0,0,0-.13,4.2c.09.75.54,1.45.29,2.28-.05.15.17.46.35.57.67.42,1.25,1.11,2.2.79.1,0,.24.06.39.09l-.12.14a11.32,11.32,0,0,0,1.89,1.8c.88.53,1.06,1.51,1.73,2.14a7,7,0,0,1,.85.77,5.88,5.88,0,0,1,.72,1.2c.3.7.53,1.43.82,2.14s.57,1.39.88,2.07c.17.38.41.73.58,1.11.47,1,.87,2.09,1.37,3.11a14.6,14.6,0,0,1,1,3.43,34.07,34.07,0,0,0,1.15,3.5c0,.08.11.14.11.21.18,1.73.41,3.45.51,5.18a12.39,12.39,0,0,1-.17,2.79c-.18,1-.52,2-.77,3.06a3.92,3.92,0,0,0,0,.86c-.34.54-1.4.85-1.2,2.07a2.49,2.49,0,0,1-.53,1.38c-.81,1.32-1.68,2.6-2.52,3.9,0,0-.05,0-.05.06-.14,1.39-1.54,1.79-2.21,2.77a17.77,17.77,0,0,1-1.8,1.89c-.5.55-1,1.13-1.44,1.73a1,1,0,0,0-.12.5,3.2,3.2,0,0,0-1.11.29c-.78.58-1.49,1.25-2.23,1.88-.07.06-.15.16-.22.17a11.75,11.75,0,0,0-5.76,2.09,16.93,16.93,0,0,1-3.78,1.13,1.7,1.7,0,0,0-.8.6,8.15,8.15,0,0,0-.94,3.49c-.22,1.2-.58,2.38-.87,3.57-.07.29,0,.6-.14.87-.32,1-.66,1.89-1,2.82,0,.1-.21.2-.19.26.41,1.49-.95,2.47-1.12,3.83a7.23,7.23,0,0,1-1.27,2.48c-.57,1-1.16,2-1.82,2.88a14.55,14.55,0,0,1-1.46,1.59q-1.36,1.4-2.76,2.76a22.37,22.37,0,0,1-1.9,1.75A27.87,27.87,0,0,1,254,196c-.74.45-1.57.75-2.33,1.18a16.05,16.05,0,0,0-1.46,1.07l1.74.66c.08,0,.19,0,.23.06.46.6,1,.86,1.55.6a10.67,10.67,0,0,0,.91,1.17,17.25,17.25,0,0,0,2.15,1.87,15.48,15.48,0,0,0,2,.91,2.78,2.78,0,0,1,1,.66,2.44,2.44,0,0,0,1.83,1.1,7.51,7.51,0,0,0,.78.91c.74.62,1.53,1.19,2.27,1.8,1.09.89,2.17,1.78,3.21,2.72a11.52,11.52,0,0,0,3.19,2.05,8.32,8.32,0,0,1,1.76,1.44,5.51,5.51,0,0,0,.85-.23,3.34,3.34,0,0,1,3.1.65,11.12,11.12,0,0,0,2.11,1.31c.92.49,1.86.94,2.81,1.37,1.18.54,2.37,1,3.6,1.58l.21-.61c.06.05.12.09.12.11-.21.88.5,1.24,1,1.46a5.84,5.84,0,0,1,1.65.92,11.85,11.85,0,0,0,2,1c.41.23.74.59,1.14.85.74.48,1.51.93,2.25,1.42,1,.66,2,1.4,3,2,1.48.9,3,1.73,4.51,2.59,1.66.94,3.33,1.89,5,2.8.67.36,1.37.66,2.07,1a26.86,26.86,0,0,1,5.69,3.17,10.14,10.14,0,0,0,1.32.68l-.24.38c.76.56,1.53,1.1,2.26,1.68.2.16.27.45.44.65a12,12,0,0,0,.92,1c.09.08.34.07.36.14.31,1.16,1.51,1.2,2.26,1.82a4.2,4.2,0,0,0,1.35.44,8,8,0,0,1,3.55,1.86c.27.29.71.44.92.75.39.59.67,1.25,1,1.87a1.07,1.07,0,0,0,.33.46,3.2,3.2,0,0,1,1.35,1.51c.48,1,1,2,1.54,2.94a.83.83,0,0,1,0,.32,5.25,5.25,0,0,0,1.39,3.1,1.38,1.38,0,0,1,.24.65c.14.77.23,1.56.38,2.33s.3,1.28.48,1.92c.23.86.47,1.72.75,2.57,0,.13.3.18.24.15.15.65.23,1.15.39,1.62.21.62.56,1.21.71,1.84.33,1.35.54,2.73.87,4.08.37,1.55.87,3.08,1.24,4.64.2.83.24,1.7.37,2.55.26,1.6.53,3.2.78,4.8a7.22,7.22,0,0,0,.28,2.13c1.09,2.07.72,4.44,1.53,6.56.12.32-.09.76-.13,1.15a1.1,1.1,0,0,0,1,1.37l-.63.13a3.24,3.24,0,0,0,.64,2c.11.88.17,1.65.31,2.4a33.54,33.54,0,0,1,.36,3.87c.12,1.7.46,3.39.68,5.08.11.81.15,1.62.21,2.43a2.62,2.62,0,0,0,.07.75c.42,1,0,2,.14,3,0,.23,0,.52.1.7.91,1.41.29,2.75-.12,4.11-.14.43-.21.88-.35,1.31a1,1,0,0,1-.32.5,2.6,2.6,0,0,0-1.21,2.44,7.3,7.3,0,0,1-.59,2.24c-.16.59-.32,1.19-.49,1.79a11.52,11.52,0,0,1-1.85.2,6.91,6.91,0,0,1-1.85-.32.89.89,0,0,1-.37-.7c.06-1.23.13-2.46.3-3.68a8.6,8.6,0,0,1,.6-2,4.72,4.72,0,0,0,.56-1.89c0-1,.28-2,.31-3.05a17,17,0,0,0,0-4.72,18.79,18.79,0,0,1-.19-2.39c-.19-1.76-.37-3.53-.6-5.29-.28-2.13-.58-4.27-.92-6.39-.22-1.35-.58-2.67-.82-4-.35-1.94-.62-3.89-1-5.83-.15-.82-.47-1.61-.62-2.43s-.23-1.85-.38-2.77c-.22-1.3-.47-2.6-.73-3.9a5.93,5.93,0,0,1-.42-2.51c.05-.22-.21-.49-.27-.74-.3-1.29-.57-2.58-.86-3.86a14,14,0,0,0-.41-1.44c-.29-.79-.63-1.55-.91-2.33s-.59-1.75-.89-2.61c-.51-1.45-1-2.9-1.57-4.31-.35-.85-.3-1.88-1.12-2.54-.14-.12-.15-.39-.23-.59-.25-.58-.47-1.17-.75-1.73s-.59-1.06-.89-1.59l-1.46-2.59s0-.13-.06-.14c-1-.33-1.14-1.37-1.65-2.1a.91.91,0,0,1-.14-.43c-.11-1.09-.43-1.43-1.47-1.79-.67-.23-1.29-.61-2-.86a1.63,1.63,0,0,0-1.07,0c-.19-.18-.35-.43-.58-.53-.93-.44-2.09-.61-2.78-1.28-1.55-1.53-3.31-2.78-5-4.17a3.65,3.65,0,0,0-2.24-1c-.33,0-.64-.35-1-.52a16.13,16.13,0,0,1-3.26-1.83c-.7-.64-1.59-.74-2.31-1.31A25.56,25.56,0,0,0,296,232.1c-.52-.27-1-.66-1.47-1-1.16-.73-2.34-1.41-3.49-2.16-.67-.44-1.26-1-1.92-1.46-.51-.35-1.06-.64-1.6-1l-1.59-.92c-.18-.1-.45-.29-.57-.23-.73.38-1-.2-1.43-.57a2.23,2.23,0,0,0-1.09-.44c-.9-.12-1,0-.65.83,0,.1.1.27.06.31-.59.54-.38,1.46-1.18,2a12.41,12.41,0,0,0-2.16,2.44c-.05.07.07.27.11.41a3.16,3.16,0,0,0-2.71,1.24c-.24.33-.8.44-1.22.64a9.88,9.88,0,0,0-1.44.65c-1.64,1.15-3.17,2.47-4.88,3.49a22,22,0,0,0-2.8,2.54c-.87.73-1.8,1.42-2.59,2.23-.57.58-1,1.17-1.94,1.12a.1.1,0,0,0-.07,0c-.41,1.24-1.87,1-2.59,1.87s-1.56,1.56-2.3,2.37a18.25,18.25,0,0,0-1.83,2.2,2.66,2.66,0,0,0-.47,1.58c.12,1.38.16,2.82,1.15,4,.12.14.23.35.39.4.62.22.69.79,1,1.26.44.76,1,1.45,1.48,2.19a8.3,8.3,0,0,0,.81,1.27c1,1,1.71,2.29,2.81,3.26a17.44,17.44,0,0,1,1.77,2.47,3.95,3.95,0,0,1,1,4.54c0,.16-.34.31-.32.44a3.15,3.15,0,0,1-1.05,2.59,7.4,7.4,0,0,1-1.52,1.19c-.31.21-.7.28-1,.49a4.28,4.28,0,0,1-2.12.88,12.54,12.54,0,0,0-2.83,1c-1.69.68-3.36,1.41-5,2.1a16,16,0,0,0-3.24,1.29c-1.12.8-2.43.68-3.58,1.17-.73.31-1.42.68-2.13,1l-.67.28c-1.85.78-3.72,1.54-5.56,2.35-1.23.53-2.45,1.1-3.66,1.68s-2.4,1.25-3.62,1.81c-1.55.71-3.14,1.31-4.67,2-1.35.66-2.87.89-4.15,1.76-.87.58-1.93.86-2.84,1.37-1.11.62-2.16,1.33-3.23,2s-2.44,1.48-3.64,2.25a13,13,0,0,0-1.14,1c-1,.83-2,1.62-2.92,2.48-.26.24-.33.68-.53,1a5.68,5.68,0,0,1-.67.8,5.43,5.43,0,0,1-.76.68,2.22,2.22,0,0,1-.65.17,10.78,10.78,0,0,0-2.37.67c-1.19.65-1.87.07-2.58-.73-.17-.18-.49-.22-.7-.31-.78,1.26-1.56,2.44-2.24,3.69a20.08,20.08,0,0,0-.86,2.2,8,8,0,0,1-.52,1,10.31,10.31,0,0,0-.75,1.27,24.42,24.42,0,0,0-.88,2.75c-.17.69-.18,1.43-.32,2.14a4.75,4.75,0,0,1-.42,1,5.49,5.49,0,0,0-.59,1.19c-.28,1.41-.43,2.85-.72,4.25-.25,1.16-.73,2.28-.93,3.44-.25,1.39-.3,2.81-.45,4.22-.09.8-.25,1.59-.3,2.39s0,1.65-.05,2.47c-.08,1.48-.19,2.95-.31,4.42-.09,1.19.09,2.42-.6,3.55-.21.36,0,1,0,1.47.06,1,.14,2,.21,3a.89.89,0,0,1,0,.32,23.81,23.81,0,0,1-.83,2.6,6.88,6.88,0,0,0-1,2.44c0,1.13-.07,2.26-.12,3.4a1.1,1.1,0,0,1-.12.39,6.09,6.09,0,0,1-3.42,2.77c-.78.33-1.41-.17-2-.63a.47.47,0,0,1-.17-.35c.19-.77.43-1.53.59-2.31s.31-1.77.46-2.66c0-.05,0-.12,0-.16.74-1.12.12-2.37.32-3.53.24-1.37.52-2.73.72-4.1s.2-2.6.47-3.87a15.37,15.37,0,0,0,.18-3.58c0-.69.34-1.4.32-2.16a22.71,22.71,0,0,1,.13-2.47c.08-.93.19-1.86.29-2.79.12-1.21.21-2.43.38-3.64a8.59,8.59,0,0,1,.45-1.22c.08-.26,0-.56.12-.83.26-1,.57-2,.79-3.09.28-1.29.47-2.59.74-3.88a10.2,10.2,0,0,1,.49-1.37,13.88,13.88,0,0,0,.49-1.67,11,11,0,0,0,.46-2.92,4.72,4.72,0,0,1,1-2.65c.71-1.37,1.49-2.71,2.23-4.06.36-.66.67-1.34,1-2,.21-.37.48-.7.72-1.06s.42-.62.6-.95a5.92,5.92,0,0,1,.41-.88,31.46,31.46,0,0,0,2.26-2.53c1.06-1.54,2-3.17,2.94-4.77.24-.4.5-.78.75-1.18.65-1,1.31-2,1.91-3.08s1-1.92,1.51-2.84c.45-.75,1-1.41,1.5-2.15s.87-1.48,1.28-2.24c.68-1.22,1.36-2.44,2-3.67.53-1,1-2,1.54-2.94a12.1,12.1,0,0,1,1-1.25,4.8,4.8,0,0,0,.78-1,8.71,8.71,0,0,1,1.71-2.33,16.37,16.37,0,0,0,1.58-2.66c.09-.16.11-.36.2-.52a23.7,23.7,0,0,0,1.66-2.71,21.35,21.35,0,0,1,2-2.89c.63-1,1-2.12,1.57-3.11.43-.72.73-1.59,1.6-2,.1,0,.15-.22.21-.33,1.12-2,2.22-3.93,3.38-5.86a18.31,18.31,0,0,0,1.83-2.79,17.62,17.62,0,0,1,1.79-2.9c.31-.53.68-1,1-1.54s.48-.94.76-1.39c.89-1.47,1.83-2.91,2.69-4.39.31-.55.42-1.21.68-1.79.56-1.26,1.16-2.51,1.75-3.79a5.31,5.31,0,0,0-4.14,0,18.9,18.9,0,0,1-3.39.72c-.05,0-.12,0-.16,0-1.95,1.3-4.25.69-6.36,1.11s-4.13.49-6.1,1.08a18.92,18.92,0,0,1-4.93.61,15.25,15.25,0,0,0-2.06.28,24.34,24.34,0,0,1-2.71.18c-1.14.07-2.28.07-3.41.18-1.3.14-2.59.45-3.89.53-1.92.11-3.84.08-5.75.12s-4,.11-6,.14c-1.56,0-3.12,0-4.67,0s-3.14-.06-4.71,0a1.47,1.47,0,0,0-1.36,2.06c.18.64.34,1.28.48,1.93.42,2,.79,4,1.25,6,.26,1.13.68,2.23,1,3.36.37,1.54.61,3.11,1,4.64.33,1.27.85,2.5,1.2,3.76.31,1.1.48,2.23.77,3.33s.69,2.06.95,3.11c.33,1.27.51,2.58.86,3.85a4.84,4.84,0,0,1,.49,2.15.2.2,0,0,0,0,.15c.85.57.36,1.49.6,2.23.18.57.34,1.14.49,1.73.08.33.09.69.16,1a1.86,1.86,0,0,0,.21.57,4.82,4.82,0,0,1,.49.84,35.94,35.94,0,0,0,2.19,6.9,21.92,21.92,0,0,1,.89,3.18c.21.63.6,1.19.84,1.81a7.89,7.89,0,0,1,.18,1.1,6.61,6.61,0,0,1,.54,2.21,2.82,2.82,0,0,0,.46,1.72,7.24,7.24,0,0,0,.48.65c.12.2.16.47.29.67a3.48,3.48,0,0,0,.68.84c1.14.88,1.49,3.24.4,4.1a5.64,5.64,0,0,1-4.58,1.48,1.55,1.55,0,0,1-1.35-1.29c-.09-.72-.47-1.4-.62-2.12a10,10,0,0,1-.07-1.65c0-.08,0-.17,0-.23-.43-1.1-.81-2.22-1.31-3.29-.25-.52-.61-1-.29-1.55a.42.42,0,0,0,0-.25c-.25-1-.51-2.06-.77-3.09,0-.08-.09-.15-.09-.22,0-1.81-1.09-3.34-1.31-5.1a3.8,3.8,0,0,0-.77-2.47.69.69,0,0,1-.16-.45c0-2.29-1-4.37-1.59-6.52-.74-2.55-1.38-5.13-2-7.71-.33-1.31-.52-2.66-.84-4-.46-1.84-1-3.68-1.5-5.5-.35-1.16-.88-2.27-1.25-3.43-.17-.53-.08-1.14-.21-1.69-.26-1.14-.61-2.25-.88-3.39a21.35,21.35,0,0,1-.41-2.37,5.49,5.49,0,0,0-.56-2.65,6.65,6.65,0,0,1-.42-2.56,27.07,27.07,0,0,0-.42-2.7c-.06-.26-.52-.42-.82-.65a4.49,4.49,0,0,0-.33-2.91c-.26-.8-.21-1.7-.43-2.51a5.91,5.91,0,0,1-.06-3.46c.08-.27-.45-.7-.57-1.09a6.75,6.75,0,0,1-.19-1.43c-.05-.68-.06-1.35-.1-2-.07-1.12-.1-2.25-.22-3.37-.17-1.53-.41-3.06-.64-4.8-.89.61-1.59,1.11-2.31,1.59-1.07.71-2.18,1.37-3.22,2.11-1.34.94-2.62,1.94-3.93,2.91-.5.37-1,.73-1.48,1.12s-.87.77-1.3,1.16c-.1.09-.18.24-.3.27-1.56.42-2.33,1.84-3.51,2.73a23.47,23.47,0,0,0-1.94,1.65,10.11,10.11,0,0,0-1,1.09c-1.05,1.26-2.11,2.51-3.13,3.79-.86,1.07-1.61,2.22-2.49,3.27s-2,2.26-3,3.37c-.49.53-1.09,1-1.52,1.55a1.17,1.17,0,0,0,.3,1.82c1.18.81,2.38,1.62,3.6,2.38a22.92,22.92,0,0,0,2.84,1.55c1.19.53,2.45.9,3.66,1.39.85.34,1.64.8,2.48,1.14,1.85.76,3.51,1.85,5.28,2.76.56.29,1,.42,1,1.12,0,.09.1.25.17.26,1.23.15,1.71,1.26,2.5,2a2.37,2.37,0,0,1,.64,1.16,3.83,3.83,0,0,0,1.84,2.37c1.53.89,1.77,2.24,1.75,3.77a2.69,2.69,0,0,0,.15.59c-1.5,1.24-1.89,3.23-3,4.76s-2,3.35-3.65,4.5c-.3.21-.4.67-.64,1-.72,1-1.51,1.89-2.2,2.88-1.11,1.61-2.14,3.28-3.25,4.89-.69,1-1.48,1.93-2.21,2.91-.2.28-.3.62-.48.91-.52.84-1.06,1.65-1.58,2.49-.09.15-.22.41-.15.51a17.08,17.08,0,0,0,1.4,2.07,2.8,2.8,0,0,0,1.06.63,42.51,42.51,0,0,0,4,1.64,9.85,9.85,0,0,0,2.38.09c1,0,2,.12,3,.18a27.39,27.39,0,0,0,5,.36,8.18,8.18,0,0,1,2.89.58c1.18.3,2.35.65,3.52,1l3.5,1.07s.05,0,.07,0c1.25-.32,2.09.59,3.08,1a4.65,4.65,0,0,1,.94.8c1,.83,2,1.65,3,2.47.09.08.24.17.32.15.68-.21.95.16,1.17.73a2.7,2.7,0,0,1,.41,1.47,4.31,4.31,0,0,1-1.25,2.46c-1,1.11-3.56,2-4.9.26a5.41,5.41,0,0,0-3-2,3.74,3.74,0,0,1-1.7-1.2,5.54,5.54,0,0,0-3.24-1.65,16.2,16.2,0,0,1-3.42-1.09,17.27,17.27,0,0,0-2.74-.76,6.53,6.53,0,0,0-.84-.31c-1-.14-2.09-.23-3.14-.34l-5.7-.64c-1.44-.17-2.89-.32-4.33-.52a3.12,3.12,0,0,1-1-.42c-1.15-.61-2.32-1.19-3.43-1.87s-2-1.38-3-2.1a10.58,10.58,0,0,1-1.07-.94.84.84,0,0,1-.15-.49c.7-.38.28-1.15.59-1.65a7.44,7.44,0,0,1,.38-.68c.58-.77,1.27-1.47,1.77-2.29,1.36-2.21,3.1-4.11,4.63-6.18.66-.88,1.65-1.56,1.92-2.77.11-.53.73-.94,1-1.44s.61-1.18.92-1.76a3.13,3.13,0,0,1,.6-1,8.16,8.16,0,0,0,1.41-2.2,9.49,9.49,0,0,1,1.42-1.49c.12-.13.3-.22.39-.37a33.43,33.43,0,0,0,2.17-4,3,3,0,0,0-.42-2.05,24,24,0,0,0-1.64-2.75,2,2,0,0,0-.61-.47c-.54-.36-1.27-.6-.86-1.52a.58.58,0,0,0-.19-.45,15.83,15.83,0,0,0-2.58-2.15c-1.51-.84-2.82-2.08-4.67-2.36a6.39,6.39,0,0,1-2.67-1.17c-1.91-1.37-4.15-2-6.18-3.12-1-.53-2-.93-3-1.43a10.54,10.54,0,0,1-1.82-1.11c-.32-.25-.71-.77-.64-1,.27-1-.29-1.79-.54-2.64a2.26,2.26,0,0,1,1.24-2.55.67.67,0,0,0,.34-.19,17.15,17.15,0,0,1,2.82-2.7,8.32,8.32,0,0,0,1-1.6c.26-.38.59-.71.88-1.07Zm63.4,61.8.22.25,1.08-.91a6,6,0,0,1,.82-.71c.69-.39,1.43-.67,2.1-1.09,1.39-.87,2.72-1.83,4.11-2.69,1.06-.65,2.21-1.16,3.26-1.83a31.9,31.9,0,0,1,3.08-2.08c1.47-.72,3-1.39,4.48-2a11.33,11.33,0,0,0,2-.63c2.22-1.37,4.85-1.83,7-3.28,1-.63,2.2-.83,3.13-1.49a28.91,28.91,0,0,1,5.2-2.5c1.84-.82,3.88-1.19,5.54-2.41.08-.06.22,0,.32,0a8.28,8.28,0,0,0,3.82-1.32,4.69,4.69,0,0,1,1-.46c1.76-.58,3.56-1.07,5.3-1.7,1.45-.53,2.82-1.24,4.24-1.85.57-.24.62-.61.39-1.11s-.54-1.26-.88-1.85c-.73-1.24-1.46-2.5-2.3-3.67s-2-2.5-3-3.75-1.95-2.5-2.92-3.76a2,2,0,0,1-.3-.63,31.84,31.84,0,0,1-1.05-4.44,4.93,4.93,0,0,1,.77-3.84,11.19,11.19,0,0,0,.76-1.41,10.33,10.33,0,0,1,.69-1.32c.29-.39.71-.67,1-1a6.63,6.63,0,0,1,2.84-2.06,9.23,9.23,0,0,0,2.27-1.12,26,26,0,0,1,4.08-2.74,4.6,4.6,0,0,0,1.11-.62c1-.9,2-1.89,3-2.75,1.56-1.29,3.18-2.48,4.75-3.74,1-.83,2-1.74,3.06-2.52s2-1.27,3.13-2c-.78-1.31-1.49-2.54-2.22-3.75a2.39,2.39,0,0,0-.54-.56,32,32,0,0,0-2.58-2.34,12.82,12.82,0,0,0-2.16-1.62,4.25,4.25,0,0,1-.89-.58,15.5,15.5,0,0,0-2-1.62c-.72-.4-1.16-1.16-2.07-1.36-.46-.1-.76-.83-1.2-1.19s-1.23-.8-1.79-1.25-1.05-1-1.56-1.46-.89-1.21-1.35-1.22c-1.3,0-1.75-1.28-2.79-1.61a8.36,8.36,0,0,1-1.3-.79,18.81,18.81,0,0,0-2-1c-.44-.18-.85-.16-.89.55a3.62,3.62,0,0,1-.81,2,13.3,13.3,0,0,0-1.25,2.76c0,.07,0,.17,0,.25-.26,1.08-.46,2.19-.81,3.24-.48,1.46-1.09,2.87-1.63,4.31-.25.65-.48,1.32-.72,2s-.49,1.28-.7,1.93c-.27.85-.44,1.73-.77,2.55-.18.43-.73.71-.92,1.14-.4.89-.67,1.84-1,2.77a9.14,9.14,0,0,1-.52,1.25c-.41.72-.89,1.4-1.28,2.13-.59,1.08-1.13,2.2-1.68,3.31-.27.55-1.18,1-.45,1.59a19.1,19.1,0,0,0-1.17,1.55c-.67,1.15-1.24,2.37-1.94,3.51a27.93,27.93,0,0,1-2.41,3.67c-1.32,1.54-1.65,3.74-3.15,5.22a1.25,1.25,0,0,0-.15.28,31.15,31.15,0,0,1-1.42,2.83c-.56.93-1.31,1.74-1.91,2.65-1.1,1.67-2.16,3.37-3.23,5.07-.2.32-.33.68-.54,1-.46.66-1,1.28-1.43,2-.19.3-.15.74-.32,1.05-.38.68-.83,1.32-1.23,2-.24.39-.41.82-.67,1.18-.64.88-1.4,1.69-2,2.61-1.12,1.79-2.14,3.65-3.23,5.47q-.92,1.53-1.89,3c-.27.42-.66.76-.92,1.19-.94,1.55-1.86,3.12-2.79,4.67a28.36,28.36,0,0,1-1.54,2.47c-1.08,1.44-1.24,3.48-2.92,4.55-.09.06-.1.27-.15.41a5.61,5.61,0,0,1-.75,1.94A1.6,1.6,0,0,0,201.5,297.62Zm37.05-95.15c-.8.11-2,.24-3.15.44-.83.14-1.65.41-2.49.56-1.82.33-3.65.63-5.48.95A17,17,0,0,1,224,205c-2.41-.09-4.66.78-7,.9l-5.11.26s-.09-.08-.14-.08a13.22,13.22,0,0,0-3.48-.15,25.16,25.16,0,0,1-5.18.42c-1,0-2-.12-3-.14-.61,0-1.23.07-1.85.09s-1.39,0-2.08,0c-.52,0-1-.09-1.56-.11-.68,0-1.37,0-2.05,0-.46,0-.91.14-1.36.14-.87,0-1.73-.08-2.6-.12a14.4,14.4,0,0,1-1.86-.11c-1.68-.28-3.34-.66-5-.92a1.41,1.41,0,0,0-1.55,2.08,10.53,10.53,0,0,1,.59,1.39,1.72,1.72,0,0,1-.35,1.89c-.5.43-1.19.64-1.7,1.06a10.5,10.5,0,0,0-1.84,1.93,17.65,17.65,0,0,0-.82,2,4.3,4.3,0,0,1-2,2.26,1.89,1.89,0,0,0-1.12,2.25c.1.89.11,1.79.17,2.68s.09,1.52.17,2.27.23,1.6.34,2.39.22,1.43.31,2.15a14.29,14.29,0,0,0,.19,1.86c.08.32.42.78.69.81a39.6,39.6,0,0,0,4.21.35c1.05,0,2.11-.11,3.16-.11,1.72,0,3.44.11,5.16.11,1.42,0,2.85-.1,4.27-.14,2.28-.06,4.57-.12,6.86-.16a11.65,11.65,0,0,0,1.17.07c1.06-.15,2.1-.42,3.15-.56,1.95-.25,3.91-.43,5.86-.68,1.46-.18,2.91-.46,4.38-.62.94-.1,1.88-.09,2.83-.28.71-.14,1.5,0,2.26-.22,1.36-.36,2.76-.54,4.11-.9,1.7-.45,3.33-1.17,5-1.47A18.22,18.22,0,0,0,232,226.3c.7-.34,1.43-.6,2.14-.91a4.24,4.24,0,0,1,3.53-.3.7.7,0,0,0,1.07-.47,16,16,0,0,0,1-2.78,12.13,12.13,0,0,1,.93-2.46c.16-.44.26-.91.41-1.36.54-1.64,1.14-3.25,1.6-4.91.24-.91-.14-2,.86-2.67a.46.46,0,0,0,.13-.29c.12-1.12.23-2.24.36-3.36.06-.55-.12-.64-.64-.49-.93.28-1.89.46-2.84.68a9.07,9.07,0,0,0-.8-1.39C239.13,204.66,240.07,203.4,238.55,202.47ZM137.92,124.82V124c0-1.08-.48-1.55-1.57-1.52a17.67,17.67,0,0,1-1.77.1,6.68,6.68,0,0,0-3.35.2c-.63.27-1.32.41-1.95.69-1.18.54-2.33,1.15-3.5,1.71a2.81,2.81,0,0,1-1,.39c-1.11,0-1.76.85-2.48,1.44a41.44,41.44,0,0,0-3.15,3.07,10.37,10.37,0,0,0-1.14,1.25c-.46.68-.76,1.48-1.27,2.11-1.32,1.65-1.66,3.72-2.47,5.58a7.51,7.51,0,0,0-.24,2.15c0,.46-.07.92-.1,1.38-.07,1-.22,2-.19,3s.21,2.23.3,3.35c.06.79,0,1.59.1,2.37s.36,1.71.5,2.58a23.68,23.68,0,0,0,.26,2.41,14.67,14.67,0,0,0,2.91,6.16,15.24,15.24,0,0,0,2.44,2.38,16.3,16.3,0,0,0,6.16,2.7c.45.09.92.06,1.37.12,1,.14,1.89.37,2.85.46,1.38.14,2.78.2,4.17.29a3.57,3.57,0,0,0,1,0c1.41-.31,2.83-.64,4.23-1a1.47,1.47,0,0,0,1.21-1.5,22.13,22.13,0,0,0-.25-2.57c-.16-1.28-.4-2.56-.52-3.84a24.84,24.84,0,0,0-.07-2.87,28.66,28.66,0,0,1-.63-6.46,16.76,16.76,0,0,0-.29-2.31c-.12-.92-.21-1.86-.37-2.78,0-.19-.31-.52-.43-.5A9.94,9.94,0,0,0,137,145a9.41,9.41,0,0,1-1.39.62c-1.57.26-2.7,1.28-3.92,2.15-.63.44-1.24.92-1.88,1.33a15.12,15.12,0,0,0-2.46,1.51,2.81,2.81,0,0,1-2.79.47,1.15,1.15,0,0,1-.92-1.45,4.24,4.24,0,0,1,1.82-2.92c.65-.43,1.29-.89,1.94-1.33.9-.6,1.78-1.23,2.71-1.79,1.15-.68,2.32-1.37,3.53-1.94a15.49,15.49,0,0,1,3.22-1.16c1.05-.23,1.87-.74,1.84-1.62-.06-1.51-.18-3-.29-4.51s-.25-3-.33-4.52c0-.62.13-1.24.1-1.85C138.15,126.85,138,125.75,137.92,124.82Zm133.68-8.11c-.36,0-.71,0-1.07,0-1,0-2.06.74-2.06,1.38a10,10,0,0,0,.14,1.44c.16,1.12.37,2.23.46,3.35.12,1.36.15,2.73.2,4.09,0,.66-.23,1.52.09,1.92,1.11,1.37.59,3,1,4.49.31,1.11,1.21,2.16,2.34,2a1.72,1.72,0,0,1,1.25.37,5.55,5.55,0,0,0,.7.32c.89.33,2-.1,2.72.76.05.06.21,0,.32,0a1.76,1.76,0,0,1,2,1.32,1.23,1.23,0,0,1-.13.77,4,4,0,0,1-.63,1,2.61,2.61,0,0,1-.89.57,2.34,2.34,0,0,1-.87.14c-.91,0-1.81.05-2.71,0s-1.62.52-2.45.08c0,0,0,0-.07,0a1.58,1.58,0,0,0-1.05,1.78c.05,1.59.21,3.18.3,4.78,0,.54,0,1.09,0,1.64,0,1.31.15,2.63.17,3.94a18.56,18.56,0,0,1-.16,2.35c-.18,1.59-.37,3.19-.6,4.78-.08.58.27,1.28.8,1.23a22.44,22.44,0,0,0,2.68-.47c.75-.18,1.48-.41,2.21-.66a21.92,21.92,0,0,0,3-1.16,20.16,20.16,0,0,0,2.6-1.85,7.41,7.41,0,0,0,1-1c.58-.67,1.15-1.36,1.68-2.07a29.34,29.34,0,0,0,2.42-3.41,30.65,30.65,0,0,0,1.53-3.9,8.09,8.09,0,0,0,.91-2.72,15.42,15.42,0,0,0,0-3.12c-.3-1.44-.29-3-.58-4.47a15.14,15.14,0,0,0-1.34-4.3,9.31,9.31,0,0,1-.5-1.49,10.34,10.34,0,0,0-.66-1.87c-.4-.72-1-1.3-1.43-2-1-1.7-1.86-3.45-2.84-5.14a8,8,0,0,0-1.66-2.36,9.45,9.45,0,0,0-3.37-1.78C275.3,117,273.42,117.11,271.6,116.71Z"/><path class="cls-2" d="M183.56,124.14c0,.26,0,.56.11.72,1,1.35.45,2.69-.16,3.89a15.94,15.94,0,0,0-1.11,3.1c-.3,1.13-1.12,2.06-1.26,3.3a5.81,5.81,0,0,1-1.26,2.59c-.49.68-.92,1.41-1.44,2.06a5,5,0,0,1-3.26,1.86c-1.1.16-2.19.39-3.3.5a3.42,3.42,0,0,1-1.45-.19c-1.27-.46-2.69-.5-3.78-1.45a10.86,10.86,0,0,1-3.42-4.66,20.78,20.78,0,0,0-.76-2c-.47-1,0-1.92.3-2.84a4.67,4.67,0,0,0,.3-1c.12-1.34.2-2.67.29-4,0-.1,0-.21,0-.35a2.27,2.27,0,0,0-2.11.52,2.91,2.91,0,0,1-.87.41,21,21,0,0,0-3.11,1.46,9.44,9.44,0,0,0-2.09,2.14c-1.32,1.76-3.16,2.07-5.13,1.9a1.48,1.48,0,0,1-.89-2.36c.63-.75,1.49-1.33,2-2.12s1.81-1,2.06-2.12a5.39,5.39,0,0,0,.27-1.35,3.15,3.15,0,0,1,.91-2.36,8.54,8.54,0,0,1,4-2.49,15.38,15.38,0,0,0,3.6-1.7,20.05,20.05,0,0,1,4.72-1.65c.7-.23,1.37-.52,2.07-.72,1.4-.4,2.8-.77,4.21-1.11a4.75,4.75,0,0,1,1.07,0l3.46-.16a1,1,0,0,1,.24,0c1.58.48,3.31.4,4.79,1.25a.44.44,0,0,0,.25.1c1.55-.26,2.86.71,4.35.83a2.28,2.28,0,0,1,1.62,2.53,4.23,4.23,0,0,0-.15,2.7c.3,1-.39,1.69-1.38,2.36C186.06,124.47,184.82,124,183.56,124.14Zm-3.31.1v.05a9.42,9.42,0,0,0,1.31-.22.46.46,0,0,0,.13-.87,5.42,5.42,0,0,0-1.48-.44,9,9,0,0,0-1.32-.31c-1-.12-2-.21-3.06-.24-.69,0-1.39.18-2.08.16a7,7,0,0,0-3.73,1.07c-.46.27-.33.76.18,1s1.12.48,1.69.69a5.4,5.4,0,0,0,5.08-.16,3.62,3.62,0,0,1,2-.7Zm-5.91,5.08c-.06,0-.17,0-.27.08l-4.32,1.4c-.65.21-.78.65-.65,1.3.2.93,1,1.25,1.65,1.64a.9.9,0,0,0,1.34-.55.87.87,0,0,1,.32-.41c.8-.41,1.59-.83,2.41-1.19a1.19,1.19,0,0,0,.81-1.23C175.56,129.63,175,129.43,174.34,129.32Z"/><path class="cls-2" d="M240.37,123.41a7.41,7.41,0,0,0,.8-1.34c.25-.64.42-1.31-.3-1.87-.4-.32-.17-1.44.3-1.86a4.07,4.07,0,0,0,.49-.43c.34-.39.2-.66-.28-.72a10.48,10.48,0,0,0-4,.23c-.34.08-.72,0-1.08.1-1.11.15-2.25.24-3.34.5-2,.46-3.92,1-5.85,1.56a3.86,3.86,0,0,1-3.07-.65,1.09,1.09,0,0,1,0-1.63,2.39,2.39,0,0,0,.72-2.48.91.91,0,0,1,.1-.62,6.78,6.78,0,0,1,3.65-3.64c1.23-.43,2.53-.64,3.78-1a13.76,13.76,0,0,1,4.43-.41,18.5,18.5,0,0,0,2.87.13,14.73,14.73,0,0,1,4.14.3,26.56,26.56,0,0,0,2.66-.09,18,18,0,0,1,3.45.36,5.11,5.11,0,0,1,2.42,1.22c.77.78,1.78,1,2.61,1.55.24.16.47.35.72.51a6.73,6.73,0,0,0,1.5.92c1.4.43,2.38,2.48,1.63,3.71-.24.4-.75.62-1.13.94-1,.85-2.12.68-3.31.54a5.48,5.48,0,0,0-2.77.23,2.16,2.16,0,0,1-2-.26c-.57-.25-1.11-.55-1.82.09a21.46,21.46,0,0,1,1.28,2.69,5.93,5.93,0,0,1,.26,4.09c-.25.64-.22,1.35-.73,2-.66.8-1.05,1.81-1.7,2.61a17.61,17.61,0,0,1-3,3.16c-1.77,1.29-3.64,2.55-6.05,2.32a11.09,11.09,0,0,1-4.56-1.55,5.8,5.8,0,0,1-2.81-4.26,15.88,15.88,0,0,1-.43-2.33c0-1,.15-2,.2-3.06,0-.18-.16-.38-.27-.56a3.27,3.27,0,0,1,.37-4.16c1.32-1.44,2.33-1.54,4.05-.47a4.2,4.2,0,0,0,.91.28c.39.12.71.24.78.78,0,.26.57.69.8.65A3.14,3.14,0,0,1,240,122.9Zm.15,4.5c-.05-1.09-.8-1.93-1.5-1.85l-2.46.31c-.83.11-1.42.65-1.21,1.25a1.52,1.52,0,0,1-.08,1.17,1.06,1.06,0,0,0,1.23,1.46,25,25,0,0,0,3.41-1.46C240.23,128.63,240.38,128.13,240.52,127.91Z"/><path class="cls-2" d="M159.7,106.09c-.4-.65-1.06-.27-1.5-.08a4.19,4.19,0,0,0-1.26,1.16,6.5,6.5,0,0,1-4.35,2.15c-.79.08-1.14-.62-1.46-1.1a1.55,1.55,0,0,1,.33-1.7,18.57,18.57,0,0,1,5.31-4.63,12.64,12.64,0,0,1,4.53-2,.71.71,0,0,0,.3-.1,13.38,13.38,0,0,1,5.2-1.69c1.53-.29,3.08-.46,4.63-.66,2.17-.29,4.34-.52,6.51-.84,1.08-.15,2.14-.47,3.23-.64,1.28-.2,2.57-.34,3.86-.5a12.06,12.06,0,0,1,1.69-.15,3.55,3.55,0,0,1,3.2,2.81.48.48,0,0,1-.06.36c-.44.48-.6,1.19-1.2,1.57s-.57.91-.32,1.53a15.77,15.77,0,0,1,.82,2.49,1.49,1.49,0,0,1-.78,1.51,4,4,0,0,1-4,.63,12.54,12.54,0,0,0-2.28-.51,1.9,1.9,0,0,0-1.06,0c-1.35.64-2.84.46-4.24.79-.49.11-.93.47-1.42.62-1,.31-2,.56-3,.82s-2.21.56-3.31.84a.61.61,0,0,0-.28.13c-.78,1-2,.7-3,1a18.21,18.21,0,0,0-2.09.89,13.24,13.24,0,0,0-2.12,1.09,14.45,14.45,0,0,0-2.26,2,3.36,3.36,0,0,1-4.26.27c-.17-.16-.39-.28-.58-.44a.68.68,0,0,1-.16-1,10.11,10.11,0,0,1,4.08-4.09,1.45,1.45,0,0,0,.85-1.44A3.87,3.87,0,0,1,159.7,106.09Z"/><path class="cls-2" d="M249.17,99.3c.73,0,1.36.06,2,.13a12.47,12.47,0,0,1,2.13.36,1.52,1.52,0,0,1,1.22,1.34c.28,2.36-.56,3.4-2.78,4.24a8.28,8.28,0,0,1-1.81.34c-.52.08-1,.13-1.7.2-.34-.59-.71-1.31-1.16-2a1.08,1.08,0,0,0-.76-.34c-.93,0-1.87,0-2.8,0-1.61-.12-3.21-.28-4.81-.48-.92-.12-1.82-.38-2.74-.54-.72-.12-1.44-.18-2.16-.26-.9-.11-1.8-.25-2.71-.3a43.19,43.19,0,0,0-5.21-.16c-1.51.11-3,.68-4.5.89-1.18.17-2.46.32-3.41-.65a1.91,1.91,0,0,1-.51-1.3,3.05,3.05,0,0,1,2.72-2.64c.21,0,.42-.11.88-.24-1.47-.53-1.56-1.75-2-2.72,0-.09.16-.37.31-.48,1.42-1,3.12-1.43,4.69-2.14a16.45,16.45,0,0,1,4.62-1.18c.86-.13,1.66-.67,2.52-.75a40.75,40.75,0,0,1,5.06-.17,17.79,17.79,0,0,1,3.78.48A5.83,5.83,0,0,1,241.9,92a2.7,2.7,0,0,0,1.57.7,6.6,6.6,0,0,1,1.91.51c1.06.39,2.11.83,3.16,1.27.32.13.78.16.58.74,0,.08.24.27.39.38a1.47,1.47,0,0,1,.44,2.22C249.69,98.27,249.48,98.71,249.17,99.3Zm-26.3-1.57-.1-.34-.24.45-.13-.34-.17.15c.11.1.22.28.33.29a10,10,0,0,0,1.55,0c.63,0,.7-.21.46-1Z"/><path class="cls-2" d="M202.68,173.41c2.11-.24,4.48-.49,6.85-.77a35.25,35.25,0,0,1,4.75-.6,9.75,9.75,0,0,0,4.07-1.14c.39-.16.84-.18,1.2-.37.67-.36,1.29-.8,1.93-1.2.18-.12.37-.29.55-.29,1.68,0,2.45-1,3.28-2.33a6.8,6.8,0,0,1,3.48-3.13,1.39,1.39,0,0,1,.61,0,5.72,5.72,0,0,1,3.66,2.28,2.21,2.21,0,0,1,.32,1.53,3.93,3.93,0,0,1-2.6,3.49,1.27,1.27,0,0,0-.34.2,4.58,4.58,0,0,1-3.43,1.32,2.21,2.21,0,0,0-.54.16c-1.46.44-2.94.82-4.38,1.32-.89.31-1.72.79-2.58,1.19a2.27,2.27,0,0,1-.49.25,85.16,85.16,0,0,0-8.63,1.79c-2.06.64-4.1.34-6.13.66a17.41,17.41,0,0,1-3.75.17,21.15,21.15,0,0,1-2.65-.62c-1.31-.25-2.64-.42-4-.67a4.55,4.55,0,0,1-1.09-.47c-.85-.43-1.7-.85-2.53-1.32-.6-.35-1.21-.68-1.42-1.47a4.69,4.69,0,0,0-.77-1.53,3.88,3.88,0,0,1-.64-2.55c0-.15,0-.4-.05-.45-1.07-.67-.7-1.77-.5-2.55a5,5,0,0,1,1.53-2.31,2.25,2.25,0,0,1,3.7,1.43.56.56,0,0,0,.21.37,2,2,0,0,1,.81,1.87c.07,1.56,1.16,2.35,2,3.33a3.68,3.68,0,0,0,.4.39c.51.45.86,1.07,1.76,1,.57,0,1.16.46,1.76.58C200.2,173.14,201.3,173.23,202.68,173.41Z"/><path class="cls-2" d="M199.44,146.55a32.71,32.71,0,0,0,.17-3.27c-.09-1.7.13-3.4-.4-5.11-.26-.85.18-1.9.25-2.86,0-.73,0-1.46,0-2.19,0-.08,0-.16,0-.24a6.35,6.35,0,0,1,2.86-4.57,3.82,3.82,0,0,1,3.32.41c.11.06.12.42.1.63a20.1,20.1,0,0,1-.37,3,10,10,0,0,0-.5,2.65c0,1-.52,2,0,3.12.15.33-.08.83-.1,1.26a25.46,25.46,0,0,0-.13,3.26c.06.87.46,1.7.59,2.57a3.48,3.48,0,0,0,2.23,2.79c.85.36,1.69.76,2.57,1.06a2.88,2.88,0,0,1,2,2.54,2.93,2.93,0,0,1-1.37,2.76,7.1,7.1,0,0,1-1,.59c-1,.65-1.91.17-2.79-.29a27.72,27.72,0,0,1-3.58-2,11.8,11.8,0,0,1-2.9-2.78,12.82,12.82,0,0,1-1.11-3.3Z"/><path class="cls-2" d="M237.8,156.2c.45.24.86.47,1.28.68a29.81,29.81,0,0,0,2.89,1.43,1.19,1.19,0,0,1,.85,1.45,9.47,9.47,0,0,1-.76,2.25c-.32.65-1.55.83-2.43.53-1.1-.37-2.22-.71-3.34-1a3.23,3.23,0,0,1-2.17-2.58,2.47,2.47,0,0,1,1.5-2A11.55,11.55,0,0,1,237.8,156.2Z"/><path class="cls-2" d="M180.81,163.56a3.85,3.85,0,0,1,1,.2,1.59,1.59,0,0,1,.51,2.18,12,12,0,0,1-1.47,2.12,10.92,10.92,0,0,0-1.15,1.43,3,3,0,0,1-3.19,1.51c-1.49-.08-1.95-1.12-1.41-2.41a18.08,18.08,0,0,1,1.54-2.65A4.81,4.81,0,0,1,180.81,163.56Z"/><path class="cls-2" d="M183.88,43.05l.53,1.12c-.66.17-.64.61-.21,1.16C183.63,45.19,183.44,44.06,183.88,43.05Z"/><path class="cls-2" d="M215,44l-.22,2-.59-.71.57-1.27Z"/><path class="cls-2" d="M223.46,43.23l.26,2.52-.3,0-.24-2.52Z"/><path class="cls-2" d="M239.54,56.57l-.25,1.66-.28,0,.19-1.68Z"/><path class="cls-2" d="M134.09,117.61c-.26-.23-.58-.42-.55-.51.13-.49-.06-1.17.78-1.48a3.85,3.85,0,0,0-.44,1A3.5,3.5,0,0,0,134.09,117.61Z"/></g></g></svg>