<svg xmlns="http://www.w3.org/2000/svg" viewBox="0 0 443 443"><defs><style>.cls-1{fill:#fff;stroke:#f2cbbd;stroke-miterlimit:10;stroke-width:10px;}.cls-2{fill:#d97979;}</style></defs><title>hospital-section3</title><g id="レイヤー_2" data-name="レイヤー 2"><g id="診療案内3のコピー"><circle class="cls-1" cx="221.5" cy="221.5" r="216.5"/><path class="cls-2" d="M128.35,116.26a60.68,60.68,0,0,0-5.88-3.12c-2.52-1.08-3.42-2-3.42-3.54a5.36,5.36,0,0,1,2.64-4.2h-9.36c-2,0-3.18-1.44-3.18-4s1.14-4,3.18-4h35.58c3.72,0,5,1,5,3.84,0,2.58-1.5,4.2-8.22,8.88-2.22,1.5-4.2,2.76-5.28,3.36a3.11,3.11,0,0,1,.3,1.44,5.75,5.75,0,0,1-.18,1.32h13.14c4.14,0,5.7,1.08,5.7,3.84,0,2.22-1.08,4.5-3.84,8.46-3.9,5.46-5.94,7.26-8.4,7.26s-4.86-2-4.86-4.2a3.92,3.92,0,0,1,.72-2.22c.6-.78,4.2-4,4.2-4.44s-.36-.48-1.38-.48h-8.46V144.1c0,6-2.16,7.68-10.08,7.68-6,0-7.68-1-7.68-4.68,0-2.7,1.26-4.26,3.48-4.26.42,0,2.58.18,3,.18,1.8,0,2.16-.42,2.16-2.58v-16H106.39c-2.1,0-3.3-1.44-3.3-4.14s1.2-4.08,3.3-4.08Zm9.06-9.78c.36-.24.6-.54.6-.66,0-.36-.18-.42-1.74-.42H125.83c2.76,1.14,4.92,2.4,7.26,3.6Z"/><path class="cls-2" d="M187.57,111.16c-2,0-3.24-1.62-3.06-4.14-.72,3.06-1.32,6.06-2.16,9.18a6.09,6.09,0,0,0-.24,1.08,3.73,3.73,0,0,0,.36,1.26c2.28,5.64,2.88,8.1,2.88,11.94,0,7.26-2.28,10.5-7.56,10.5-2.58,0-3.9-.42-4.68-1.56v9.42c0,2-1.5,3.24-4,3.24s-4.08-1.14-4.08-3.24V103c0-4.26,1.32-5.46,5.76-5.46h9.9c1,0,4.68,0,4.68,4.2a14,14,0,0,1-.42,3.18,2.78,2.78,0,0,1,2.7-1.56h9.06v-4c0-2.34,1.62-3.6,4.5-3.6s4.5,1.26,4.5,3.6v4h10.38c2,0,3.12,1.38,3.12,3.9s-1.08,3.9-3.12,3.9H200.23c-.06,2-.12,4.26-.3,6.48h9.9c5.34,0,7.44,1.68,7.44,6,0,3.24-.6,11.22-1.14,15.66-1.08,8.64-2.1,11.58-10.5,11.58-5.94,0-7.8-1.08-7.8-4.56,0-3.12,1.14-4.44,3.84-4.44.6,0,3.42.36,4,.36a1.38,1.38,0,0,0,1.32-.72c1-1.62,1.8-12.42,1.8-14.76,0-1.26-.18-1.32-2.82-1.32h-6.78c-1.14,7.26-2.7,12.18-5.7,17.52-3.3,5.82-5.46,8-7.92,8s-4.8-2.22-4.8-4.44c0-1.26.36-1.74,3.48-5.7,5.64-7.26,7.5-16.5,7.74-29.7Zm-14.46,22.62a2,2,0,0,1,1.62-1.08l1.62.06c.66,0,1-.9,1-2.52a22.4,22.4,0,0,0-1.86-8.58c-1.14-2.88-1.32-3.42-1.32-4.32a7,7,0,0,1,.36-2c.48-1.56.9-2.94,1.32-4.5.12-.48,1-4.92,1-5.22,0-.54-.3-.54-2.58-.54-.9,0-1.2.24-1.2,1.26Z"/><path class="cls-2" d="M252.79,124.84c.36-.66,2-3.54,2.4-4.08h-10c-1.92,0-3-1.38-3-3.72s1.08-3.78,3-3.78h4.08c-.42-1.5-1.2-3.9-2-6.12-1.86,0-3.84,0-3.84-3.54,0-2.34,1-3.6,2.88-3.6h9.48c0-2,0-4.56,4.44-4.56s4.44,2.58,4.44,4.56h10.8c1.86,0,2.88,1.26,2.88,3.6,0,3.54-1.92,3.54-4.2,3.54-.6,2.28-1.26,4.2-1.92,6.12h4.32c1.92,0,3,1.32,3,3.78s-1.08,3.72-3,3.72h-14.7a2.33,2.33,0,0,1,.9,1.86,4.42,4.42,0,0,1-.6,2.22h14.64c1.86,0,2.94,1.32,2.94,3.72s-1.08,3.72-2.94,3.72h-3.48a24.94,24.94,0,0,1-4.14,8.28c8.52,3.54,9.72,4.38,9.72,6.48,0,2.52-1.8,4.74-4,4.74-1.32,0-2.34-.36-5.34-2-1.8-1-3.78-2.1-6.54-3.48-5.52,3.6-15.72,5.76-18.66,5.76-2.28,0-3.66-1.62-3.66-4.32a3.55,3.55,0,0,1,3.12-3.48c6.12-1,7.86-1.56,9.18-2-6.54-2.34-7.32-2.64-7.32-5.16,0-1.44.18-1.62,2.46-4.74h-2.94c-2,0-3-1.32-3-3.84-.66.6-1,.78-4.08,2.22v13.8c0,5.34-2.16,7.14-8.52,7.14-4.26,0-5.52-1-5.52-4.62,0-2.4,1-3.78,2.7-3.78l1.68.06c.9,0,1.2-.54,1.2-2v-7a6.64,6.64,0,0,1-2.64.6c-2.1,0-4-2.34-4-5.1,0-2.16.36-2.34,6.6-4.74V113.74h-3.18c-2,0-3.18-1.44-3.18-4s1.14-4,3.18-4h3.18V99c0-2.16,1.5-3.36,4.2-3.36s4.26,1.2,4.26,3.36v6.72c2.58,0,4.8,0,4.8,4s-2.22,4-4.8,4v7.38a4.45,4.45,0,0,1,1.62-.3c1.92,0,3.54,2.16,3.54,4.68a2.75,2.75,0,0,1,1.92-.66Zm2.7-17.7c.84,2,1.62,4.2,2.28,6.12h5.58c.84-2.1,1.62-4.5,2.1-6.12Zm2.34,25.14c-.24.42-1.86,2.88-1.86,2.94s.06.3.48.54c1,.6,3.24,1.08,4.68,1.68a15.11,15.11,0,0,0,3.66-5.16Z"/><path class="cls-2" d="M290.17,134.56c-1.14,2-2,2.58-3.48,2.58a4.38,4.38,0,0,1-4.32-4c0-1.2.3-1.86,2-4.44a43.36,43.36,0,0,0,4.38-9.18c.42-1.14.48-1.38.6-1.68H286c-1.92,0-3-1.32-3-3.78s1.08-3.78,3-3.78h4.2v-4a11.79,11.79,0,0,1-2.64.3c-1.86,0-3.24-1.8-3.24-4.32,0-2.94,2.16-3.3,5.88-3.9a41.76,41.76,0,0,0,8.4-2.52,4.24,4.24,0,0,1,1.68-.36c2,0,3.54,2,3.54,4.62s-.84,2.88-5.46,4.44v5.76h2.82c1.86,0,3,1.38,3,3.78s-1.08,3.78-3,3.78h-2.82v2.64a4.75,4.75,0,0,1,2.28-.72c1.32,0,1.56.24,3.06,3.3,1.38,2.82,2.4,5.46,2.4,6.3,0,1.5-2,3.12-3.84,3.12-1.68,0-2-.78-3.9-5.1V148.6c0,2.1-1.5,3.24-4.08,3.24s-4.08-1.14-4.08-3.24Zm28.5-22.08H306.55c-1.74,0-2.64-1.2-2.64-3.36s.9-3.3,2.64-3.3h12.12V104c-3.18.12-6.3.24-9.54.24-2.58,0-3.72-1-3.72-3.24s1.2-3.42,4-3.42c4.56,0,5,0,8-.18a96.78,96.78,0,0,0,13.92-1.68,14.43,14.43,0,0,1,2.94-.36c1.68,0,3.12,1.68,3.12,3.72,0,1.68-.9,2.7-2.82,3.18a69.47,69.47,0,0,1-8.58,1.26v2.28h11.28c1.68,0,2.7,1.2,2.7,3.3s-1,3.36-2.7,3.36H325.93v1.62h6.42c4,0,5,1,5,5v9.48c0,4-1.08,5-5,5h-6.42v1.92h8.4c1.56,0,2.4,1.08,2.4,3s-.84,3-2.4,3h-8.4v1.86H337c1.86,0,2.88,1.26,2.88,3.6s-1,3.54-2.88,3.54H305c-1.86,0-2.88-1.26-2.88-3.54s1-3.6,2.88-3.6h13.68v-1.86H307.75c-1.56,0-2.4-1.08-2.4-3s.84-3,2.4-3h10.92v-1.92h-6.78c-4,0-5-1-5-5v-9.48c0-4,1-5,5-5h6.78Zm0,9.3v-1.92h-3.36c-1.32,0-1.32.42-1.32,1.92Zm0,4.74H314c0,1.44,0,1.86,1.32,1.86h3.36Zm7.26-4.74h4.2c0-1.5,0-1.92-1.26-1.92h-2.94Zm0,4.74v1.86h2.94c1.26,0,1.26-.42,1.26-1.86Z"/><path class="cls-2" d="M194.23,218.28c.68.14,1.07.25,1.47.31a29.34,29.34,0,0,1,4.33.64c.59.18.93,1.16,1.51,2a3.74,3.74,0,0,0,.6-1,70.79,70.79,0,0,1,1.88-7.15c.72-1.9,2.18-3.52,3-5.41s2.59-3.12,3.66-4.86a20,20,0,0,1,2.65-3c1-1.08,2.11-2.1,3.14-3.17.79-.82,1.54-1.67,2.33-2.48.14-.14.4-.15.6-.23,2.68-1.06,5.34-2.16,8-3.15a4.94,4.94,0,0,1,2.67-.39c1.82.46,3.09-.84,4.66-1.11,1.27-.22,2.5-.68,3.76-.94s2.72-.53,3.83.66c1.82-.64,2.64,1.33,4.15,1.59s3.11.71,4.65,1.11a10.48,10.48,0,0,1,1.25.54,7.09,7.09,0,0,0,2.12.75c2.64.09,4.55,1.53,6.47,3.1a5.58,5.58,0,0,0,1.93.66c.26.08.6,0,.78.18a18.9,18.9,0,0,1,5.32,6.45c1.17,2.61,2.48,5.15,3.65,7.76a12.57,12.57,0,0,1,.62,2.37c1.11-.18,2.05-.31,3-.48a4.32,4.32,0,0,0,1.37-.36,4.18,4.18,0,0,1,4,.72,12.2,12.2,0,0,0,2.36,2,1.41,1.41,0,0,0,1.3-.44c1.42-2.36,2.24-2,3.83-1.06.81.51,2.2.09,3.19.09a11.25,11.25,0,0,1,1.65,1.05,3.73,3.73,0,0,1,.69,1,24.24,24.24,0,0,0,2.12,2.05c1.33,1,2.73,1.88,4.13,2.77,1.57,1,3.15,2,4.76,3,1.28.75,2.62,1.4,3.93,2.09,1.85,1,3.65,2.09,5.55,2.94,2.45,1.1,3.68,3.3,5.24,5.24.4.5,1.22.66,1.72,1.12a15.42,15.42,0,0,1,1.49,1.81,5.76,5.76,0,0,0,1,1.22c2.36,1.65,3.52,4.2,5,6.52.59.93,1.37,1.75,2.05,2.63.85,1.1,1.7,2.21,2.53,3.32.11.14.08.42.2.5,2.23,1.4,2.39,4,3.55,6,.79,1.39,1.76,2.67,2.57,4.06A19.23,19.23,0,0,1,341.7,264c.79,2,1.53,4.07,2.33,6.1.72,1.82,1.4,3.66,2.24,5.43,1.05,2.22.9,4.83,2.38,6.92.26.36.06,1,.22,1.48.42,1.24.89,2.45,1.38,3.65a26.39,26.39,0,0,1,2.22,9.46c0,.87.65,1.72.77,2.61.2,1.51.16,3.06.32,4.58.23,2.09.67,4.17.79,6.26a7.1,7.1,0,0,1-.59,3.36c-.85,1.78-.82,3.64-1.1,5.5-.25,1.63-.37,3.39-1.76,4.68-.33.31-.26,1-.44,1.55-.56,1.64-.69,3.77-1.82,4.79-1.61,1.46-2.07,4.13-4.76,4.54a9.89,9.89,0,0,0-3.32,1.46c-1.11.66-2.26.27-3.29.13-2.1-.3-4.15-1-6.23-1.48a18.41,18.41,0,0,1-2.14-.42,32.78,32.78,0,0,1-5.1-2.12c-2.83-1.68-5.55-3.56-8.25-5.44a18.61,18.61,0,0,1-2.15-2.11c-2-1.95-4.06-3.89-6.12-5.8a2.44,2.44,0,0,0-.9-.37c-1.46,1.79-2.91,3.45-4.23,5.21a29.79,29.79,0,0,0-1.91,3.23c-.73,1.25-1.37,2.56-2.19,3.75-.57.83-1.61,1.4-2,2.28-.66,1.43-2,2.05-3,3.06-2.4,2.41-4.78,4.85-7.27,7.17-1.13,1.06-2.82,1.64-3.7,2.85a9.56,9.56,0,0,1-3.68,2.64c-2.68,1.45-5.53,2.6-8.19,4.09a15.56,15.56,0,0,0-2.86,2.66c-.26.26-.46.66-.77.77-2.34.8-4.71,1.52-7.05,2.31a4.44,4.44,0,0,0-1.18.83c-.21.16-.39.53-.57.52-1.76-.07-3.17,1-4.76,1.47s-2.95.88-4.4,1.39c-2.2.76-4.34,1.68-6.56,2.33a35.16,35.16,0,0,1-4.61.75l-1.9.3c-1.61.28-3.21.65-4.83.8-2.08.19-4.22,0-6.25.39-1.09.21-2.28,0-3.4.87-.76.57-2.28.19-3.46.16-1.63-.05-3.25-.2-4.88-.27-2.51-.11-5-.13-7.52-.3-1.74-.12-3.46-.42-5.19-.64a2.75,2.75,0,0,0-.9,0,4.53,4.53,0,0,1-2.93-.26,58.25,58.25,0,0,0-6.38-1.57c-2-.51-4.09-1.05-6.11-1.68s-3.93-1.3-5.85-2.08c-1.57-.64-3-1.84-4.83-1.47-.19,0-.42-.16-.63-.27-2.26-1.24-4.59-2.4-6.77-3.76a27.78,27.78,0,0,1-3.13-2.74c-.89-.77-1.89-1.43-2.73-2.25-1.18-1.13-2.25-2.39-3.39-3.56a12.45,12.45,0,0,0-1.37-1.15,41,41,0,0,1-10.83-12.09,62.76,62.76,0,0,1-3.57-7.93c-1.56-3.85-1.85-7.95-2.19-12-.09-1.07-.61-2.1-.8-3.17-.34-2-.52-4-.88-6-.25-1.45-.72-1.55-2.08-.84-1,.52-2.11.83-3.13,1.29-.7.32-1.35.74-2,1.12a4.21,4.21,0,0,1-.68.45c-2.8,1-5.58,2.05-8.43,2.89a30.93,30.93,0,0,1-4.12.54c-2.52.37-5,.8-7.55,1.19-1.2.19-2.31.64-3.64.25a12,12,0,0,0-3.65-.07c-2.22.08-4.07-.94-6-1.83-2.25-1-2.34-3.44-3.59-5.1a11.37,11.37,0,0,1-1.33-2.48c-.36-.87-.55-1.82-.83-2.73-.53-1.76-1.26-3.49-.93-5.38a5.46,5.46,0,0,1,.59-1.47,24.47,24.47,0,0,1,1.55-3c1.07-1.56,2.23-3.06,3.4-4.55.46-.59,1.1-1,1.55-1.62.7-.93,1.3-1.93,1.94-2.9.22-.35.44-.7.68-1,.68-1,1.34-2,2.07-2.95a19.28,19.28,0,0,1,1.48-1.52c.71-.76,1.37-1.56,2.11-2.29.56-.56,1.29-1,1.8-1.57,1.23-1.44,2.39-3,3.57-4.45.88-1.12,1.72-2.28,2.65-3.37s2-2.24,3-3.33c.6-.63,1.3-1.16,1.9-1.79q3.06-3.24,6.06-6.53c.49-.53.82-1.22,1.3-1.76s1.11-.77,1.45-1.3a11.55,11.55,0,0,1,2.86-2.59,28.09,28.09,0,0,0,3.05-2.72q3.21-3.21,6.35-6.49c.92-1,1.57-2.21,3.09-2.38,1.16-.13,1.3-1.17,1.29-1.94,0-2,1.51-2.73,2.64-3.82,1.28-1.22,3-1.67,4.48-2.45a40.35,40.35,0,0,0,4.83-3.34c1.35-1,2.48-2.16,4.31-2.5,1.55-.29,3-1.29,4.43-2,1.63-.78,3.21-1.68,4.88-2.37s3.75-1.17,5.53-2c2-.91,4.56-.5,6.16-2.43.06-.07.16-.19.21-.17,1.6.39,2.7-.7,4-1.31.59-.28,1.06-.86,1.67-1.07,1-.34,1.67-1.27,3-1.05.94.16,2-.51,3-.57a11.08,11.08,0,0,1,4.24.22,14.45,14.45,0,0,1,3.7,2.62,1.42,1.42,0,0,1,.31,1.13,7.54,7.54,0,0,1-4.27,5.2A11.39,11.39,0,0,0,194.23,218.28Zm-38.71,14.1c-.34.39-.57.91-.86,1-1.47.21-1.7,1.52-2.37,2.44a10.13,10.13,0,0,1-1.29,1.78c-1.44,1.24-3.34,1.75-4.79,3.08-1.73,1.6-3.74,2.88-5.54,4.42-.92.78-1.55,1.89-2.45,2.71-1.51,1.38-3.22,2.55-4.67,4-1.69,1.67-3.2,3.52-4.78,5.3-.63.7-1.21,1.45-1.87,2.12-1,1-2.4,1.8-2.8,3.39a2.62,2.62,0,0,1-.73,1c-.65.7-1.36,1.34-2,2.06-.46.54-.78,1.2-1.25,1.73-1.65,1.83-3.38,3.59-5,5.45s-2.91,3.61-4.42,5.38-3.16,3.53-4.72,5.31a18.86,18.86,0,0,0-1.55,1.92,30.85,30.85,0,0,1-2.59,3.82,6.36,6.36,0,0,0-1.63,4.11,3,3,0,0,1-.08,1c-1.47,2.84.22,5.09,1.34,7.44a19.45,19.45,0,0,0,1.08,1.88c.31.5,3.44,1.62,4.06,1.55a24.13,24.13,0,0,1,3.69-.28c1.92.07,3.82.47,5.66-.57a11.25,11.25,0,0,1,2.23-.61c2.26-.64,4.54-1.2,6.74-2a27.29,27.29,0,0,0,4.6-2.19c1.31-.75,2.49-1.74,3.74-2.61.41-.28.88-.49,1.27-.79.75-.58,1.47-1.2,2.17-1.83.2-.17.26-.5.46-.64a26.44,26.44,0,0,1,4-2.57c1-.45,2.18-1.16,3.45-.45a14.35,14.35,0,0,0,1.78.71c1.06.4,3,4.06,2.68,5.11-.57,2.29-2.59,4.29-1.4,6.93-.91,1.77-.38,3.62-.25,5.43.1,1.42.26,2.84.47,4.26.37,2.62.73,5.25,1.23,7.86a22.45,22.45,0,0,0,1.34,4.71,30.81,30.81,0,0,0,2.74,5,41.45,41.45,0,0,0,4.27,5.65c2.14,2.25,4.55,4.26,6.86,6.36,1.56,1.42,3.29,2.67,4.71,4.22a16.92,16.92,0,0,0,6.73,4.16c2.16.81,4.12,2,6.23,2.85.5.2,1,.47,1.49.64,1.52.52,3.1.93,4.59,1.53A23.33,23.33,0,0,0,196,358.2a5.07,5.07,0,0,1,1.27.48,2.66,2.66,0,0,0,.89.26,23.63,23.63,0,0,1,3.14-.07c1.38.19,2.71.73,4.09.93,1.95.29,3.91.43,5.87.56.6,0,1.22-.22,1.83-.21,2.26.05,4.52.24,6.79.22,1.47,0,2.83-1.05,4.45-.3a3,3,0,0,0,2.47,0,8.24,8.24,0,0,1,4.32-1.2,18.3,18.3,0,0,0,2.34-.33c1.37-.25,2.74-.49,4.11-.78,2.87-.61,6-.8,8.54-2,2.15-1,4.5-.86,6.55-2s4.39-1.13,6.33-2.52a29.15,29.15,0,0,1,4.49-2.29c4.45-2.16,8.24-5.52,13-7.09.16-.05.27-.25.39-.39.36-.43.69-.88,1.07-1.3,1.43-1.6,3.87-2.16,4.6-4.52.1-.33.76-.47,1.12-.75A23.9,23.9,0,0,0,287.1,332c1.64-1.87,3.09-3.91,4.57-5.92,1-1.4,2.05-2.83,3-4.32s1.78-3.25,2.63-4.9a6.21,6.21,0,0,0,.66-1.85,8,8,0,0,1,2.64-5.37c1.15-.95,2.38-1.8,3.55-2.73.95-.75,3.87-1.09,4.68-.3,1.83,1.76,3.92,3.42,5.18,5.55a27.82,27.82,0,0,0,4.46,5.4,19.63,19.63,0,0,0,2.47,2.36c1.25.87,2.66,1.53,4,2.3a3.81,3.81,0,0,1,.59.55,6,6,0,0,0,1.23,1c1.92.92,3.62,2.51,6,2.08a.39.39,0,0,1,.26.07c1.42,1.46,3.26,1.45,5.11,1.67,2.51.28,4.21-.47,5.08-2.84a35.34,35.34,0,0,0,1.32-4.4c.4-1.78.67-3.6.91-5.41.21-1.6.32-3.22.44-4.83a5.21,5.21,0,0,0,0-2.19c-1.38-3.25-1.24-6.8-2.1-10.14-.65-2.55-1.13-5.15-1.9-7.66-.92-3-1.53-6.16-3.13-9a23.07,23.07,0,0,1-1.46-4.53,36.21,36.21,0,0,0-1.17-3.61,7.61,7.61,0,0,0-1.37-1.66,3,3,0,0,1-.51-.75c-.55-1.24-1-2.53-1.61-3.74-.71-1.42-1.59-2.75-2.34-4.15-1.11-2.07-2-4.25-3.29-6.22-1.49-2.31-3.26-4.45-4.92-6.67-1.12-1.5-1.86-3.32-3.65-4.26-.24-.13-.29-.57-.48-.82a25.35,25.35,0,0,0-2.19-2.64c-1.16-1.11-2.65-1.94-3.65-3.17a25.94,25.94,0,0,0-7-5.67c-3.16-1.89-6.74-3-9.79-5.16a3.72,3.72,0,0,0-1.09-.3c-.73,2.23-.36,3.14,1.27,3.41s3.43,3,3,4.64c-.48,1.85-3.6,4.48-5.54,4.62a12.35,12.35,0,0,1-5.85-.74c-.68-.29-1.62.1-2.45.11a5.82,5.82,0,0,1-2.41-.15,2.21,2.21,0,0,0-2-.23,16.52,16.52,0,0,1-4.91,1,52.9,52.9,0,0,1-6.27-.39c-.54,0-1.35,0-1.57-.3-.87-1.29-1.29-.54-1.79.24-.23.34-.37.8-.68,1-2.4,1.71-3.32,5-6.44,5.94a1,1,0,0,0-.5.48,5.35,5.35,0,0,1-3.2,2.58c-1.3.54-2.53,1.47-3.87,1.65a20,20,0,0,0-8,2.44c-.18.11-.51.2-.65.11-1.22-.72-2.48-.44-3.73-.23-1,.18-2.06.42-3.08.62a6,6,0,0,1-2.25.38c-2.19-.51-4.33-1.21-6.49-1.86-.48-.15-1.1-.3-1.34-.66-.92-1.41-2.29-1.22-3.47-.85a5.25,5.25,0,0,1-5.37-1.31c-1.79-1.61-3.9-2.78-5.79-4.23-2.71-2.09-4.93-4.26-6.06-7.52-.55-1.56-1.33-3-1.94-4.43-1.39.71-2.68,1.25-3.84,2a6.7,6.7,0,0,1-5.82.58c-2.15-.6-4.26-1.4-6.66-1a51,51,0,0,1-6.89.08c-.41,0-.82.11-1.24.14A28.61,28.61,0,0,1,175,236c-1.65-.11-3.3-.83-4.92.18-.18.11-.58-.1-.86-.2a8.86,8.86,0,0,0-1.53-.51c-2.34-.23-4.68-.41-7-.6a13.47,13.47,0,0,0-2-.1c-.82,0-1.53.14-1.94-.86A6.58,6.58,0,0,0,155.52,232.38Zm82,13.94.06-.37,8-1.06c.22,0,.4-.23.62-.31.62-.25,1.25-.48,1.89-.71,1.78-.66,3.86-.94,5.27-2.06s2.33-2.57,3.79-3.57c.1-.07.14-.23.2-.35a16.37,16.37,0,0,1,1-1.92,25.55,25.55,0,0,0,1.75-2.2c.65-1.23,1.07-2.58,1.61-3.87a18,18,0,0,0,1.08-2.49,45.55,45.55,0,0,0,1-5.53,13.48,13.48,0,0,0-.1-4.44,31.71,31.71,0,0,0-2-4.6c-.15-.32-.08-.78-.29-1-2.09-2.49-3.57-5.53-6.57-7.22-1-.59-1.82-1.76-2.9-2.16a41,41,0,0,1-7.46-3.21c-.23-.14-.57-.08-.86-.13a3.33,3.33,0,0,1-1.26-.24c-2-1.33-4.36-1.25-6.57-1.53-1.74-.22-3.44,1.35-5.34.51a.3.3,0,0,0-.24.11c-1,1.35-2.56.82-3.82,1.26-.3.1-.71,0-.94.15a28.43,28.43,0,0,0-4.12,3.33c-1.69,1.9-3.1,4.06-4.64,6.1a19,19,0,0,0-1.48,1.9,33.77,33.77,0,0,1-2.22,4.27c-1.84,2.42-1.5,5.41-2.45,8.05a5.09,5.09,0,0,0-.25,2.32c.28,2,.66,4.06,1.09,6.07a8.68,8.68,0,0,0,.85,2c.48,1,1,2,1.5,2.89a11.49,11.49,0,0,0,2,3.06c1.56,1.31,3.39,2.3,5.08,3.46a9.86,9.86,0,0,1,2.24,1.79c1.48,1.86,2.19,2,4.25.71.84-.51,2.2-1.17,2.81-.84a5.66,5.66,0,0,0,2.61.57,7.45,7.45,0,0,1,1.65.16C235.51,245.48,236.53,245.93,237.57,246.32Zm48-22a22.46,22.46,0,0,0-1.8-2.55,2.09,2.09,0,0,0-1.43-.61,36.46,36.46,0,0,1-4.58.51c-1.81-.12-2.62.51-2.77,2.22,0,.05-.21.08-.18.07l-.75-3.49-.3.08v5.07c.79-.51,1.7-1.14,2.66-1.69a2.34,2.34,0,0,1,1.34-.36c1.8.24,3.59.62,5.4.87A14.5,14.5,0,0,0,285.6,224.35Zm-116.83,1.83.12.53,6.76,1.09a28.79,28.79,0,0,0-2-3.42c-.11-.14-1.23.49-1.89.76-.06,0-.15,0-.21,0Z"/><path class="cls-2" d="M202.12,311.22c-1.59-.36-2.9-.35-4.07.64a1.39,1.39,0,0,1-1,.37c-2.08-.52-3,.53-3.55,3-.52-1.78-1.42-2.29-2.68-1.95-1,.28-2,.78-3,1s-1.79.73-2.89,0c-.83-.56-2.1-.42-3.13-.72-1.66-.48-3.28-1.07-4.92-1.61a10.23,10.23,0,0,0-1.32-.34c-1.11-.21-2.23-.39-3.34-.59a.43.43,0,0,1-.25-.1c-2-3-5.52-4.38-7.51-7.29a64.62,64.62,0,0,1-4-7.17,34.49,34.49,0,0,1-2-4.88,22,22,0,0,1-1.09-4.64,41.68,41.68,0,0,1-.25-7,9.15,9.15,0,0,1,1.33-3.38c.93-1.76,1.94-3.48,3-5.17a28,28,0,0,1,3-4.34c1.74-1.86,3.14-4.19,5.84-4.93.87-1.68,2.82-1.84,4.12-2.91a16.18,16.18,0,0,1,6.74-3.36c2.29-.55,4.39-1.92,6.58-2.91a4.83,4.83,0,0,1,1.18-.34,10.72,10.72,0,0,0,3.07-.57c1.66-.88,3.16.13,4.73.05,1.14-.05,2.29,0,3.44,0,.14,0,.29-.07.41,0,1.71.43,3.44.79,5.1,1.34,1.33.45,2.54,1.34,3.89,1.67a6.4,6.4,0,0,1,3.95,2.72,11.45,11.45,0,0,0,1.41,1.37,27.27,27.27,0,0,1,5.57,9c.7,1.76,1.15,3.62,1.71,5.44.38,1.21.83,2.41,1.09,3.65a6.27,6.27,0,0,1-.12,2.06c-.18,1.33.55,1.86,1.81,1.62a7.91,7.91,0,0,1,2.62.27c.35,0,.67.3,1,.33,2.33.16,3.1-.42,4-2.79a33.12,33.12,0,0,1,2.37-5.53,71.37,71.37,0,0,1,4.72-6.41c.28-.36.88-.47,1.33-.69.2-.1.5-.11.62-.26,1.61-2.22,4.34-2.45,6.52-3.64a29.64,29.64,0,0,1,5.57-2.17,17.6,17.6,0,0,1,4-.67c2.6-.17,5.22-.32,7.82-.25a43,43,0,0,1,5.86.73,32.71,32.71,0,0,1,4.27,1,8.64,8.64,0,0,1,2.09,1.17q3.38,2.24,6.72,4.51c.17.11.23.38.36.57a29,29,0,0,1,3.63,6.65,31.63,31.63,0,0,0,1.8,3,3.75,3.75,0,0,1,.62,2.16c-.47,2.22.71,3.91,1.39,5.82a11.52,11.52,0,0,1,.57,5.14,87.22,87.22,0,0,1-1.89,9,8.13,8.13,0,0,1-1,1.76c-.43.78-.84,1.57-1.26,2.35-.13.23-.23.6-.42.66-1.66.5-2,2.14-3,3.27-1.17,1.38-2.43,2.74-4.41,3-.08,0-.23,0-.25.07-.84,2.09-3.5,1.26-4.63,2.88a7.61,7.61,0,0,1-.82,1c-.21.21-.52.54-.72.5-1.61-.36-2.65.35-3.58,1.6a2.28,2.28,0,0,1-1.59.64c-3,.16-6,.25-9,.32a8.39,8.39,0,0,1-5.36-1.27.73.73,0,0,0-.65-.05c-1,1.06-1.85.13-2.72-.28-.12,0-.23-.28-.31-.26-2.7.47-3.78-2.17-5.78-3a14.8,14.8,0,0,1-4.19-2.55c-1.78-1.67-4-2.94-5.06-5.4-.73-1.65-2.39-2.85-3.34-4.43a36,36,0,0,1-2.8-5.92,12.87,12.87,0,0,1-.63-3.92c0-1-.45-1.38-1.36-1.22a30.12,30.12,0,0,1-6.37.92c-1.26,0-1.35,1.47-1.55,2.46a9.57,9.57,0,0,1-2.91,5.11,14.36,14.36,0,0,0-2.15,3.47c-.41.73-.57,1.38-1.69,1.64s-1.82,1.41-2.71,2.17a17.12,17.12,0,0,1-1.27,1.15c-1.68,1.18-3.39,2.33-5.08,3.5-.15.1-.28.3-.44.32A2,2,0,0,0,202.12,311.22Zm11.37-29.89c-.26-2.93-1.55-5.39-2.46-8-.25-.68-.51-1.36-.71-2.05a10.65,10.65,0,0,0-3.16-5.22,20.18,20.18,0,0,0-5.21-3.34,24.57,24.57,0,0,0-12.15-1.94,12.83,12.83,0,0,0-5.72,1.36c-1.87,1.13-4.14,1.49-5.72,3.16a20,20,0,0,1-2.39,2.11,17.54,17.54,0,0,0-2.8,2,54.39,54.39,0,0,0-4.48,5.89,12.21,12.21,0,0,0-2.08,4.52,16,16,0,0,0,.41,8.3c1.4,3.69,2.76,7.39,5.13,10.6,1.74,2.35,3.74,4.43,6.65,5.33.52.16,1.27,0,1.6.29,2,2,4.42.81,6.63.69,1.69-.09,3.42.86,5.06-.2,0,0,.16.07.24.11a3.39,3.39,0,0,0,3-.09,36.11,36.11,0,0,1,3.63-1.11c1.22-.28,2.57-.24,3.09-1.74a.45.45,0,0,1,.32-.24c1.68,0,2-1.92,3.5-2.3a3.18,3.18,0,0,0,1.58-1.61c1.59-2.95,3.83-5.55,4.32-9.07C212.14,286.27,212.91,283.81,213.49,281.33Zm26,5.68-.21.05a34.85,34.85,0,0,1,1,4.68c.23,3,2.16,5.15,3.87,7.27,1.34,1.67,3.41,2.75,5.16,4.08a1.22,1.22,0,0,0,.68.3c2.56-.15,4.59,1.35,6.75,2.29,1.77.77,3.21,2.34,5.24,2.63a11,11,0,0,0,2-.19,23,23,0,0,0,2.35-.05,23.5,23.5,0,0,0,3.62-.75c1.52-.48,3.26-.79,4.42-1.75,2.42-2,5.07-3.91,6.59-6.81a10.16,10.16,0,0,0,1.27-5.88c-.23-2.13-.12-4.3-.42-6.42-.23-1.59-1-3.1-1.32-4.69a13.93,13.93,0,0,0-5.86-8.79,1.19,1.19,0,0,1-.28-.31c-1.52-2.05-3.27-3.63-6.11-3a.93.93,0,0,1-.59-.25,8.66,8.66,0,0,0-6.11-1.95c-1.77.16-3.57,0-5.35,0a2.78,2.78,0,0,0-1,.12c-2,.78-4,1.63-6,2.39a12.07,12.07,0,0,0-5.48,4.21,35.46,35.46,0,0,0-2.85,5.17,12.06,12.06,0,0,0-1.36,3.3A26.41,26.41,0,0,0,239.53,287Z"/><path class="cls-2" d="M233.19,329.25c-.25,1.81-.56,1.82-2.16,1.46a11.59,11.59,0,0,0-3.52.32c-.61.06-1.23.08-1.83.19a37.37,37.37,0,0,1-4.26.86c-1.82.13-3.72.48-5.37-.8a2.64,2.64,0,0,0-1-.36c-2.65-.6-4.25-2.42-5.65-4.6-.9-1.41-2.18-2.57-3.2-3.9-.57-.75-.75-1.6.31-2.2a.87.87,0,0,0,.39-.39c.86-2.25,3.18-2.61,4.9-3.74.18-.12.6.1.9.18a8.48,8.48,0,0,1,4.93,4.19,3,3,0,0,0,2.61,1.79,1.34,1.34,0,0,1,.82.44c1.12,1.14,2.42,1.06,3.82.66.88-.25,1.82-.29,2.67-.59a8.31,8.31,0,0,0,2.49-1.34,4.91,4.91,0,0,1,3.93-1.24,5.71,5.71,0,0,1,3.26,1,3.53,3.53,0,0,1,1.38,4.66,10.17,10.17,0,0,1-.55,1.36c-.67,1.12-1.32,2.28-2.94,2.1A17.23,17.23,0,0,0,233.19,329.25Z"/><path class="cls-2" d="M235.15,227.86c-.83,1-1.5,1.53-2.78.44-.67-.56-2-.43-3.09-.42-1.44,0-2.09-.85-2.66-1.94a2.43,2.43,0,0,1,.24-2.71c.38-.56.48-1.32.9-1.83a32.71,32.71,0,0,1,2.57-2.7c.4-.38,1-.6,1.37-1,1.66-1.5,6.37-2.35,8.4-.6a3.91,3.91,0,0,1,1.69,3.33c-.06.76.26,1.56.13,2.3-.54,3.12-3.07,4.32-5.57,5.48C236.09,228.35,235.62,228,235.15,227.86Z"/><path class="cls-2" d="M195.72,287.33c-2,.54-3.17-.94-4.55-1.85a1.52,1.52,0,0,1-.49-1.06c-.17-2.68,1.73-5,5-5.63,2.6-.46,3.33,1.35,4.51,2.49.49.46,0,2.12-.31,3.16a4,4,0,0,1-1.3,1.9,17.22,17.22,0,0,1-2.69,1.43Z"/><path class="cls-2" d="M256.56,282.19a5.1,5.1,0,0,1,1.34.81c1.92,2.13,1.13,4.89-1.27,6.47-1.64,1.07-3.32.47-4.94.94-1,.27-2.23-1.44-2.35-2.53-.29-2.68.82-4.06,3.52-4.5A25.35,25.35,0,0,0,256.56,282.19Z"/></g></g></svg>