<svg xmlns="http://www.w3.org/2000/svg" viewBox="0 0 448.68 402.3"><defs><style>.cls-1{fill:#f2cbbd;}.cls-2{fill:#fff;}</style></defs><title>hospital-icon</title><g id="レイヤー_2" data-name="レイヤー 2"><g id="favicon"><path class="cls-1" d="M445.61,200.15c0,5-1.48,9.92-1.89,14.87s-3.26,9.48-4.1,14.38,2,10.53.78,15.36-2.72,9.66-4.36,14.37-5.12,8.68-7.15,13.25-4.39,8.83-6.78,13.23-.64,11.32-3.37,15.52-10.21,5.07-13.25,9.06-7.34,6.58-10.68,10.33-2.29,11.54-5.89,15-7.66,6.62-11.5,9.85-6.6,8.07-10.65,11-10.06,3.23-14.31,5.92-9.93,2.7-14.34,5.1-6.08,10.27-10.64,12.38-9.75,3.16-14.44,5-9.16,4.73-14,6.24-10.71-.69-15.6.52-9.9,1.43-14.85,2.34-9.87,1.22-14.87,1.82-9.62,5.37-14.65,5.67-10.18.9-15.22.9-10-5.53-14.92-5.82-10.24,1.8-15.17,1.21-10.34.31-15.22-.59-10-2.17-14.81-3.36-8.27-7.7-13-9.2-9.53-2.7-14.17-4.49-10.55-.75-15.07-2.83-8-6.49-12.34-8.86S99.25,365.47,95,362.8s-8.55-5.41-12.57-8.35-5.57-9.07-9.38-12.28-8.94-4.91-12.51-8.38-5.27-8.68-8.58-12.4-6.23-7.58-9.26-11.55-9.89-5.23-12.61-9.41-4.47-9.13-6.86-13.51S18,278.24,16,273.67s-3.75-9.4-5.39-14.13,1.63-10.85.38-15.71S1,235.71.15,230.76s2.18-10.54,1.76-15.56,4.08-10,4.08-15S1.12,190,1.53,185.08-.2,174.53.63,169.63,6,160.34,7.26,155.52s2.38-9.79,4-14.51.45-10.79,2.48-15.36,9-6.85,11.38-11.24,7.31-7,10-11.25-.07-12.22,3-16.21,7.6-6.87,10.94-10.62,6.26-8,9.86-11.48S66,57.56,69.88,54.32s7.76-6.57,11.82-9.53,10.36-2.61,14.61-5.3,9.74-2.79,14.15-5.19,8.78-4.16,13.35-6.27,7.53-7.39,12.23-9.2,8-7.7,12.78-9.21,10.61.37,15.5-.84S174,6.31,179,5.4s9.69-3.22,14.69-3.82,10.23,1.8,15.26,1.5,9.92.86,15,.86,10.08-2.18,15-1.88,10.45-2.57,15.38-2,9.08,7.38,14,8.27,10.31-.5,15.14.69,9.44,3.46,14.18,5,10.05,1.67,14.69,3.47,9.85,2.73,14.36,4.82,7.34,7.77,11.71,10.15,11,1.16,15.19,3.83,7.87,6.5,11.89,9.44,4.45,10.41,8.26,13.62,10.72,2.93,14.29,6.4,5.48,8.6,8.79,12.33,10.66,4.31,13.69,8.27,5.35,8.81,8.07,13,5.26,8.78,7.64,13.17-1.06,11.65,1,16.22,8.67,7.25,10.32,12,1.48,10.06,2.73,14.92-1.57,10.37-.73,15.32,8.77,8.93,9.19,13.95S445.61,195.11,445.61,200.15Z"/><path class="cls-2" d="M341.58,235.07c-1.82,3.17-4.37,6.24-5.37,9.75-.92,3.24-3.17,5.58-4.35,8.6-1,2.51-3.82,4.33-5.92,6.37-1.49,1.44-3.56,2-4.73,4.13-.73,1.32-2.95,1.75-4.4,2.75a13.59,13.59,0,0,0-2.05,2.16,3.8,3.8,0,0,1-.54.64c-1.7,1.19-3.39,2.4-5.13,3.52-2.21,1.42-4.43,2.81-6.71,4.09a30.34,30.34,0,0,1-3.39,1.36,8,8,0,0,0-1.2.75c-.75.48-1.52,1.4-2.24,1.36-2.63-.18-3.8,2.65-6.18,2.77a6.81,6.81,0,0,0-4.87,2.12c-.77.77-2.46.59-3.71.93-3.27.89-6.52,1.86-9.79,2.75a11.73,11.73,0,0,1-3.43.6c-1.19-.06-1.95,0-2.24,1.37-.05.25-1.24.32-1.92.38-4.12.34-8.27,0-12.32,1.61-2.46.94-5.28,1-8,1.32-2.3.28-4.67.15-6.93.6-2.07.41-4,.84-6.07-.07-.17-.08-.5-.11-.6,0-2.72,2.65-6.25.5-9.26,1.56-1.27.44-2.81.1-4.07.55-1.89.66-3.47-.3-5.18-.42-4.46-.3-8.59-2.12-13.1-2.27-3.5-.12-7-1.18-10.44-1.74a25.23,25.23,0,0,0-3.52,0,8.43,8.43,0,0,0-2.4-.63,15,15,0,0,1-8.45-2.29,2.69,2.69,0,0,0-1.38-.27,18.47,18.47,0,0,1-10-2.68c-1-.64-2.38-.58-3.5-1-4.57-1.82-9.18-3.55-13.61-5.67-1.81-.86-3.12-2.7-4.76-4a43.62,43.62,0,0,0-4.46-3,39,39,0,0,1-11.47-10.43c-2.42-3.29-4.6-6.77-6.82-10.21a43.88,43.88,0,0,1-4.19-7c-1.54-3.73-3.41-7.37-3.67-11.57-.13-2.21-2.66-3.87-4.39-3.95a22.62,22.62,0,0,0-6.45.18,24.42,24.42,0,0,1-5.79,1c-4.78-.1-9.42,1.38-14.19.95-6-.54-11.9-1.31-17.87-1.57a30.17,30.17,0,0,1-8.48-1.8c-2-.67-3.92-1.49-5.83-2.35a46.07,46.07,0,0,1-5.87-3,15.23,15.23,0,0,1-3.76-3.4c-1.58-2-3.47-4.11-4.15-6.48-1.19-4.12-2.37-8.45-.67-12.81a.47.47,0,0,0,.06-.19,9.16,9.16,0,0,1,1.62-5.77c1.58-2.3,2.37-5.15,3.52-7.76a.79.79,0,0,1,.38-.42c3-1.1,5-3.81,6.26-6.06,1.87-3.35,5.52-4.67,7.23-7.94.42-.81,1.9-1,2.78-1.64,1.67-1.21,3.18-2.65,4.89-3.79.91-.62,2.2-.66,3.15-1.24,2.06-1.26,4-2.69,6-4.07s3.92-2.76,5.86-4.18c.4-.29.65-.79,1.06-1.06A31.87,31.87,0,0,1,78,154.48c4.53-2.31,9.15-4.44,13.34-7.4,1.7-1.2,3.85-1.74,5.66-2.81,2.68-1.61,5.3-3.2,7-6.17.73-1.3,3-1.73,4.47-2.61s3.14-2,4.79-2.9,3.69-1.7,5.53-2.55c2.73-1.25,5.39-2.68,8.19-3.73,3.66-1.37,6.87-4.08,11.23-3.58,1.07.12,2.29-1.2,3.47-1.81,2.54-1.3,5.2-3.78,7.62-3.57,3.19.28,4.8-2.13,7.46-2.51,2.81-.4,5.36-2.34,8.17-3,4.41-1.07,8.94-1.67,13.43-2.46,3.78-.66,7.56-1.35,11.36-1.92,1.57-.24,3.2-.07,4.78-.27,2.84-.36,5.67-.9,8.51-1.3,1.39-.19,2.82-.12,4.2-.38s2.43-1,3.68-1.13c3.78-.4,7.59-.71,11.39-.87,3.25-.14,6.51,0,9.76,0,3.4,0,6.79,0,10.19,0,2.92-.06,5.85-.5,8.76-.35,5.37.28,10.75.42,16.05,1.52a23.86,23.86,0,0,0,5.48.09c2.66-.08,5.34-.56,8-.3s5,1.33,7.51,1.86c3.28.69,6.16,2.77,9.64,2.68,4.34-.12,8.44,1.24,12.63,1.85,3.09.45,5.53,2.12,8.5,2.64,3.35.58,6.53,2.07,9.8,3.15a27.74,27.74,0,0,1,2.73.82,38.26,38.26,0,0,1,3.43,1.9c.24.13.41.48.63.51,3.45.46,5.35,3.26,7.92,5.07,2.25,1.58,4.76,2.76,7,4.35,1.56,1.11,3,2.25,5,2.12a.91.91,0,0,1,.66.43c2.11,3.66,5.87,5.3,9.1,7.62,2.59,1.86,4.73,4.32,7.14,6.43a50,50,0,0,0,4.1,3.14c3.08,2.19,6.14,4.34,7.3,8.27a9.58,9.58,0,0,0,1.67,2.8c1.26,1.67,2.63,3.26,3.9,4.92a12.87,12.87,0,0,1,1.12,1.94c.37.74.5,1.69,1,2.22a14.77,14.77,0,0,1,3.54,5.24c1.85,4.67,3.95,9.24,6,13.83,1.14,2.56,2.52,5,3.54,7.65A111.27,111.27,0,0,1,409,209.14c1,4.25,1.5,8.72.22,13.11-.87,3-1.57,6.05-2.64,9a15.39,15.39,0,0,1-2.85,4.72c-1,1.13-2.52,1.78-3.81,2.63,0,0-.17-.08-.19-.07-3,3.46-7.72,2.63-11.49,4.25a6.87,6.87,0,0,1-8.37-1.81,1.29,1.29,0,0,0-.89-.44,92.23,92.23,0,0,0-11.29.29c-1.69.22-3.25,1.24-5.1.61q-6.15-2.08-12.35-4c-1.08-.34-2.25-.43-3.35-.72C345.17,236.18,343.44,235.62,341.58,235.07Zm47.51-1.58.05-.37a37.83,37.83,0,0,1,4-1,3.37,3.37,0,0,0,2.75-1.6c1.87-2.93,2.27-6.22,2.73-9.48.94-6.78-1.95-12.93-4-19-2.32-6.87-5.9-13.32-9.06-19.89a77.85,77.85,0,0,0-4.43-7.8c-1.47-2.31-3.2-4.45-4.8-6.67-2-2.77-3.62-5.9-6-8.23-4.29-4.17-9-7.88-13.62-11.73-1.46-1.23-3.06-2.29-4.63-3.38-.77-.54-1.64-.93-2.41-1.48-1.73-1.24-3.36-2.63-5.14-3.8s-3.86-2.32-5.84-3.4c-2.58-1.41-4.16-4.26-7.29-4.91a5.06,5.06,0,0,1-2.4-1.48c-3.13-3.21-7.53-3.87-11.4-5.33-4-1.52-8.62-1.53-12.46-3.92a3,3,0,0,0-1.7-.11c-1.12.11-2.3.6-3.34.39-3.88-.78-7.71-1.78-11.55-2.72-2.59-.63-5.16-1.42-7.77-1.93-2.12-.41-4.3-.5-6.44-.76-.88-.11-1.74-.38-2.61-.42-3-.14-6-.09-9-.36-3.37-.3-6.69-1.15-10.05-1.25-4.4-.14-8.81.21-13.22.35-2.44.08-4.89.09-7.33.24-5.12.3-10.24.73-15.36,1-1.44.07-2.92-.5-4.33-.34-3.7.43-7.37,1.12-11.05,1.66-4.08.58-8.16,1.08-12.23,1.68-1.84.27-3.65.66-5.47,1s-3.32.83-5,1c-1.45.18-3-.2-4.38.12-2.78.65-5.45,2-8.23,2.31-3.08.29-5.5,1.68-8,3.06s-5.21,2.76-7.83,4.12a22,22,0,0,1-3.56,1.72c-2.53.77-5.11,1.36-7.68,2a17.31,17.31,0,0,0-2.91.64c-1.95.87-3.72,2.19-5.72,2.86-3.74,1.24-7.21,3-10.79,4.61s-5.91,4.25-8.75,6.53a13.29,13.29,0,0,1-2.29,1.16c-2.23,1.14-4.39,2.47-7,2.33-.09,0-.19.2-.31.27-1.6,1-3.17,2.61-4.82,2.7-3.3.17-4.87,3.08-7.68,3.94a22.37,22.37,0,0,0-4.86,2.74c-1.4.87-2.75,1.81-4.1,2.74s-2.37,1.71-3.56,2.55c-.51.36-1.1.6-1.58,1s-1,1.12-1.56,1.53c-1.57,1.09-3.21,2.06-4.79,3.13s-2.83,2.43-4.48,3c-2.92,1.08-4.84,3.35-7.09,5.22a72.48,72.48,0,0,0-5.85,5.78c-1,1.07-2.51,2.15-2.71,3.41a6.13,6.13,0,0,1-1.87,3.31,8,8,0,0,0-1.62,2.31c-.66,1.81-1,3.72-1.61,5.56a9.84,9.84,0,0,0,.41,7.61,38.8,38.8,0,0,0,3.49,5.8c2.51,3.52,6.35,4.85,9.72,6.48s7.85,1.73,11.85,2.32c2.89.43,5.83.58,8.75.88a20.37,20.37,0,0,0,3.27.38c2.54-.18,5.07-.51,7.6-.82,2.8-.34,5.62-.65,8.4-1.11a45.21,45.21,0,0,0,6.64-1.48,17,17,0,0,0,5.26-2.56c1.91-1.52,5.07-2.33,7.15-1.24a9.66,9.66,0,0,1,5.27,7.64c.62,5,.27,10.06,3.27,14.53,1.26,1.88,1.81,4.24,3,6.18a83.21,83.21,0,0,0,6.9,10,86.11,86.11,0,0,0,9.82,9.75c2.55,2.16,4.71,4.91,8.27,5.88,2,.56,3.87,2,5.79,3a33.65,33.65,0,0,1,3.13,1.71c2.24,1.56,4.4,3,7.38,3.05a9.38,9.38,0,0,1,5.17,1.46c1.35,1,2.59.8,3.95,1a20.47,20.47,0,0,1,3.37.74c1.25.39,2.42,1.07,3.69,1.34,2.47.52,5,.92,7.5,1.25,1.3.16,3.51-.39,3.8.17,1,1.92,2.52.37,3.67,1a8.41,8.41,0,0,0,3.89.92c4,0,8.14-1.39,11.87,1.28.14.1.41,0,.62,0,3-.06,6.05.06,9-.23,5.12-.49,10.25-1.06,15.31-1.92,5.47-.93,11.19-.72,16.35-3.27.22-.11.64.14.95.26s.84.58,1.07.47c1.65-.8,3.24-1.7,4.65-2.47a8.22,8.22,0,0,0,2.84.35c3.15-.75,6.27-1.65,9.36-2.62.87-.28,1.69-1.5,2.41-1.39,4.68.69,7.61-3.52,11.81-4.06.13,0,.18-.4.33-.47,1.67-.8,3.36-1.55,5-2.36,2.59-1.26,5.43-2.22,7.7-3.92,3.94-2.94,7.48-6.41,11.28-9.54a35.6,35.6,0,0,1,3.92-2.24c1-.63,1.36-2.31,1.92-2.66,2.72-1.68,2.21-5.24,4.57-7a5.71,5.71,0,0,0,1.61-2.63c1.63-4.48,3.08-9,4.76-13.48.69-1.84,2.07-3.43,2.67-5.29a2.62,2.62,0,0,1,3.15-2.07c1.43.12,3.09.06,4.21.77,3.2,2,6,4.71,9.29,6.51a41.49,41.49,0,0,0,9.15,3.19c2.85.77,5.8,1.18,8.71,1.69a3.41,3.41,0,0,0,2.13,0c2.11-1.33,4,.11,6.06.2s3.33,2.36,5.55,1.14a8.42,8.42,0,0,1,3.17-1.41A18,18,0,0,1,389.09,233.49Z"/><path class="cls-2" d="M299.27,138.42c4.35.12,6.28,2.07,6.68,6.5.17,1.77.79,3.5.94,5.27a7.3,7.3,0,0,1-.47,3.51c-1.15,2.58-3.53,4.58-3.57,7.7a1,1,0,0,1-.66.76c-2,.38-2.41,2.44-3.66,3.45a16.71,16.71,0,0,1-6.67,3.36c-4.66,1.05-9.47.58-14.14-.26-2.23-.4-4.28-1.79-6.43-2.68-2.36-1-4.6-2.24-7.4-1.11-1,.4-2.47-.43-3.64-.22-2.05.38-4,1.55-6.06,1.62-4.38.15-8.87,1.35-13.13-1-1.27-.7-2.9-.74-4.23-1.37a28.77,28.77,0,0,1-10-7.53c-1.95-2.35-3.63-2.59-5.88-.68-1.36,1.16-2.89,2.14-4.34,3.21-.19.15-.49.51-.51.5-1.5-1.27-2.63.31-3.94.45-2,.23-4.15.75-6,.22-4-1.13-7.68-2.48-10.69-6-4.55-5.32-7.27-11.43-9.86-17.72a21,21,0,0,1-1.78-5.38,6,6,0,0,1,1-4c2-2.6,7.38-3.19,10-1.21a6,6,0,0,1,1.81,2.81c.72,2.18,1,4.52,1.78,6.66,1.79,4.82,4.08,9.42,8.13,12.76,4.27,3.53,6.85,1.84,9.55-2.16,1.3-1.92,2.61-4.7,6-3.87.52.13,1.81-.67,1.85-1.13.24-2.25,1.71-1.61,2.95-1.44,2.48.33,3.39,2.66,5,4.12,3.52,3.24,6.67,6.95,10.48,9.79,2.48,1.85,5.84,2.53,8.83,3.66.31.12.79-.19,1.19-.29.71-.18,1.61-.72,2.09-.47,1.59.84,2.67,0,3.79-.79,3.14-2.19,6.3-4.4,10.17-5,1.15-.17,3.12.12,3.52.84,2.4,4.42,6.6,5.86,10.91,7.24.71.23,1.46.37,2.2.55,1.72.41,3.1.8,4.94-.68a6.86,6.86,0,0,0,2.48-4.18c1-3.61.11-7.16.3-10.72a5.49,5.49,0,0,1,5.39-5.11C298.57,138.43,298.92,138.42,299.27,138.42Z"/><path class="cls-2" d="M210.38,197.37c1.22,1.39,2.9,2.59,3.54,4.2,1.62,4.08-2.19,9.23-6.58,9.43a4.25,4.25,0,0,0-2,.88c-1.27.9-2.68.4-4.17-1.67-2.95,2.65-6.64,2.44-10.21,2.43-4.74,0-9.52-.65-14.21-.24a8,8,0,0,1-6.25-1.68c-.39-.31-1.09-.25-1.66-.32-.19,0-.52.18-.58.11-1.51-1.95-4.18-1.18-5.95-2.57-1.45-1.14-2.93-2.87-4.52-3a7.68,7.68,0,0,1-5-2.7,23.33,23.33,0,0,1-3.59-3.93c-1.31-2.15-2.17-4.56-3.31-6.83-1-2,0-3.92.86-5.42,1.61-2.87,7.86-3.52,10.46-1.3a6.62,6.62,0,0,1,2.17,3c.93,3.54,3.21,5.85,5.95,8.09a19.55,19.55,0,0,0,11.42,4.38c2.85.22,5.61,1.4,8.46,1.9a21.37,21.37,0,0,0,4.66,0,75.78,75.78,0,0,0,7.7-.48c1.48-.21,2.84-1.19,4.31-1.59,2.49-.68,5-1.16,7.54-1.75C209.59,198.22,209.75,197.94,210.38,197.37Z"/><path class="cls-2" d="M244.86,202.88a.91.91,0,0,0,.58,0c3.29-1.43,4.64-1,6.69,1.72a62.74,62.74,0,0,0,5.57,6.4,18.74,18.74,0,0,0,10,4.92c1.82.36,3.64.69,5.47.94.37.05.79-.34,1.2-.47a8.15,8.15,0,0,1,2.31-.61c2,0,4,.34,6,.25a26.19,26.19,0,0,0,5.85-.89,9.14,9.14,0,0,0,2.75-2,13.58,13.58,0,0,1,7.8-3c1.69-.1,3.14.16,4,1.91.42.84,1.37,1.42,1.77,2.26a7.69,7.69,0,0,1,.38,2.57c0,.14-.35.28-.4.46-1.45,4.85-5.92,5.47-9.77,6.63-2.87.86-6,.83-9,1.35-1.8.31-3.54.91-5.31,1.36a7.51,7.51,0,0,1-1.61.31c-3.49.16-7,.36-10.49.38a43.8,43.8,0,0,1-6.87-.44,11.17,11.17,0,0,1-3.52-1.45c-4.22-2.29-9-3.74-12.28-7.53-.52-.59-1.51-.76-2.07-1.33a51.81,51.81,0,0,1-5.33-6c-.54-.76-.33-2.4.09-3.42.84-2.07,1.92-4.13,4.61-4.36.19,0,.36-.23.56-.25A4,4,0,0,1,244.86,202.88Z"/><path class="cls-2" d="M231.19,258.17l-1.32-1.12c-.69.26-1.25.71-1.71.62-3.08-.56-6.12-1.46-9.22-1.82a46.74,46.74,0,0,0-7,.22,15.82,15.82,0,0,1-9.7-3.24c-2.95-2.06-5.75-4.5-6.95-8.12a5,5,0,0,1-.18-3.26,10.06,10.06,0,0,1,6.4-5.45c2.18-.7,5.21.92,6.48,2.91,3.71,5.82,7.56,8.08,14.76,6.7,2.44-.47,4.93-.61,7.39-1a3.76,3.76,0,0,0,1.51-.61,7.7,7.7,0,0,1,8.6.57c1,1,1,4.26-.05,5.68-.28.38-.77.72-.86,1.14-.48,2.3-1.76,2.84-4.07,2.74-1,0-2.19,1.61-3.22,2.56A6.42,6.42,0,0,0,231.19,258.17Z"/></g></g></svg>