<svg xmlns="http://www.w3.org/2000/svg" viewBox="0 0 731.55 180.87"><defs><style>.cls-1{fill:#f2cbbd;}.cls-1,.cls-2,.cls-3{stroke:#d97979;stroke-miterlimit:10;}.cls-2,.cls-3{fill:#fff;}.cls-2{stroke-width:1.1px;}.cls-3{stroke-width:0.68px;}.cls-4{fill:#364c59;}</style></defs><title>hospital-time</title><g id="レイヤー_2" data-name="レイヤー 2"><g id="診療時間_out" data-name="診療時間 out"><path class="cls-1" d="M10.55.5H198.18V51.33H.55V10.5A10,10,0,0,1,10.55.5Z"/><rect class="cls-1" x="198.18" y="0.5" width="76.13" height="50.83"/><rect class="cls-1" x="274.3" y="0.5" width="76.12" height="50.83"/><rect class="cls-1" x="350.43" y="0.5" width="76.13" height="50.83"/><rect class="cls-1" x="426.55" y="0.5" width="76.13" height="50.83"/><rect class="cls-1" x="502.68" y="0.5" width="76.13" height="50.83"/><rect class="cls-1" x="578.8" y="0.5" width="76.13" height="50.83"/><path class="cls-1" d="M654.93.5h66.12a10,10,0,0,1,10,10V51.33H654.93Z"/><rect class="cls-2" x="0.55" y="51.33" width="197.62" height="50.83"/><rect class="cls-3" x="198.18" y="51.33" width="76.13" height="50.83"/><rect class="cls-3" x="274.3" y="51.33" width="76.12" height="50.83"/><rect class="cls-3" x="350.43" y="51.33" width="76.13" height="50.83"/><rect class="cls-3" x="426.55" y="51.33" width="76.13" height="50.83"/><rect class="cls-3" x="502.68" y="51.33" width="76.13" height="50.83"/><rect class="cls-3" x="578.8" y="51.33" width="76.13" height="50.83"/><rect class="cls-3" x="654.93" y="51.33" width="76.13" height="50.83"/><path class="cls-2" d="M.55,102.17H198.18V153H10.55a10,10,0,0,1-10-10Z"/><rect class="cls-3" x="198.18" y="102.17" width="76.13" height="50.83"/><rect class="cls-3" x="274.3" y="102.17" width="76.12" height="50.83"/><rect class="cls-3" x="350.43" y="102.17" width="76.13" height="50.83"/><rect class="cls-3" x="426.55" y="102.17" width="76.13" height="50.83"/><rect class="cls-3" x="502.68" y="102.17" width="76.13" height="50.83"/><rect class="cls-3" x="578.8" y="102.17" width="76.13" height="50.83"/><path class="cls-3" d="M654.93,102.17h76.12V143a10,10,0,0,1-10,10H654.93Z"/><path class="cls-4" d="M19.41,21.44a.86.86,0,0,1-1-1,.85.85,0,0,1,1-.93h6.77a.83.83,0,0,1,.93.93.84.84,0,0,1-.93,1ZM20,28.6a.84.84,0,0,1-.94-1,.83.83,0,0,1,.94-.93h5.24a.85.85,0,0,1,.94.93.85.85,0,0,1-.94,1ZM19.06,32c0-1.17.49-1.69,1.7-1.69h3.72c1.18,0,1.7.52,1.7,1.69v3.44c0,1.17-.52,1.69-1.7,1.69H20.76c-1.18,0-1.7-.52-1.7-1.69Zm1-7a.84.84,0,0,1-.93-.93.83.83,0,0,1,.93-.9h5.18a.81.81,0,0,1,.91.9.82.82,0,0,1-.91.93Zm.05-7.18a.81.81,0,0,1-.9-.91.82.82,0,0,1,.9-.93h5.35a.82.82,0,0,1,.91.93.82.82,0,0,1-.91.91Zm1.25,14.37c-.34,0-.46.12-.46.47v2.13c0,.34.12.46.46.46h2.38c.35,0,.47-.12.47-.46V32.7c0-.35-.12-.47-.47-.47ZM40.13,21.54c.56.34.81.61.81,1.1a1.09,1.09,0,0,1-1,1.06c-1.27,0-4.66-3.27-6.4-5.64-1.15,2.13-4.9,5.86-6.1,5.86a1.07,1.07,0,0,1-1-1.06c0-.39.2-.66.76-1.08a17.27,17.27,0,0,0,5.27-5.93c.32-.64.54-.83,1-.83.61,0,1.1.36,1.1.8a1.18,1.18,0,0,1-.07.49A22.94,22.94,0,0,0,40.13,21.54ZM38,32a18.77,18.77,0,0,1-9.44,5.57,1,1,0,0,1-1-1,.92.92,0,0,1,.76-1c1.5-.49,6.5-2.16,9.61-6.74.32-.45.52-.59.89-.59a1,1,0,0,1,1.13.88C40,29.8,39.07,30.83,38,32Zm-2.09-9.71c0,1.43-5.61,5.64-6.81,5.64a1,1,0,0,1-.93-1c0-.39.14-.66.73-1a15.71,15.71,0,0,0,5.3-4.14.82.82,0,0,1,.73-.47A1,1,0,0,1,35.93,22.27ZM38,25.93c0,1.54-6.92,6.37-8.73,6.37a1,1,0,0,1-.91-1,.81.81,0,0,1,.42-.76c.27-.19.91-.41,1.72-.81a17.37,17.37,0,0,0,5.66-4.24A1.1,1.1,0,0,1,37,25,1,1,0,0,1,38,25.93Z"/><path class="cls-4" d="M56.39,17.42h7.87a.82.82,0,0,1,.91.93.82.82,0,0,1-.91.91H48.45c-.32,0-.4.07-.4.39V23c0,6.25-.78,10-2.89,13.41-.44.69-.71,1-1.2,1a1.08,1.08,0,0,1-1.15-1.06c0-.37.24-.63.61-1.22a17.09,17.09,0,0,0,2.43-6.82,6.53,6.53,0,0,1-2.23,1.2,1.06,1.06,0,0,1-1-1.15,1,1,0,0,1,.63-.88,23.25,23.25,0,0,0,2.82-1.67c0-1.5.08-2.48.08-3.75V19.16a1.55,1.55,0,0,1,1.71-1.74h6.53V16.17a1,1,0,0,1,2,0ZM44.84,23.16c-.49,0-.68-.18-.86-.67a17.81,17.81,0,0,0-.88-2.13,2.12,2.12,0,0,1-.32-.86,1,1,0,0,1,1.06-.93.92.92,0,0,1,.83.61,15.25,15.25,0,0,1,1.15,3A.93.93,0,0,1,44.84,23.16Zm8,10.66c0,.54-.81,1.45-1.28,1.92-1.15,1.12-1.59,1.59-2.18,1.59a1,1,0,0,1-1-1,1,1,0,0,1,.42-.81,19.25,19.25,0,0,0,2.3-2.37.82.82,0,0,1,.69-.32A1,1,0,0,1,52.84,33.82ZM54.7,20.7c.34-.95.49-1.32,1.08-1.32s1.08.27,1.08.74a1.11,1.11,0,0,1-.15.58h7a.85.85,0,1,1,0,1.7H59.06A9.37,9.37,0,0,0,60.61,24c.27-.25.66-.64.93-.94a.92.92,0,0,1,.66-.36.9.9,0,0,1,.93.88c0,.46-.61,1-1.17,1.45a10.71,10.71,0,0,0,2.55,1.42c.54.27.66.49.66.86a.9.9,0,0,1-.86.93,6.7,6.7,0,0,1-2.25-1v3.58c0,1.35-.4,1.74-1.75,1.74H57.54v3.11c0,.86,0,2-2.2,2-1.28,0-2.28-.15-2.28-1.11a.85.85,0,0,1,.85-.93c.3,0,.64.1,1.18.1.37,0,.57-.17.57-.59V32.5H52.54c-1.32,0-1.74-.39-1.74-1.74V27.47a3,3,0,0,1-1.5.74.88.88,0,0,1-.85-.93c0-.49.19-.64.66-.86a11.48,11.48,0,0,0,2.06-1.25,8.83,8.83,0,0,0-1.08-.69.94.94,0,0,1-.61-.78.9.9,0,0,1,.83-.94,6.3,6.3,0,0,1,2.18,1.3,10.4,10.4,0,0,0,1.45-1.66H49.57a.85.85,0,0,1,0-1.7ZM60.27,28v-.76c0-.42-.08-.49-.49-.49H53.06c-.42,0-.49.07-.49.49V28Zm-7.7,1.52v.83c0,.42.07.49.49.49h6.72c.41,0,.49-.07.49-.49v-.83ZM56,22.4a11.49,11.49,0,0,1-2.26,2.79H59.6A13.19,13.19,0,0,1,57,22.4Zm5.54,11c.81.88.93,1,2,2,.39.39.52.61.52.93a1.06,1.06,0,0,1-1,1c-.59,0-1.4-.83-2-1.45-1.27-1.3-1.34-1.62-1.34-2a1,1,0,0,1,1-.91A1.1,1.1,0,0,1,61.54,33.36Z"/><path class="cls-4" d="M68.22,18.23c0-1.18.54-1.72,1.71-1.72h3.8a1.49,1.49,0,0,1,1.72,1.72V33.6a1.49,1.49,0,0,1-1.72,1.72h-3.8c-1.17,0-1.71-.54-1.71-1.72Zm1.88,6.45h3.41V19c0-.46-.1-.56-.56-.56H70.67c-.47,0-.57.1-.57.56Zm3.41,1.79H70.1v6.37c0,.47.1.57.57.57H73c.46,0,.56-.1.56-.57Zm10.28-8.76H88a.83.83,0,0,1,.93.93.83.83,0,0,1-.93.94H83.79v2.89H89a.93.93,0,1,1,0,1.86H77a.93.93,0,1,1,0-1.86h4.78V19.58H77.61a.83.83,0,0,1-.93-.94.83.83,0,0,1,.93-.93h4.12V16.19a1,1,0,1,1,2.06,0ZM87.17,27h1.91a.93.93,0,1,1,0,1.86H87.17v6.77c0,1.52-.71,2.11-3,2.11-1.52,0-2.38,0-2.38-1.11a.92.92,0,0,1,.88-1c.45,0,1,.1,1.62.1s.81-.1.81-.73V28.87H77A.93.93,0,0,1,77,27h8.16V25.76a1,1,0,0,1,2.06,0Zm-7.5,3.28a17.87,17.87,0,0,1,2,2.36,1.1,1.1,0,0,1,.25.71,1.11,1.11,0,0,1-1.11,1c-.34,0-.56-.17-.9-.61-.69-.91-1.16-1.47-1.47-1.82-.67-.71-.76-.85-.76-1.25a1,1,0,0,1,1-.95A1.23,1.23,0,0,1,79.67,30.29Z"/><path class="cls-4" d="M94.83,24.48V36.86a.89.89,0,0,1-1,1,.88.88,0,0,1-1-1V17.71c0-1.37.52-1.89,1.89-1.89h5.49c1.38,0,1.89.52,1.89,1.89v4.88c0,1.4-.51,1.89-1.89,1.89Zm0-5.08h5.29V18.08c0-.34-.09-.44-.44-.44H95.27c-.34,0-.44.1-.44.44Zm0,1.57v1.89h4.85c.35,0,.44-.1.44-.44V21Zm3.41,6.82c0-1.25.44-1.72,1.71-1.72h6.13c1.28,0,1.72.47,1.72,1.72v5.67c0,1.25-.44,1.71-1.72,1.71H100c-1.27,0-1.71-.46-1.71-1.71Zm1.83,1.94H106V28.4c0-.44-.1-.54-.54-.54h-4.81c-.44,0-.54.1-.54.54Zm0,1.67v1.44c0,.44.1.54.54.54h4.81c.44,0,.54-.1.54-.54V31.4Zm11.31-6.87h-5.44c-1.38,0-1.89-.49-1.89-1.89V17.79c0-1.4.51-1.89,1.89-1.89h5.51c1.38,0,1.89.49,1.89,1.89V35.15c0,2.35-1.59,2.5-3,2.5s-2.26,0-2.26-1.11a.9.9,0,0,1,1-1c.44,0,.86.1,1.47.1s.86-.12.86-.76Zm-5.4-5.1h5.4v-1.3c0-.34-.1-.44-.44-.44h-4.51c-.35,0-.45.1-.45.44ZM106,21v1.49c0,.35.1.45.45.45h4.95V21Z"/><path class="cls-4" d="M231.13,29.8a21.58,21.58,0,0,1-1,4.27,11.46,11.46,0,0,1-1.37,2.67,1.57,1.57,0,0,1-1.2.76,1,1,0,0,1-1.08-1c0-.52.24-.71.51-1.15,1.55-2.5,2.31-4.54,2.31-11.75V18.08a1.75,1.75,0,0,1,1.91-1.94h11.94a1.73,1.73,0,0,1,1.91,1.92V34.88c0,2.06-1.05,2.62-3.55,2.62-1.77,0-2.53-.27-2.53-1.15a1,1,0,0,1,1.16-1.08c.27,0,1.54.07,1.79.07.93,0,1.1-.09,1.1-1V29.8Zm.22-5.91c0,1.47,0,3-.1,4h11.8v-4Zm0-1.93h11.67V18.89c0-.61-.12-.74-.74-.74H232c-.52,0-.66.15-.66.67Z"/><path class="cls-4" d="M309.67,16.58a1.09,1.09,0,1,1,2.18,0c0,1.67-.05,3.85-.07,5.67a18.63,18.63,0,0,0,2.74,7.45A15,15,0,0,0,320,35.05c1.08.59,1.2.83,1.2,1.25a1.21,1.21,0,0,1-1.1,1.23c-1.1,0-6.94-3.46-9.27-10.77a16.39,16.39,0,0,1-7.53,9.88c-1.15.71-1.57.89-2.06.89a1.15,1.15,0,0,1-1-1.11c0-.54.25-.76,1.23-1.3,8.16-4.51,8.24-11.47,8.24-17.09Zm-4,3.9a26,26,0,0,1-2.06,6.21c-.42.81-.74.93-1.25.93a1,1,0,0,1-1.08-.88,2,2,0,0,1,.27-.91,26.07,26.07,0,0,0,1.93-5.47c.18-.66.49-.88,1-.88A1.06,1.06,0,0,1,305.65,20.48Zm15-.46c0,.73-1.86,4.44-3.18,6.2-.47.64-.72.76-1.16.76a1.21,1.21,0,0,1-1.15-1,2.5,2.5,0,0,1,.54-1.08,27.1,27.1,0,0,0,2.38-4.34c.46-1.08.78-1.54,1.4-1.54A1.18,1.18,0,0,1,320.65,20Z"/><path class="cls-4" d="M379.18,22.89a1,1,0,0,1-1.05-1.06.94.94,0,0,1,1.05-1H385a1.41,1.41,0,0,1,1.59,1.38c0,1.66-1.4,6.74-5.35,11-1.2,1.32-2,1.93-2.55,1.93a1.08,1.08,0,0,1-1.07-1,1.07,1.07,0,0,1,.46-.88,18.06,18.06,0,0,0,6.28-9.91c0-.25-.12-.39-.37-.39Zm11-2.23a17.72,17.72,0,0,0,1.78,3.89,31.43,31.43,0,0,0,4.79-5.19,1.23,1.23,0,0,1,1-.59,1.16,1.16,0,0,1,1.13,1c0,1.11-3.46,4.69-5.84,6.5a22.59,22.59,0,0,0,6.26,6.65,1.15,1.15,0,0,1,.68,1,1.18,1.18,0,0,1-1,1.2c-1.22,0-6.1-4.34-8.77-9.91V35.1c0,2.43-1.45,2.52-3.27,2.52s-2.28-.41-2.28-1.2a1,1,0,0,1,.93-1.1c.27,0,1.43.12,1.7.12.61,0,.73-.19.73-.81V16.27A1,1,0,0,1,389,15.19a1,1,0,0,1,1.11,1.08Z"/><path class="cls-4" d="M464.88,19.65H474a.91.91,0,0,1,1,1,.91.91,0,0,1-1,1h-8.7a30.42,30.42,0,0,0,4.61,6.4,25.26,25.26,0,0,0,4.44,3.73c.76.52.93.79.93,1.25a1.37,1.37,0,0,1-1.16,1.28c-1.12,0-6.1-4.17-9.21-9.25V37a1,1,0,1,1-2.09,0V25.19a39.54,39.54,0,0,1-3.53,4.61,31.77,31.77,0,0,1-4.39,4.05,2.17,2.17,0,0,1-1.2.56,1.17,1.17,0,0,1-1.15-1.18c0-.41.14-.68.66-1a31.21,31.21,0,0,0,9.22-10.52h-8.61a1,1,0,1,1,0-2h9V16.29a.92.92,0,0,1,1-1,.93.93,0,0,1,1.06,1Z"/><path class="cls-4" d="M550.62,21.76c.81.39,1.5.69,1.82.86a.86.86,0,0,1,.54.85,1.06,1.06,0,0,1-.93,1.11c-1.43,0-7.31-3.58-10.3-6.72a27.32,27.32,0,0,1-5.54,4.56c-.45.29-3.73,2.33-4.69,2.33a1.12,1.12,0,0,1-1-1.1c0-.42.24-.69.88-1a28.19,28.19,0,0,0,9.27-6.58c.69-.78,1-1,1.32-1a1.21,1.21,0,0,1,1.23,1,.51.51,0,0,1-.08.32A30.34,30.34,0,0,0,550.62,21.76ZM542.8,24v2.73h7.55a1,1,0,1,1,0,2H542.8v6.5h8.68a1,1,0,1,1,0,2H532.06a1,1,0,0,1,0-2h8.71v-6.5h-7.51a1,1,0,0,1,0-2h7.51V24h-3.22a1,1,0,0,1,0-1.91h8.66a1,1,0,1,1,0,1.91Zm-6,6.33a12.07,12.07,0,0,1,1.54,3.34,1.09,1.09,0,0,1-1.13,1,1,1,0,0,1-.95-.71c-.3-.61-.71-1.5-1.13-2.23s-.66-1.08-.66-1.45a1,1,0,0,1,1.12-1C536,29.31,536.33,29.63,536.75,30.34Zm12.52-.05c0,.86-1.44,3.24-1.76,3.73-.42.66-.71.86-1.15.86a1.06,1.06,0,0,1-1.13-1c0-.47.27-.74.59-1.25a25.13,25.13,0,0,0,1.3-2.36c.39-.83.61-.95,1.08-.95A1.05,1.05,0,0,1,549.27,30.29Z"/><path class="cls-4" d="M617.93,24.48V34.73H627a1,1,0,0,1,0,2.08H606.67a1,1,0,0,1,0-2.08h9.1V24.48h-7.46a1.06,1.06,0,0,1,0-2.11h7.46V16.29a1,1,0,0,1,1.07-1.08,1,1,0,0,1,1.09,1.08v6.08h7.74a1.06,1.06,0,1,1,0,2.11Z"/><path class="cls-4" d="M673,18.45c0-1.47.58-2,2-2h13c1.47,0,2,.57,2,2V34.58c0,1.47-.56,2-2,2H675c-1.45,0-2-.57-2-2Zm2.74.05c-.44,0-.56.12-.56.56v6h12.72v-6c0-.44-.12-.56-.56-.56Zm-.56,8.68V34c0,.45.12.57.56.57h11.6c.44,0,.56-.12.56-.57V27.18Z"/><path class="cls-4" d="M700.79,19.18h1.39c.94,0,1.6.49,1.6,1.33,0,.64-.74,2.5-2.38,4.83.83.66,1.79,1.45,2.53,2.13a1.52,1.52,0,0,1,.68,1.08,1.1,1.1,0,0,1-1.05,1.13c-.2,0-.42,0-.81-.42a16,16,0,0,0-2-1.91v9.37a1,1,0,1,1-2,0V28.31c-.59.61-2,2-2.8,2a1.07,1.07,0,0,1-1-1.15c0-.56.41-.76.88-1.1,3.83-2.8,5.54-6.13,5.54-6.7,0-.17-.14-.22-.46-.22h-4.61a.87.87,0,0,1-1-1,.87.87,0,0,1,1-1h2.52V16.41a1,1,0,0,1,2,0Zm8.58,7.16a15.87,15.87,0,0,1-1.72,7.21c-1.13,1.89-3.31,3.93-4.17,3.93a1.06,1.06,0,0,1-1.05-1.06c0-.73.47-.86,1.18-1.42,2.65-2.11,3.5-4.46,3.72-8.66-1.61,0-2.55,0-2.55-2V18.3c0-1.49.49-2,2-2h7.63c1.47,0,2,.5,2,2v6.08c0,1.47-.49,2-2,2h-1.3v8.34c0,.59,0,.71.78.71,1.45,0,1.45,0,1.57-.9,0-.35,0-.79.1-1.13.05-.66.32-1,.93-1a1,1,0,0,1,1.08,1.11c0,.88-.25,2.67-.88,3.28a3.72,3.72,0,0,1-2.48.54c-1.84,0-3.09,0-3.09-2.08V26.34Zm-2-8c-.47,0-.59.12-.59.59v4.95c0,.44.12.59.59.59h6.37c.47,0,.59-.15.59-.59V18.89c0-.47-.12-.59-.59-.59Z"/><path class="cls-4" d="M25.54,85.22c3,0,4.46-2.53,4.58-7.36h-.05c-.41,1-1.91,2.41-4.68,2.41-4.76,0-6.47-3.12-6.47-5.81,0-3,1.71-5.91,6.64-5.91s7.09,3.16,7.09,8.28c0,5.3-1.45,10.2-7.14,10.2a6.08,6.08,0,0,1-5.29-2.47c-.64-.89-.47-2.11.73-2.11a1.41,1.41,0,0,1,1.28.83A3.74,3.74,0,0,0,25.54,85.22Zm4.49-10c0-2.55-1.18-4.83-4.37-4.83a3.84,3.84,0,0,0-4.19,4,4,4,0,0,0,4.26,4.09c2.55,0,4.3-1.79,4.3-3.24Z"/><path class="cls-4" d="M35.72,75.56a1.62,1.62,0,1,1,1.62,1.62A1.63,1.63,0,0,1,35.72,75.56ZM39,85.24a1.62,1.62,0,1,1-1.61-1.61A1.62,1.62,0,0,1,39,85.24Z"/><path class="cls-4" d="M41.46,77.79c0-6.2,2.69-9.24,7.4-9.24s7.43,3.06,7.43,9.26-2.6,9.27-7.43,9.27c-4.61,0-7.4-2.87-7.4-9.27Zm7.38-7.43c-2.58,0-4.83,2.33-4.83,7.45,0,5.47,2.08,7.46,4.85,7.46s4.88-2,4.88-7.46c0-5.12-2.25-7.45-4.88-7.45Z"/><path class="cls-4" d="M58.43,77.79c0-6.2,2.7-9.24,7.4-9.24s7.43,3.06,7.43,9.26-2.59,9.27-7.43,9.27c-4.61,0-7.4-2.87-7.4-9.27Zm7.38-7.43c-2.57,0-4.83,2.33-4.83,7.45,0,5.47,2.08,7.46,4.85,7.46s4.88-2,4.88-7.46c0-5.12-2.25-7.45-4.88-7.45Z"/><path class="cls-4" d="M76.24,80.39a3.27,3.27,0,0,1,3.11-2.13,7,7,0,0,1,2.62.53l1.06.4a4.91,4.91,0,0,0,2,.44,2.13,2.13,0,0,0,2-1.2l1.29.71a3.3,3.3,0,0,1-3.13,2.13,6.49,6.49,0,0,1-2.65-.56l-1-.37a5.47,5.47,0,0,0-2-.42,2.1,2.1,0,0,0-2,1.21Z"/><path class="cls-4" d="M99.58,85.39c0,.88-.39,1.47-1.25,1.47s-1.22-.56-1.22-1.49V71.63L93.75,73.2a1,1,0,0,1-1.5-.88c0-.69.57-1,1.1-1.3l4.47-2.18c.68-.34,1.76-.44,1.76.76Z"/><path class="cls-4" d="M107.33,86.72c-.8,0-1-.62-.85-1.3,2.06-7.09,10.07-7.9,10.07-12.07,0-1.3-.71-3-3.75-3a3.59,3.59,0,0,0-3.38,2,1.33,1.33,0,0,1-1.28.86c-1.22,0-1.27-1.27-.9-1.91.61-1.06,2.23-2.72,5.66-2.72,4.34,0,6.2,2.33,6.2,4.73,0,5.76-7.38,5.71-10,11.5h9.24c.72,0,1.16.32,1.16,1s-.47,1-1.16,1Z"/><path class="cls-4" d="M122.71,75.56a1.62,1.62,0,1,1,1.62,1.62A1.64,1.64,0,0,1,122.71,75.56ZM126,85.24a1.62,1.62,0,1,1-1.62-1.61A1.63,1.63,0,0,1,126,85.24Z"/><path class="cls-4" d="M128.45,77.79c0-6.2,2.7-9.24,7.41-9.24s7.43,3.06,7.43,9.26-2.6,9.27-7.43,9.27c-4.61,0-7.41-2.87-7.41-9.27Zm7.38-7.43c-2.57,0-4.83,2.33-4.83,7.45,0,5.47,2.09,7.46,4.86,7.46s4.88-2,4.88-7.46c0-5.12-2.26-7.45-4.88-7.45Z"/><path class="cls-4" d="M145.42,77.79c0-6.2,2.7-9.24,7.41-9.24s7.43,3.06,7.43,9.26-2.6,9.27-7.43,9.27c-4.61,0-7.41-2.87-7.41-9.27Zm7.38-7.43c-2.57,0-4.83,2.33-4.83,7.45,0,5.47,2.09,7.46,4.86,7.46s4.88-2,4.88-7.46c0-5.12-2.26-7.45-4.88-7.45Z"/><path class="cls-4" d="M247.66,77.4a10.9,10.9,0,1,1-10.91-10.89A10.9,10.9,0,0,1,247.66,77.4Zm-19.72,0a8.82,8.82,0,1,0,8.81-8.81A8.86,8.86,0,0,0,227.94,77.4Z"/><path class="cls-4" d="M321.66,77.4a10.9,10.9,0,1,1-10.91-10.89A10.9,10.9,0,0,1,321.66,77.4Zm-19.72,0a8.82,8.82,0,1,0,8.81-8.81A8.86,8.86,0,0,0,301.94,77.4Z"/><path class="cls-4" d="M386.58,81.32c-.69,0-1.18-.32-1.18-1s.44-1,1.18-1H391c.73,0,1.17.36,1.17,1s-.49,1-1.17,1Z"/><path class="cls-4" d="M474.66,77.4a10.9,10.9,0,1,1-10.91-10.89A10.9,10.9,0,0,1,474.66,77.4Zm-19.72,0a8.82,8.82,0,1,0,8.81-8.81A8.86,8.86,0,0,0,454.94,77.4Z"/><path class="cls-4" d="M552.66,77.4a10.9,10.9,0,1,1-10.91-10.89A10.9,10.9,0,0,1,552.66,77.4Zm-19.72,0a8.82,8.82,0,1,0,8.81-8.81A8.86,8.86,0,0,0,532.94,77.4Z"/><path class="cls-4" d="M627.66,77.4a10.9,10.9,0,1,1-10.91-10.89A10.9,10.9,0,0,1,627.66,77.4Zm-19.72,0a8.82,8.82,0,1,0,8.81-8.81A8.86,8.86,0,0,0,607.94,77.4Z"/><path class="cls-4" d="M704.66,77.4a10.9,10.9,0,1,1-10.91-10.89A10.9,10.9,0,0,1,704.66,77.4Zm-19.72,0a8.82,8.82,0,1,0,8.81-8.81A8.86,8.86,0,0,0,684.94,77.4Z"/><path class="cls-4" d="M26.72,136.22c0,.89-.4,1.48-1.26,1.48s-1.22-.57-1.22-1.5V122.47L20.88,124a1,1,0,0,1-1.5-.88c0-.69.57-1,1.11-1.3L25,119.67c.69-.34,1.77-.44,1.77.76Z"/><path class="cls-4" d="M41.55,133H34.74c-1.6,0-1.72-1.27-1.06-2.23l7.09-10.27a2,2,0,0,1,1.91-1.08c1,0,1.35.76,1.35,1.54v10.18h1.5c.68,0,1.1.32,1.1.93s-.44.93-1.1.93H44v3.21c0,.89-.39,1.48-1.25,1.48s-1.23-.57-1.23-1.5Zm0-1.86v-4.34c0-1.42,0-2.8.05-4.19h-.1c-.76,1.32-1.59,2.62-2.42,3.94L36,131.15Z"/><path class="cls-4" d="M50,126.39A1.62,1.62,0,1,1,51.59,128,1.63,1.63,0,0,1,50,126.39Zm3.23,9.69a1.62,1.62,0,1,1-1.61-1.62A1.63,1.63,0,0,1,53.2,136.08Z"/><path class="cls-4" d="M55.71,128.62c0-6.2,2.69-9.24,7.4-9.24s7.43,3.06,7.43,9.27-2.6,9.27-7.43,9.27c-4.61,0-7.4-2.87-7.4-9.27Zm7.38-7.43c-2.58,0-4.83,2.33-4.83,7.46,0,5.47,2.08,7.45,4.85,7.45s4.88-2,4.88-7.45c0-5.13-2.25-7.46-4.88-7.46Z"/><path class="cls-4" d="M72.68,128.62c0-6.2,2.7-9.24,7.4-9.24s7.43,3.06,7.43,9.27-2.6,9.27-7.43,9.27c-4.61,0-7.4-2.87-7.4-9.27Zm7.38-7.43c-2.57,0-4.83,2.33-4.83,7.46,0,5.47,2.08,7.45,4.85,7.45s4.88-2,4.88-7.45c0-5.13-2.25-7.46-4.88-7.46Z"/><path class="cls-4" d="M90.48,131.22a3.3,3.3,0,0,1,3.12-2.13,6.83,6.83,0,0,1,2.62.54l1.06.39a4.91,4.91,0,0,0,2,.44,2.1,2.1,0,0,0,2-1.2l1.3.71a3.31,3.31,0,0,1-3.13,2.13,6.49,6.49,0,0,1-2.65-.56l-1-.37a5.44,5.44,0,0,0-2-.41,2.1,2.1,0,0,0-2,1.2Z"/><path class="cls-4" d="M113.83,136.22c0,.89-.39,1.48-1.25,1.48s-1.22-.57-1.22-1.5V122.47L108,124a1,1,0,0,1-1.5-.88c0-.69.56-1,1.1-1.3l4.47-2.19c.68-.34,1.76-.44,1.76.76Z"/><path class="cls-4" d="M124.48,128.08c-2-.29-3.71-1.44-3.71-4.09s2.36-4.61,6.33-4.61c3.75,0,6.33,1.74,6.33,4.61s-1.74,3.85-3.71,4.09v0a4.47,4.47,0,0,1,4.2,4.68c0,3.21-2.31,5.05-6.82,5.05-4.24,0-6.82-1.71-6.82-5.05a4.47,4.47,0,0,1,4.2-4.68Zm-1.65,4.61c0,2.21,1.92,3.36,4.27,3.36s4.27-1.17,4.27-3.41-1.45-3.53-4.27-3.53c-2.62,0-4.27,1.38-4.27,3.53Zm.42-8.41c0,1.94,1.2,3,3.85,3,2.16,0,3.85-.88,3.85-3,0-1.82-1.32-3.07-3.85-3.07s-3.85,1.2-3.85,3.07Z"/><path class="cls-4" d="M137,126.39a1.62,1.62,0,1,1,1.62,1.62A1.64,1.64,0,0,1,137,126.39Zm3.24,9.69a1.62,1.62,0,1,1-1.62-1.62A1.64,1.64,0,0,1,140.25,136.08Z"/><path class="cls-4" d="M142.75,128.62c0-6.2,2.7-9.24,7.41-9.24s7.43,3.06,7.43,9.27-2.6,9.27-7.43,9.27c-4.61,0-7.41-2.87-7.41-9.27Zm7.38-7.43c-2.57,0-4.83,2.33-4.83,7.46,0,5.47,2.09,7.45,4.86,7.45s4.88-2,4.88-7.45c0-5.13-2.26-7.46-4.88-7.46Z"/><path class="cls-4" d="M159.72,128.62c0-6.2,2.7-9.24,7.41-9.24s7.43,3.06,7.43,9.27-2.6,9.27-7.43,9.27c-4.61,0-7.41-2.87-7.41-9.27Zm7.38-7.43c-2.57,0-4.83,2.33-4.83,7.46,0,5.47,2.09,7.45,4.86,7.45s4.88-2,4.88-7.45c0-5.13-2.26-7.46-4.88-7.46Z"/><path class="cls-4" d="M247.66,128.23a10.9,10.9,0,1,1-10.91-10.89A10.9,10.9,0,0,1,247.66,128.23Zm-19.72,0a8.82,8.82,0,1,0,8.81-8.8A8.85,8.85,0,0,0,227.94,128.23Z"/><path class="cls-4" d="M321.66,128.23a10.9,10.9,0,1,1-10.91-10.89A10.9,10.9,0,0,1,321.66,128.23Zm-19.72,0a8.82,8.82,0,1,0,8.81-8.8A8.85,8.85,0,0,0,301.94,128.23Z"/><path class="cls-4" d="M386.58,132.15c-.69,0-1.18-.32-1.18-1s.44-1,1.18-1H391c.73,0,1.17.37,1.17,1s-.49,1-1.17,1Z"/><path class="cls-4" d="M474.66,128.23a10.9,10.9,0,1,1-10.91-10.89A10.9,10.9,0,0,1,474.66,128.23Zm-19.72,0a8.82,8.82,0,1,0,8.81-8.8A8.85,8.85,0,0,0,454.94,128.23Z"/><path class="cls-4" d="M552.66,128.23a10.9,10.9,0,1,1-10.91-10.89A10.9,10.9,0,0,1,552.66,128.23Zm-19.72,0a8.82,8.82,0,1,0,8.81-8.8A8.85,8.85,0,0,0,532.94,128.23Z"/><path class="cls-4" d="M627.66,128.23a10.9,10.9,0,1,1-10.91-10.89A10.9,10.9,0,0,1,627.66,128.23Zm-19.72,0a8.82,8.82,0,1,0,8.81-8.8A8.85,8.85,0,0,0,607.94,128.23Z"/><path class="cls-4" d="M691.58,132.15c-.69,0-1.18-.32-1.18-1s.44-1,1.18-1H696c.73,0,1.17.37,1.17,1s-.49,1-1.17,1Z"/><path class="cls-4" d="M536.53,170.41a22.08,22.08,0,0,1-2.2,3,9.24,9.24,0,0,0-.63-1.14,23.88,23.88,0,0,0,4.5-8.1l1.44.49a.38.38,0,0,1-.41.16,32.46,32.46,0,0,1-1.66,3.72l.49.13c0,.11-.13.2-.36.22v11.93h-1.17Zm14.13-.49H546a19.73,19.73,0,0,0,5.08,7.53,5,5,0,0,0-.92,1,22.68,22.68,0,0,1-4.93-7.61v10h-1.21v-9.74a21.14,21.14,0,0,1-5,7.43,6,6,0,0,0-.88-.93,18.75,18.75,0,0,0,5.15-7.64h-4.56v-1.17h5.26v-4.46l1.55.11c0,.12-.11.21-.34.25v4.1h5.4Z"/><path class="cls-4" d="M558.77,167.1v1h-6.71v-1Zm-.54,7.34v5.3H554v.84h-1.06v-6.14Zm0-4.62a14.21,14.21,0,0,0,4.72-5.75l1.56.09a.33.33,0,0,1-.27.22,15.19,15.19,0,0,0,4.88,5.27,6.51,6.51,0,0,0-.68,1.1,17,17,0,0,1-4.88-5.45,15.75,15.75,0,0,1-4.79,5.58,6.45,6.45,0,0,0-.54-.87v.53h-5.3v-1h5.3Zm0,2.17v1h-5.3v-1Zm-.06-7.29v1H553v-1Zm-1,10.77H554v3.24h3.2Zm11.46-.81a.41.41,0,0,1-.38.16,15.42,15.42,0,0,1-8.59,6.05,4.88,4.88,0,0,0-.76-1c3.66-1,6.77-3.07,8.36-5.7Zm-3.52-5.29c0,.09-.14.14-.32.14a15,15,0,0,1-4.39,3.64,5.94,5.94,0,0,0-.81-.76,12.58,12.58,0,0,0,4.21-3.51Zm1.8,2.59a.37.37,0,0,1-.34.14,16.26,16.26,0,0,1-5.92,4.43,4.22,4.22,0,0,0-.79-.86,13.85,13.85,0,0,0,5.72-4.22Z"/><path class="cls-4" d="M572.71,165.22h11.68v15.16h-1.26V179.3H574v1.19h-1.24Zm10.42,1.23H574v5.17h9.18ZM574,178.08h9.18V172.8H574Z"/><path class="cls-4" d="M597.67,168a1.23,1.23,0,1,1-1.22-1.22A1.21,1.21,0,0,1,597.67,168Zm0,8.75a1.23,1.23,0,1,1-1.22-1.2A1.2,1.2,0,0,1,597.67,176.78Z"/><path class="cls-4" d="M612,168.81l.86.39a.53.53,0,0,1-.2.22c-.93,4.54-3.15,7.89-5.83,9.7a5.56,5.56,0,0,0-1-1,12.87,12.87,0,0,0,5.36-8.07h-4.88v-1.22h5.44Zm3.06-1.41a22.87,22.87,0,0,0,1.58,4.27,34.11,34.11,0,0,0,4.47-4.63l1.28,1a.46.46,0,0,1-.4.1,48,48,0,0,1-4.83,4.56,12.58,12.58,0,0,0,5.84,5.6,5,5,0,0,0-.94,1.1c-3.28-1.57-5.53-4.77-7-8.68V179c0,1.63-.76,1.78-4.14,1.78a5.8,5.8,0,0,0-.51-1.32c.69,0,1.32,0,1.82,0,1.51,0,1.57,0,1.57-.48V164.09l1.62.09c0,.14-.11.23-.36.25Z"/><path class="cls-4" d="M640.82,179.12v1H632.3v.73h-1.11v-6.46a11.64,11.64,0,0,1-1.23,1.35,6,6,0,0,0-.57-.63v2.18h-3.57v1.49h-1.08V165.24h4.65v9.53a14.22,14.22,0,0,0,3-4.45h-2.18v-.92h3.51v-1.48h-3.15V167h3.15v-1.37H630.2v-.91h4.54v5.56h-1.46l.54.16c0,.13-.16.2-.36.18-.2.45-.45.92-.72,1.42h2.52a17,17,0,0,0,.74-1.76h-.49v-.92h3.6v-1.48h-3.26V167h3.26v-1.37h-3.56v-.91h4.66v5.56h-3.8l1,.29a.39.39,0,0,1-.38.18c-.18.36-.41.84-.67,1.29h4v1h-4.08v1.38h3.6v.89h-3.6v1.44h3.6v.88h-3.6v1.47Zm-12.55-12.8h-2.45v4.27h2.45Zm-2.45,9.85h2.45v-4.5h-2.45Zm9.37-1.73v-1.38H632.3v1.38Zm0,2.33v-1.44H632.3v1.44Zm-2.89.88v1.47h2.89v-1.47Z"/><path class="cls-4" d="M652.3,172.41a1.86,1.86,0,1,1-1.85-1.86A1.85,1.85,0,0,1,652.3,172.41Z"/><path class="cls-4" d="M662.71,165.22h11.68v15.16h-1.26V179.3H664v1.19h-1.24Zm10.42,1.23H664v5.17h9.18ZM664,178.08h9.18V172.8H664Z"/><path class="cls-4" d="M694.82,179.12v1H686.3v.73h-1.11v-6.46a11.64,11.64,0,0,1-1.23,1.35,6,6,0,0,0-.57-.63v2.18h-3.57v1.49h-1.08V165.24h4.65v9.53a14.22,14.22,0,0,0,3-4.45h-2.18v-.92h3.51v-1.48h-3.15V167h3.15v-1.37H684.2v-.91h4.54v5.56h-1.46l.54.16c0,.13-.16.2-.36.18-.2.45-.45.92-.72,1.42h2.52a17,17,0,0,0,.74-1.76h-.49v-.92h3.6v-1.48h-3.26V167h3.26v-1.37h-3.56v-.91h4.66v5.56h-3.8l1,.29a.39.39,0,0,1-.38.18c-.18.36-.41.84-.67,1.29h4v1h-4.08v1.38h3.6v.89h-3.6v1.44h3.6v.88h-3.6v1.47Zm-12.55-12.8h-2.45v4.27h2.45Zm-2.45,9.85h2.45v-4.5h-2.45Zm9.37-1.73v-1.38H686.3v1.38Zm0,2.33v-1.44H686.3v1.44Zm-2.89.88v1.47h2.89v-1.47Z"/><path class="cls-4" d="M712.61,172.46v1.19h-7.53v7.15h-1.26v-7.15h-7.49v-1.19h7.49v-4.73H700a17,17,0,0,1-2.38,3.9,8.94,8.94,0,0,0-1-.72A19.06,19.06,0,0,0,700,164l1.55.45c-.06.13-.18.2-.42.2-.2.63-.43,1.26-.68,1.89h10.69v1.19h-6.1v4.73Z"/><path class="cls-4" d="M716.58,172.52a24,24,0,0,1-2.07,2.16c-.15-.24-.47-.76-.67-1a21.84,21.84,0,0,0,4.52-5.6l1.33.56c-.05.1-.19.16-.39.14a27.14,27.14,0,0,1-1.53,2.25l.32.11a.4.4,0,0,1-.36.23v9.42h-1.15Zm2.57-7.93a.34.34,0,0,1-.37.15,25.5,25.5,0,0,1-4.07,4.3,7.5,7.5,0,0,0-.7-.9,17.74,17.74,0,0,0,3.78-4.09Zm9.08,9.1.83.39a.5.5,0,0,1-.18.16,10.22,10.22,0,0,1-3.08,3.7,16.41,16.41,0,0,0,5.18,1.83,4,4,0,0,0-.73,1,16.54,16.54,0,0,1-5.44-2.22,17.87,17.87,0,0,1-5.51,2.22,6.84,6.84,0,0,0-.61-1,16.54,16.54,0,0,0,5.13-1.87,11.32,11.32,0,0,1-2.31-2.38,17.07,17.07,0,0,1-2.19,1.68,6.08,6.08,0,0,0-.76-.85,15.65,15.65,0,0,0,4.54-4.19l-3.73.12a.31.31,0,0,1-.27.25l-.4-1.36,2.81-.06c.42-.32.83-.66,1.26-1a22.81,22.81,0,0,0-3.51-3.08l.76-.78c.34.24.7.51,1.08.8a21.18,21.18,0,0,0,2.36-3l1.29.68c-.07.11-.21.14-.39.14a28.34,28.34,0,0,1-2.49,2.78,18.18,18.18,0,0,1,1.77,1.64,46.55,46.55,0,0,0,3.58-3.79l1.32.71a.46.46,0,0,1-.42.12,53.46,53.46,0,0,1-5,4.76l5.33-.13a20.06,20.06,0,0,0-1.46-1.67l.94-.55a21.15,21.15,0,0,1,3.12,3.89l-1,.62a10.89,10.89,0,0,0-.85-1.32l-4.61.18.18.07a.37.37,0,0,1-.39.15,15.51,15.51,0,0,1-1.1,1.42H728Zm-5.85,1-.11.11a9.89,9.89,0,0,0,2.52,2.47,8.88,8.88,0,0,0,2.5-2.58Z"/></g></g></svg>