<svg xmlns="http://www.w3.org/2000/svg" viewBox="0 0 443 443"><defs><style>.cls-1{fill:#fff;stroke:#f2cbbd;stroke-miterlimit:10;stroke-width:10px;}.cls-2{fill:#d97979;}</style></defs><title>hospital-section1_1</title><g id="レイヤー_2" data-name="レイヤー 2"><g id="診療案内1のコピー"><circle class="cls-1" cx="221.5" cy="221.5" r="216.5"/><path class="cls-2" d="M313,322c-.87,2-1.7,3.93-2.52,5.85a8.47,8.47,0,0,1-3.42,4.42c-.15.08-.37.22-.39.36-.39,2.13-2.33,3.36-3.1,5.14-1.07,2.48-3.15,4.06-4.57,6.2a10.56,10.56,0,0,1-2.93,2.42c-1.24.84-2.57,1.56-3.87,2.32-.3.18-.65.51-.92.46-2.36-.43-4.17,1.11-6.24,1.69a13.56,13.56,0,0,0-1.77.58c-2.31.93-4.61,1.86-6.9,2.83s-4.29,1.89-6.46,2.79a3.27,3.27,0,0,1-1.32.21,2.94,2.94,0,0,0-1.88.81c-.81.6-2.06.61-3.13.87-.61.15-1.22.34-1.85.45-.48.09-1,.07-1.48.12-1.33.14-2.68.19-4,.45-1.14.22-2.21.73-3.33,1a28.92,28.92,0,0,1-4.48,1c-3.78.38-7.58.59-11.37.87-.19,0-.4-.05-.55,0-1.88.95-3.91.25-5.84.54a18,18,0,0,1-2.3.27c-.63,0-1.26-.26-1.89-.25-1.28,0-2.56.18-3.84.25l-7,.36c-.21,0-.5,0-.63-.09-1.44-1.32-3.13-.74-4.75-.67a1.68,1.68,0,0,1-.5,0l-2.56-.71a10.6,10.6,0,0,0-3.92-.67c-1.14.1-2.33-.82-3.55-1.09-1.89-.43-3.82-.65-5.71-1-.81-.17-1.56-.63-2.36-.81-3.09-.7-6.2-1.25-9.26-2a19.23,19.23,0,0,1-3.4-1.56,2.4,2.4,0,0,0-.73-.3c-3.74-.36-6.41-3.2-9.85-4.25-.59-.18-1.13-.53-1.71-.77-.41-.18-.93-.2-1.25-.47-2.19-1.81-4.8-2.87-7.24-4.22a33.38,33.38,0,0,1-4.75-3.78c-1.06-.88-2.1-1.79-3.17-2.66a26.21,26.21,0,0,1-5.76-5.85,31.67,31.67,0,0,0-2.6-2.86,6.94,6.94,0,0,1-1-1.75c-.68-1.57-1.28-3.18-2-4.75-.9-2.1-2-4.15-2.74-6.3s-1.36-4.47-2-6.73a26.21,26.21,0,0,1-.41-2.7c-1.41.34-2.75.6-3.55,2a4,4,0,0,1-1.41,1.5,12.14,12.14,0,0,0-3.59,3.86,1.18,1.18,0,0,1-.39.38c-2.06,1-4.08,2-6.2,2.82-2.38.91-5,1.28-7.24,2.49-2,1.11-4.27.85-6.23,1.74-2.92,1.33-6,.43-9,1.08-3.82.85-7.33-.17-10.59-2a45.1,45.1,0,0,1-6.53-4.42,10.5,10.5,0,0,1-4-8.37c0-1.2.81-2.36,1.08-3.58a18.59,18.59,0,0,0,.2-2.9,1.3,1.3,0,0,1,.09-.39l1.5-3.73c.66-1.62,1.3-3.24,2-4.85a9.29,9.29,0,0,1,.89-1.64c1-1.48,2-2.95,3.08-4.38a13.51,13.51,0,0,1,1.73-1.82c.94-.86,1.94-1.66,2.87-2.52a8.29,8.29,0,0,0,1.27-1.44c1-1.53,2.92-2.2,3.69-4.06.39-.95,1.5-1.6,2.28-2.39a39.52,39.52,0,0,0,4.79-5,61.34,61.34,0,0,1,4.51-5.23c.81-.94,1.1-2.31,1.83-3.35.52-.75,1.38-1.22,1.52-2.28,0-.38.52-.7.81-1a17.74,17.74,0,0,0,1.47-1.67c.89-1.35,1.65-2.79,2.57-4.12.53-.76,1.34-1.32,1.89-2.07a33.7,33.7,0,0,1,2-3c2.78-3.05,5.66-6,8.49-9,.36-.37,1-.39,1.07-1.17,0-.24,1-.55,1.53-.58a14.85,14.85,0,0,1,2.48.26c-.72-1.73-1.5-3.28-.75-5a8.34,8.34,0,0,1,.47-1.06c.84-1.42,1.69-2.84,2.59-4.22.23-.36.7-.83,1-.82,2,.08,3.45-1.15,5-2.18,1.39-.92,2.94-1.58,4.36-2.46.79-.49,1.42-1.24,2.2-1.76a12,12,0,0,1,3.41-1.92,28.9,28.9,0,0,0,8.74-3.61c.35-.23.92-.11,1.31-.3a87.3,87.3,0,0,1,11.9-4.44c1.7-.56,3.59-.54,5.36-.94,1.23-.28,2.37-.89,3.59-1.24,1.9-.56,4.05-.65,5.68-1.64a10.65,10.65,0,0,1,4.05-1c2.76-.51,5.2-1.88,7.9-2.47a15.56,15.56,0,0,1,5.07-.63,40.77,40.77,0,0,0,6.31-.37c.62,0,1.25.19,1.87.15,2.12-.11,4.23-.28,6.35-.43,0,0,.09.07.11.06,1.91-1.38,4,0,6-.44,1.28-.3,2.52-.8,3.8-1,.87-.17,2.16-.41,2.62,0,1.13,1.08,2.22.52,3.35.5.4,0,.81.11,1.21.13.67,0,1.35,0,2,0s1.06.18,1.58.16a12.55,12.55,0,0,1,1.77-.25c1.61.21,3.2.62,4.81.82,1.78.22,3.47,1,5.39.58,1.07-.22,2.29.37,3.45.53,2.39.35,4.78.69,7.18.94.47.05,1-.45,1.47-.4a12.75,12.75,0,0,1,3,.6c1.48.5,2.89,1.21,4.36,1.72q3.49,1.21,7,2.26c1,.29,2,.39,2.9.75a6.47,6.47,0,0,1,2.34-.3c1.75.45,3.45,1.13,5.16,1.75.36.13.63.51,1,.58,1.62.35,3.26.62,4.89,1a4.72,4.72,0,0,1,1.24.49c1,.53,1.81,1.27,3.09.93a2.84,2.84,0,0,1,1.57.38c2.1.84,4.24,1.64,6.27,2.63A42.9,42.9,0,0,1,309,217.6a16,16,0,0,0,2.73,1.78,20.84,20.84,0,0,1,6.76,4.21c1.69,1.52,3.74,2.63,5.52,4.07,1.09.9,1.92,2.11,2.95,3.09s2.4,2.12,3.65,3.12a43,43,0,0,1,3.93,3,42.73,42.73,0,0,1,3.2,4.18,16.08,16.08,0,0,0,2,2.36,7.89,7.89,0,0,1,2,2.27c1,2,2.56,3.67,3.76,5.56,1.05,1.68,1.87,3.51,2.92,5.19a26.28,26.28,0,0,1,2.88,7.22c.54,2,2.19,3.6,3,5.52a15.26,15.26,0,0,1,.92,4.34c.25,2-.06,4.26.6,6.15s.39,4.33,2.09,6c.44.44.34,1.48.38,2.25.1,2.35.18,4.66,1.82,6.64a4.49,4.49,0,0,1,.4,2.49,21.17,21.17,0,0,0,1.63,7,7.81,7.81,0,0,1,.07,1.69c.13,1.1.29,2.21.52,3.3a43.78,43.78,0,0,1,1.07,4.71,4.77,4.77,0,0,1-.7,2.82,10.14,10.14,0,0,0-1.2,3.82c-.32,1.74-.77,3.45-1.26,5.15-.12.43-.62.75-.93,1.13-.48.59-.91,1.23-1.42,1.8a29.07,29.07,0,0,1-2.15,2.15,27.26,27.26,0,0,1-2.86,2.31,40.13,40.13,0,0,1-5.72,3.49,12.32,12.32,0,0,1-9.21.06c-1.68-.56-3.5-.66-5.18-1.22a50.17,50.17,0,0,1-5.42-2.28,31.08,31.08,0,0,1-3.8-2.09c-2.17-1.44-4.29-3-6.4-4.51a2.5,2.5,0,0,1-.71-1A7.08,7.08,0,0,0,313,322ZM135.34,237.82c.63,1.27-.33,2.19-.67,3.31a5,5,0,0,1-2.38,2.77,15.32,15.32,0,0,0-3.33,2.81c-1.56,1.87-2.83,4-4.32,5.89-1.87,2.42-3.84,4.78-5.74,7.17a10.68,10.68,0,0,0-1.13,1.7c-.59,1.09-1,2.29-1.7,3.31-1,1.44-2.17,2.73-3.22,4.12-.36.47-.53,1.08-.88,1.57s-1,1.15-1.42,1.76a15.14,15.14,0,0,1-.75,1.32c-2.09,2.33-4.19,4.64-6.34,6.91-1.09,1.15-2.37,2.14-3.4,3.33a45,45,0,0,1-6.75,7c-.3.22-.41.69-.6,1-.75,1.37-1.2,3.1-2.32,4-1.78,1.43-2.31,3.41-3.07,5.26a31.19,31.19,0,0,0-1.16,5.16c-.6,2.8-.29,3.93,1.69,5.53,1.36,1.1,2.78,2.13,4.16,3.2,1.81,1.4,4,1.46,6.13,1.54a20.37,20.37,0,0,0,5.88-1c2.4-.65,4.84-.88,7.2-2,2.06-1,4.51-1.14,6.26-2.93.87-.89,2.12-1.49,2.79-2.49a7,7,0,0,1,1.85-2,6.44,6.44,0,0,0,1-1.25A22.7,22.7,0,0,1,125,302.7c.29-.28.92-.19,1.21-.47.91-.86,1.69-1.85,2.59-2.71.64-.62,1.4-1.1,2.08-1.66,1.12-.91,2.21-1.86,3.35-2.73a9.59,9.59,0,0,1,1.81-1.05c1.15-.53,2.36-.94,3.49-1.51a2.32,2.32,0,0,1,3.45,1.06,13.07,13.07,0,0,1,1.13,2.11,15.91,15.91,0,0,1,.46,3.38c0,.65-.36,1.34-.31,2,.11,1.36.4,2.71.6,4.07a31.57,31.57,0,0,0,.72,5c1.1,3.45,2.45,6.81,3.7,10.21a5,5,0,0,0,.36.86c1,1.66,2,3.34,3.07,4.94a23.6,23.6,0,0,0,3.06,4.06c1.52,1.46,3.34,2.61,5,3.92.6.47,1.1,1.07,1.7,1.54,1.9,1.48,3.82,2.94,5.74,4.4a1,1,0,0,0,.24.14c1.05.44,2.12.84,3.15,1.32,2,.9,3.93,1.84,5.88,2.78,1.62.77,3.23,1.57,4.84,2.35a45.66,45.66,0,0,0,5.22,2.43c2.13.7,4.37,1.08,6.57,1.57,3.3.74,6.61,1.47,9.92,2.15.68.13,1.46-.16,2.13,0,2.3.57,4.54,1.54,6.87,1.83,3.46.44,7,.41,10.47.64,1.4.09,2.79.37,4.19.48a10,10,0,0,0,1.6-.24,45.53,45.53,0,0,1,5.58-.41c.82,0,1.46.2,2.08-.47a1.82,1.82,0,0,1,2.05-.39,10.91,10.91,0,0,0,3.7.09c1.13-.11,2.22-.56,3.35-.67,1.93-.2,3.89-.14,5.8-.41,2.08-.31,4.12-.92,6.19-1.32,1.84-.36,3.93.2,5.39-1.53a.58.58,0,0,1,.23-.13c2-.57,3.94-1.15,5.92-1.71a23.67,23.67,0,0,0,4.16-1.17c1.8-.89,3.41-2.14,5.13-3.18a5.93,5.93,0,0,1,1.3-.37c.91-.31,1.83-.63,2.73-1a5.33,5.33,0,0,1,.84-.4c2.47-.4,4.77-.81,6.9-2.59a42.45,42.45,0,0,0,3.7-3.17,35.37,35.37,0,0,0,3-3.55c.69-.94,1-2.14,1.75-3a13.72,13.72,0,0,0,2.52-3.91,39,39,0,0,1,2.17-4.46c.24-.47.6-.89.8-1.38.61-1.5,1.07-3.06,1.77-4.51,1-2.11,1.77-4.32,3.74-6a3.77,3.77,0,0,1,2.59-1.12c1.39,0,2.66-.13,3.54,1.41a24.89,24.89,0,0,0,2.85,3.6,16.32,16.32,0,0,0,1.47,1.41c.22.2.6.32.71.56,1.1,2.54,3.12,4.26,5.24,5.86,1.64,1.24,3.39,2.35,5.12,3.46.49.31,1.24.27,1.67.63a6.69,6.69,0,0,0,4.17,1.89,14.06,14.06,0,0,1,3.2.63,8,8,0,0,0,7.6-1.74,8.87,8.87,0,0,0,2-1.86c1-1.62,1.91-3.33,2.8-5,.29-.54.21-1.4.62-1.74,1.52-1.25,1.27-3.05,1.18-4.5a50.38,50.38,0,0,0-1.47-7.73c-.27-1.22-.82-2.38-1.14-3.6-.74-2.85-1.38-5.72-2.12-8.57-.5-1.94-1.13-3.84-1.62-5.79-.4-1.6-.63-3.25-1-4.86-.31-1.3-1.05-2.59-1-3.87,0-1.64-.82-3-1.08-4.51-.41-2.44-1.89-4.71-3-7-1.41-3-2.84-5.9-4.35-8.82a45.86,45.86,0,0,0-3.17-5.54c-1.22-1.71-2.77-3.18-4.11-4.81a26.36,26.36,0,0,0-4.57-4.87,23.54,23.54,0,0,1-1.89-1.85c-.91-.85-1.81-1.7-2.78-2.48-2.09-1.68-4.21-3.33-6.34-5-2.75-2.12-5.5-4.24-8.29-6.31-1.21-.9-2.61-1.57-3.78-2.52a22,22,0,0,0-5.09-2.69c-1.59-.69-3.18-1.41-4.83-1.94s-3.35-.73-5-1.19c-1.23-.36-2.42-.89-3.61-1.36-.92-.36-1.81-.81-2.75-1.09a25.7,25.7,0,0,1-3.68-.91c-3.44-1.65-7.29-1.25-10.83-2.33-.71-.22-1.52-.09-2.24-.29-1.58-.44-3.1-1.1-4.69-1.49-3-.72-6-1.34-9-1.95a18.53,18.53,0,0,0-5-.44c-2.57.16-5.19-.7-7.79-1.12a10.42,10.42,0,0,0-2.21-.26c-3.32.22-6.64-.24-10,0-2.13.17-4.32-.28-6.45.37a3.18,3.18,0,0,1-.69,0c-.92.07-1.84.13-2.75.22a9,9,0,0,1-2.27.23,14.86,14.86,0,0,0-5,0c-1.35.2-2.72.26-4.08.33a18.62,18.62,0,0,0-2,0,28.68,28.68,0,0,1-3.69.81,17.44,17.44,0,0,0-6.22,1.85,15,15,0,0,1-2.75,1.25c-1.32.24-2.59.83-4,.65-.41,0-.88.39-1.32.61a4.27,4.27,0,0,1-.95.44c-1.11.22-2.24.4-3.36.56-.56.08-1.13.1-1.73.14-.25.25-.57.79-1,.92-1.08.31-2.25.31-3.31.65-2.66.86-5.59.93-8,2.69a2.26,2.26,0,0,1-1.43.33c-2.16-.18-3.56,1.63-5.48,2.06-.08,0-.08.32-.15.48-.83,1.94-1.75,2.4-3.14,1.8a46.77,46.77,0,0,1-5.55,2.75,19.75,19.75,0,0,0-5.7,2.93c-.79.6-1.68,1.07-2.43,1.72-1,.88-1.81,2-2.87,2.78C138.68,235.91,137,236.79,135.34,237.82Z"/><path class="cls-2" d="M282.9,240.6a28.4,28.4,0,0,1,0,5.22c-.62,3.29-1,6.8-3.88,9.12-1.2,1-2.81,1.45-4.05,2.4-1.79,1.36-4,.72-5.84,1.4a10,10,0,0,1-5.64.25c-.78-.16-1.55-.4-2.34-.55a30.91,30.91,0,0,1-4.64-.88,23.52,23.52,0,0,1-3.72-2.14,7.74,7.74,0,0,0-2.57-1.34c-.72-.09-2,.41-2.21,1-.62,1.65-2.14,2-3.34,2.78a18.67,18.67,0,0,1-4.19,1.76,7.34,7.34,0,0,1-2.19,0,12.24,12.24,0,0,0-2.64,0c-1.77.38-3.32-.3-4.87-.86-3-1.08-5.13-3.23-7-5.65-.81-1-1.56-2.07-2.33-3.11-.42-.57-.88-1-1.6-.42-1.13.85-2.15,2.12-3.42,2.45-1.64.43-2.55,2.07-4.43,2.07s-3.78.74-5.66.71c-2.52,0-5.1-.08-7.47-1.24a20.38,20.38,0,0,0-2.1-.62,15.05,15.05,0,0,1-7.62-6.56,4.08,4.08,0,0,0-.56-.62,13.9,13.9,0,0,1-4.17-6.55c-.12-.48-.67-.83-.88-1.3a29.15,29.15,0,0,1-1.52-3.88c-.67-2.35-1.23-4.73-1.76-7.12-.31-1.39.76-2.37,1.32-3.45.41-.8.89-1.78,2.28-1.62.65.08,1.36-.61,2.08-.86,1-.35,1.88-.9,2.88.51.57.8,1.85,1.14,1.65,2.48-.54,3.63.65,6.77,2.52,9.81,1.15,1.86,2,3.91,3,5.85a6.34,6.34,0,0,0,1.3,1.74c1.74,1.55,3.05,3.65,5.44,4.4,1.86.58,3.63,1.66,5.67.39a6.5,6.5,0,0,1,2.21-.48c.09,0,.21,0,.28,0,1.45-1,2.94-1.93,4.32-3,1.6-1.28,1.66-3.22,1.8-5.07.09-1.24,2.43-4.23,3.62-4.55s2.53-.66,3.8-1c1.61-.4,2.35.83,2.88,1.87a27.59,27.59,0,0,1,1.89,5.07c.36,1.31.21,2.77.67,4a16.37,16.37,0,0,0,2.11,3.33,9.82,9.82,0,0,0,1.13,1.44,7.07,7.07,0,0,0,1.58,1.26c1.34.69,2.73,1.31,4.14,1.87.36.15,1.12.09,1.25-.13a9.39,9.39,0,0,0,1.09-2.67c.55-2.69.74-5.47,1.53-8.08a3.7,3.7,0,0,1,3.92-2.7,15.27,15.27,0,0,0,3.3-.55c1.59-.3,2.25.78,2.83,1.93s1.2,2.48,1.78,3.72a19.61,19.61,0,0,0,2.83,3.61c1.12,1.41,2.66,1.55,3.92,2.39a13.47,13.47,0,0,0,4.29,2.17,9.29,9.29,0,0,0,5.89-.36c1.2-.56,1.21-2.05,1.19-3.27,0-2.59-.18-5.18-.24-7.77,0-.62-.13-1.51.22-1.84a8.11,8.11,0,0,1,3.13-2.16c2.27-.61,4.44.41,6.16,1.73.91.71,1.06,2.38,1.56,3.62Z"/><path class="cls-2" d="M212.65,311.88a3.72,3.72,0,0,1,4.13,2.12c1.15,2.22,3.21,2.78,5.13,3.69,1,.5,1.83,1.5,3.24,1.17,2.8-.65,5.67-.8,8.12-2.74,1.64-1.31,3.89-1.49,6-1.55.43,0,.91.55,1.29.93,1.33,1.29,2.49,2.41,2.17,4.75-.21,1.54-1.26,2.3-1.74,3.49-.22.55-1.56.79-2.42.91-1.94.28-3.91.38-5.86.6a6.09,6.09,0,0,0-1.56.41c-1.93.76-3.85,1.56-5.78,2.31a.93.93,0,0,1-.79-.05c-1.13-1-2.35-.69-3.62-.41a2.78,2.78,0,0,1-1.54-.09c-2-.77-4.21-1-6-2.61a33.18,33.18,0,0,0-5.08-3.18,5.27,5.27,0,0,1-1.94-7.08C207.12,313.08,209.92,311.88,212.65,311.88Z"/><path class="cls-2" d="M195.62,289.87c.42,2.08-1.44,2.29-2.52,3-1.63,1.1-5.31.72-6.61-.82-1.08-1.27-2.29-2.6-2.15-4.55a4.42,4.42,0,0,0-.53-1.8c-.8-2,0-4.73,1.91-5.57a4.48,4.48,0,0,0,2.48-1.95c.29-.54,1.65,0,2.17.81.2.3.48.71.77.76,1.74.26,2.06,1.58,2.44,3s1,2.89,1.46,4.36C195.31,288,195.43,288.94,195.62,289.87Z"/><path class="cls-2" d="M258.32,282.93c2.49,0,3.4.58,4.12,2.53.08.21-.1.5-.09.75.06,1.28.23,2.56.22,3.84a5.18,5.18,0,0,1-2.16,4.28,17.79,17.79,0,0,1-3.31,2.2c-1.82.8-4.08-.86-4.28-2.82-.13-1.18-.58-2.32-.8-3.5a4.72,4.72,0,0,1,.06-1.63c.12-.8.39-1.58.47-2.38s0-1.39,1.18-1.58a19.09,19.09,0,0,0,3.72-1.45A6.18,6.18,0,0,1,258.32,282.93Z"/><path class="cls-2" d="M108,127.78c-2.46,0-3.84-1.74-3.84-4.8s1.38-4.8,3.84-4.8h45.84c2.46,0,3.84,1.74,3.84,4.8s-1.38,4.8-3.84,4.8Z"/><path class="cls-2" d="M174.64,128.26c-.6.06-1.32.18-1.8.18,0,1.68-.36,14.58-2.88,20.7-.9,2.1-1.74,2.82-3.54,2.82a4.21,4.21,0,0,1-4.26-3.84c0-.66.12-1,1.26-4.5,1.68-5,2-12.06,2.1-14.52-2.28,0-3.12-1-3.12-3.78,0-3.24,1-3.42,3.18-3.78V106.42c0-4.92,1.62-5.1,6.12-5.1a22.38,22.38,0,0,0,.6-2.28c.54-2.76,1.26-3.42,3.42-3.42,3.12,0,5.1,1.14,5.1,3.06a13.44,13.44,0,0,1-.36,2.64h2.34c4.5,0,5.76,1.26,5.76,5.46v12.36c1,.42,1.56,1.62,1.68,3.18a2.9,2.9,0,0,1,2.1-.84h19c2.94,0,4.86,1.62,4.86,4.14,0,3.36-3.54,11.16-6.6,14.52a41.22,41.22,0,0,0,6.72,3.54c2.1,1,2.76,1.8,2.76,3.42,0,2.58-1.74,4.74-3.72,4.74-3.54,0-10.2-4.44-11.82-5.88-6.48,4.8-10.2,5.82-11.58,5.82-1.62,0-3.06-1.44-3.6-3.66-.6,2.64-2.46,3.6-6.9,3.6-3.66,0-6.36,0-6.36-4,0-2.4,1.26-4,3.18-4,.54,0,1.2.06,1.92.06s1.08-.3,1.08-1.8V127.42a14.05,14.05,0,0,0-1.8.3v11.1c0,1.26-.9,2-2.4,2s-2.46-.72-2.46-2Zm-1.8-7.14c2.64-.3,5.64-.66,8.46-1.08V109.36c0-1-.3-1.32-1.32-1.32h-5.82c-1,0-1.32.3-1.32,1.32ZM179.5,112a21.08,21.08,0,0,1,1.08,4.5c0,1.38-1.62,2.52-3.54,2.52-1.26,0-1.74-.54-2.22-2.58a30.79,30.79,0,0,1-1.26-4.44c0-1.32,1.68-2.34,3.72-2.34C178.36,109.66,179,110.26,179.5,112Zm9.06,33.54c.42-.84,1-1.26,2.64-1.92a37.45,37.45,0,0,0,6.6-3.6,37.37,37.37,0,0,1-5.52-11c-1.86-.12-2.76-1.14-2.94-3.42a2.07,2.07,0,0,1-.78.6Zm15.6-40c0-1-.24-1-2-1-.78,0-1,.18-1,1,0,10.32-4.44,14.82-7.56,14.82a4.43,4.43,0,0,1-4.38-4.32c0-1.14.24-1.68,1.5-3.12,1.86-2.28,2.58-4.68,2.64-9.36s1.32-6.18,5.46-6.18H207c4,0,5,1.08,5,5.1v8.46c0,1,.12,1,.84,1s.72-.18,1-2c.3-1.44,1-1.92,2.64-1.92,2.1,0,3.12.78,3.12,2.46,0,2.46-1,5.64-2.16,6.9-1,1-2.52,1.44-5.64,1.44-6.48,0-7.62-.9-7.62-6.12ZM200.5,129a24.79,24.79,0,0,0,3.06,5.58,24.41,24.41,0,0,0,3.18-5.16c0-.3-.24-.42-.72-.42Z"/><path class="cls-2" d="M240.22,106.48c2.16,0,3.06,1.74,2.94,4.08.6-.48,2.22-1.56,3.36-2.34a35.41,35.41,0,0,0,9.18-10c1.2-2.22,1.86-2.76,3.42-2.76,2.76,0,5.58,1.86,5.58,3.72a2.76,2.76,0,0,1-.06.6c2.46,3.84,8.34,7.92,11.34,9.3,2.52,1.2,3.3,2,3.3,3.54,0,2.88-2,5.34-4.38,5.34-4.5,0-12.42-7.26-14.94-10.68-4.74,5.82-11,10.68-13.8,10.68-2.16,0-4.32-2.34-4.32-4.62a2.82,2.82,0,0,1-1.62.48H226c-1.92,0-3-1.32-3-3.66s1.08-3.72,3-3.72Zm-16.14,30.18c0-4.08,1-5.1,5.1-5.1h8.46c4,0,5,1,5,5.1v8.52c0,4-1,5-5,5H229c-3.9,0-4.92-1-4.92-5Zm3.48-31.92c-1.86,0-2.94-1.32-2.94-3.66s1.08-3.6,2.94-3.6h11.52c1.86,0,2.88,1.32,2.88,3.6s-1,3.66-2.88,3.66Zm-.3,17.16c-1.68,0-2.64-1.2-2.64-3.24s1-3.3,2.64-3.3h12.12c1.68,0,2.58,1.2,2.58,3.3s-.9,3.24-2.58,3.24Zm.06,8.16c-1.74,0-2.7-1.2-2.7-3.3s1-3.36,2.7-3.36h12c1.74,0,2.64,1.2,2.64,3.36s-.9,3.3-2.64,3.3Zm4.92,8c-.78,0-1,.18-1,1v3.42c0,.78.18,1,1,1h2.4c.78,0,1-.18,1-1V139c0-.78-.18-1-1-1Zm32.94-21.3c0,1.62-1,2.82-4.44,5.4a78.37,78.37,0,0,1-8.76,5.64,5.87,5.87,0,0,1-2.76.78c-2.16,0-3.9-2.1-3.9-4.68,0-1.68.6-2.52,2.88-3.6a33.84,33.84,0,0,0,8.16-5.4c2.34-2.22,3.06-2.64,4.32-2.64A5,5,0,0,1,265.18,116.74Zm12.66,16.44c0,1.38-.72,2.46-3.54,5.28-7.26,7.38-18.84,13.08-24.48,13.08-2,0-3.66-2.16-3.66-4.92,0-1.86.9-2.64,3.6-3.36a44.94,44.94,0,0,0,19.32-12.06c2-2.22,3.06-2.52,4.14-2.52A4.86,4.86,0,0,1,277.84,133.18ZM272,124.66c0,1.32-.66,2.34-3.06,4.44-5.82,5-15.6,10.56-18.72,10.56-2.1,0-4-2.4-4-5.1a3.3,3.3,0,0,1,2.46-3.18,39.49,39.49,0,0,0,14.34-8.64c2-2.16,2.82-2.64,4.26-2.64A4.83,4.83,0,0,1,272,124.66Z"/><path class="cls-2" d="M334.66,108.28c1.62,0,2.46,1.14,2.46,3.06,0,3.06-1.86,3.06-2.82,3.06,1.26.3,2.76,1.32,2.76,2.88,0,.78-.54,1.44-2.34,3.24,3.24,1.08,4,1.32,4,3.3,0,2.16-1.68,4.08-3.54,4.08a5,5,0,0,1-1.8-.42v4.92c0,4.26-1.26,5.46-5.76,5.46h-5.4V146c0,2.52,0,5.4-6.9,5.4-4.62,0-5.7-.84-5.7-4.2,0-2.64,1.62-3.18,2-3.18l1.56.06c.48,0,.84-.66.84-1.5v-4.74h-5.7a4.79,4.79,0,0,1-4.92-5v-5a4.07,4.07,0,0,1-1.86.48,3.69,3.69,0,0,1-3.54-2.94c-.48,11.1-3.48,18.42-6.06,22.44-1,1.56-2.16,2.28-3.48,2.28-2.7,0-5.16-2.16-5.16-4.56,0-1.38.18-1.74,1.86-4.38a29.32,29.32,0,0,0,3.24-8.46,4.94,4.94,0,0,1-2.88,1.2c-1.8,0-3.36-2.58-3.36-5.52,0-2,.54-2.64,3.3-3.9a23.1,23.1,0,0,0,4.14-2.82c.06-1.56.06-3.84.06-5.7a4.57,4.57,0,0,1-2.52,1,2.64,2.64,0,0,1-2.16-1.62c-.72-1.62-1.68-3.48-2.22-4.74a4.24,4.24,0,0,1-.36-1.68,4.48,4.48,0,0,1,4.38-4c1.08,0,1.8.3,2.88,3.12v-2.4c0-5.58,1.26-6.84,6.66-6.84H309.4c0-2.52,1.2-3.48,4.32-3.48,3.48,0,4.44,1.14,4.5,3.48H336c1.8,0,2.82,1.26,2.82,3.54s-1,3.48-2.82,3.48H317c1.8.48,2.82,1.32,2.88,2.46ZM301.9,150.64a4,4,0,0,1-1.92.48,4.53,4.53,0,0,1-4.14-4.56c0-1.2.54-1.8,2.34-2.88a27.91,27.91,0,0,0,5-3.9c1.14-1.08,1.62-1.38,2.64-1.38a4.4,4.4,0,0,1,4.32,4.2C310.18,146,302.2,150.52,301.9,150.64Zm-3.66-33.36c0,1.5-.12,4-.12,5.88.36-.78.66-1,3.78-2.88a10.19,10.19,0,0,0-1.26-.9,2,2,0,0,1-1-1.8,3.57,3.57,0,0,1,2.16-3.18c-1.62-.24-2.28-1.14-2.28-3.06s.9-3.06,2.46-3.06h10.32c.72-1.74,1.08-2.16,2.22-2.46H299.68c-1.08,0-1.44.42-1.44,1.62Zm5-2.88c.72.24,1.26.66,3.06,2.52.72-.72,1.62-1.68,2.34-2.52Zm22.44,12.66c0-2.1,0-2.34-1.32-2.34H312.34c-1.26,0-1.26.24-1.26,2.34Zm-1.32,6.18c1.32,0,1.32-.24,1.32-2.28H311.08c0,2,0,2.28,1.26,2.28Zm-2.1-13.08a24.29,24.29,0,0,1-4.08-5.76h-1a27.25,27.25,0,0,1-4.32,5.76Zm10.08,20.1a26.27,26.27,0,0,0,3.54,3.66c1.32,1.08,1.8,1.74,1.8,2.7,0,2.22-2,4.5-4.14,4.5-1.62,0-3.06-1-5.64-3.66-2.4-2.58-3.12-3.72-3.12-4.86,0-2.1,2.16-4,4.56-4C330.64,138.64,331.3,139,332.38,140.26ZM326,114.4a13.59,13.59,0,0,0,3.24,2.94,12.59,12.59,0,0,0,2-1.92c.66-.78.72-.84,1.26-1Z"/></g></g></svg>