<svg xmlns="http://www.w3.org/2000/svg" viewBox="0 0 443 443"><defs><style>.cls-1{fill:#fff;stroke:#f2cbbd;stroke-miterlimit:10;stroke-width:10px;}.cls-2{fill:#d97979;}</style></defs><title>hospital-section2_1</title><g id="レイヤー_2" data-name="レイヤー 2"><g id="診療案内2のコピー"><circle class="cls-1" cx="221.5" cy="221.5" r="216.5"/><path class="cls-2" d="M85.51,139.9c-6,.6-7.32.78-8.52.78-2.52,0-3.78-1.62-3.78-4.62,0-3.42,2-3.48,4.74-3.66,3.24-.18,5-.36,7.56-.6v-2.64c0-2.1,1.32-3.3,3.78-3.48a28.44,28.44,0,0,0,2.1-2.34H78.31c-1.86,0-2.88-1.32-2.88-3.6s1-3.66,2.88-3.66H98.23c2.82,0,4.44,1.26,4.44,3.6a6.48,6.48,0,0,1-1.44,3.66,50.9,50.9,0,0,1-6,6.78c-.6.54-.72.72-.9.84a38.64,38.64,0,0,0,4-.66,18.71,18.71,0,0,1,3.42-.6c1.86,0,3.12,1.74,3.12,4.08,0,2-.78,3.24-2.58,3.66-1.14.24-4.14.72-8,1.26v5.7c0,5.28-1.92,7-7.74,7-5.1,0-7.5-.3-7.5-4.26,0-2.58,1.2-4.32,2.94-4.32.42,0,2.46.3,2.76.3.6,0,.78-.42.78-1.44ZM93.13,108a31.4,31.4,0,0,1,.84,3.6c0,1.62-2.4,3.18-4.92,3.18A2.27,2.27,0,0,1,86.71,113a37.48,37.48,0,0,1-1.56-5.22,3,3,0,0,1,2.28-2.52c-2.46.24-4.74.42-7.08.6,2.1.6,3.42,5.46,3.42,6.06,0,1.68-2.28,3.36-4.62,3.36-1.26,0-1.8-.42-2.4-1.92-.06-.18-1.74-3.66-1.74-4.68s1.08-2.22,2.82-2.76q-3.24-.27-3.24-4c0-2.7,1.44-3.84,4.92-3.9,5.88-.06,14.4-1,18.24-2.1a9.76,9.76,0,0,1,2.4-.48c1.62,0,3.24,2.16,3.24,4.26,0,2.4-1.38,3.36-5.46,4-2.16.36-5.1.84-7.56,1.14C91.81,105,92.59,105.76,93.13,108Zm10,4.56c-1,2.34-1.56,2.82-3.12,2.82-2.4,0-4.62-1.5-4.62-3.06,0-.78,1.44-4.32,1.68-5.16.66-2.4,1.38-3.18,3.12-3.18,2.82,0,4.62,1.44,4.62,3.06A20.17,20.17,0,0,1,103.15,112.54Zm3.24-13.08c0-2.28,1.62-3.6,4.5-3.6s4.5,1.32,4.5,3.6v41.82c0,1.38,0,1.62,3.18,1.62,2,0,2.4-.54,2.64-4.44.18-3.48,1.2-4.68,4-4.68,2.94,0,4.44,1.26,4.44,3.6,0,.54-.12,2-.36,4-.9,7.5-1.44,9.66-9.42,9.66-11.28,0-13.44-.18-13.44-8.16Z"/><path class="cls-2" d="M175.93,115c-1,13.56-1.56,20.64-7.62,30.84C165.55,150.4,164,152,162,152c-2.64,0-5-2.22-5-4.62a3.78,3.78,0,0,1,.36-1.74,2.57,2.57,0,0,1-3-1.74c-3.6,1.08-14.46,3.84-17.88,3.84-2.1,0-3.42-1.68-3.42-4.26,0-1.14,0-3.54,3.6-4.14A120.37,120.37,0,0,0,143,128.86a88.31,88.31,0,0,0-6.3-6.66c-2.94-2.64-3.78-3.84-3.78-5.46,0-2.64,2.94-5,5.1-4.68,2-3,3.12-5.34,6.6-12.66,1.08-2.28,1.92-3,3.6-3,2.82,0,5.22,2,5.22,4.38,0,3.72-8.22,16.26-8.64,16.86a26.49,26.49,0,0,1,2.76,3.06,39.5,39.5,0,0,0,3.06-6.3c1.14-2.94,2.16-3.9,4.08-3.9,2.76,0,4.92,2,4.92,4.08,0,1.5-.78,2.94-2.34,5.7-1.92,3.54-5.88,10.5-9.84,17.1,1.62-.3,3.36-.72,5-1.08a7.19,7.19,0,0,1-.3-2.16c0-2.46,1.62-3.78,4.56-3.78,2.46,0,2.76.42,4.62,9.84,1-1.32,4-7.8,5.16-16.14.12-1.26.48-5.4.72-9.06h-4.56c-2.1,0-3.3-1.44-3.3-4.08s1.2-4.08,3.3-4.08h4.68V99.52c0-2.22,1.56-3.48,4.38-3.48s4.32,1.26,4.32,3.48v7.32h6.78c3.84,0,5.52,1.68,5.58,5.58,0,2-.24,16.74-.42,24.12-.48,11.58-1.14,14.1-9.18,14.1-4.92,0-6.42-.9-6.42-3.84s1.08-4.62,2.94-4.62c.36,0,1.86.12,2.16.12,1.2,0,1.62-.36,1.74-1.62.54-5.88.72-15.3.78-20.94,0-.54.12-3.12.12-3.66,0-.78-.36-1.08-1.26-1.08Z"/><path class="cls-2" d="M211.51,146.56c-3.42,2.58-9.72,5-13.08,5-2.22,0-4-2.28-4-5.1a3.29,3.29,0,0,1,2-3.12c.54-.24.36-.18,3.78-1,5.52-1.26,8.46-4.44,9.3-10.14.42-2.76,1.38-3.66,3.84-3.66,3.36,0,5,1.38,5,4A18.24,18.24,0,0,1,211.51,146.56Zm-13-46.56c0-2.28,1.62-3.6,4.5-3.6s4.5,1.26,4.5,3.6v25.32c0,2.28-1.62,3.6-4.44,3.6s-4.56-1.32-4.56-3.6Zm13.8,3.12c0-4.32,1.32-5.58,5.64-5.58h20.82c4.32,0,5.64,1.26,5.64,5.58V122c0,4.32-1.32,5.64-5.64,5.64H218c-4.32,0-5.64-1.32-5.64-5.64Zm23.46,5.94v-2.88c0-1-.36-1.32-1.32-1.32H222.13c-1,0-1.32.36-1.32,1.32v2.88Zm0,6.72h-15v3.06c0,1,.36,1.32,1.32,1.32h12.36c1,0,1.32-.36,1.32-1.32Zm-12.3,16.68c0-2.28,1.62-3.6,4.5-3.6s4.5,1.32,4.5,3.6v7.92c0,2.16.36,2.16,3.12,2.16,4.2,0,4.26,0,4.5-2.58.3-3.36,1.08-4.2,4-4.2s4.5,1.14,4.5,3.36c0,1-.18,7.14-3.06,9.66-1.08.9-2.28,1.92-10.32,1.92-7,0-11.7,0-11.7-6.3Z"/><path class="cls-2" d="M257.11,126.46a4.68,4.68,0,0,1-4.74-4.32c0-1.08.3-1.8,1.38-3.6a49.29,49.29,0,0,0,6.12-17.88c.6-3.72,1.56-4.86,4.26-4.86,2.94,0,4.8,1.56,4.8,4.08a16.66,16.66,0,0,1-.48,2.94,82.54,82.54,0,0,1-3.3,11.52v34.38c0,2-1.44,3.18-4,3.18s-4-1.14-4-3.18Zm21.3-28.32c2.52,0,4.08,1.32,4.08,3.48,0,3.42-4.2,11.76-5.22,13.74a1.85,1.85,0,0,0-.12.48c0,.24.12.3.48.3,3.06,0,5.34,0,5.34,3.78,0,1.32-.66,11.76-3.3,18.36,4.74,4.38,10.92,4.68,18.78,4.68,1.14,0,6.3-.18,7.38-.18,2.4,0,3.6,1.26,3.6,3.84,0,4.2-1.14,4.38-11.82,4.38-3.66,0-15,0-21.3-5.16-1.92,3.84-4.08,5.94-6.12,5.94a4.59,4.59,0,0,1-4.26-4.56c0-1.26.3-1.8,1.8-3.48a17.13,17.13,0,0,0,2.76-4.14c-1.74-2.88-4.38-7.74-4.38-10.2,0-1.86,2-3.36,4.5-3.36,1.92,0,2.22.3,3.24,3.54a5.8,5.8,0,0,0,.42,1.2,41.43,41.43,0,0,0,1-6.78c0-.48-.12-.54-.9-.54h-4.08c-2.4,0-3.72-1.2-3.72-3.3,0-1,.3-1.68,1.5-3.48a37.21,37.21,0,0,0,4.8-10.32c0-.3-.24-.3-.78-.3-1.68,0-2.76-1.5-2.76-4s1.38-4,3.6-4ZM306.73,107c.9,0,2.94,0,2.94,3.3s-2,3.3-2.94,3.3V117c0,4-1.08,5.1-5,5.1h-4.26v1.44h7c1.68,0,2.58,1.14,2.58,3.24s-.9,3.18-2.58,3.18h-7v1.74h8.22c1.74,0,2.76,1.26,2.76,3.48s-1,3.42-2.76,3.42h-8.22c0,1.8,0,3.78-3.54,3.78s-3.54-2-3.54-3.78h-5.58c-1.74,0-2.76-1.26-2.76-3.42s1-3.48,2.76-3.48h5.58V130H286c-1.68,0-2.58-1.14-2.58-3.18s.9-3.24,2.58-3.24h4.38v-1.44h-3.72c-1.56,0-2.46-1.14-2.46-3.18s.9-3.12,2.46-3.12h3.72v-2.28h-6.06c-1.68,0-2.64-1.2-2.64-3.3s1-3.3,2.64-3.3h6.06V104.8h-4.08c-1.68,0-2.58-1.14-2.58-3.18s.9-3.24,2.58-3.24h4.08c.12-1.86,1.32-2.76,3.54-2.76s3.42.9,3.54,2.76h4.26c4,0,5,1.08,5,5Zm-9.3,0H300c0-1.92,0-2.16-1-2.16h-1.56Zm0,6.6v2.28c2.34,0,2.58,0,2.58-1v-1.26Z"/><path class="cls-2" d="M330.73,106.48c2.16,0,3.06,1.74,2.94,4.08.6-.48,2.22-1.56,3.36-2.34a35.41,35.41,0,0,0,9.18-10c1.2-2.22,1.86-2.76,3.42-2.76,2.76,0,5.58,1.86,5.58,3.72a2.76,2.76,0,0,1-.06.6c2.46,3.84,8.34,7.92,11.34,9.3,2.52,1.2,3.3,2,3.3,3.54,0,2.88-2,5.34-4.38,5.34-4.5,0-12.42-7.26-14.94-10.68-4.74,5.82-11,10.68-13.8,10.68-2.16,0-4.32-2.34-4.32-4.62a2.82,2.82,0,0,1-1.62.48H316.51c-1.92,0-3-1.32-3-3.66s1.08-3.72,3-3.72Zm-16.14,30.18c0-4.08,1-5.1,5.1-5.1h8.46c4,0,5,1,5,5.1v8.52c0,4-1,5-5,5h-8.64c-3.9,0-4.92-1-4.92-5Zm3.48-31.92c-1.86,0-2.94-1.32-2.94-3.66s1.08-3.6,2.94-3.6h11.52c1.86,0,2.88,1.32,2.88,3.6s-1,3.66-2.88,3.66Zm-.3,17.16c-1.68,0-2.64-1.2-2.64-3.24s1-3.3,2.64-3.3h12.12c1.68,0,2.58,1.2,2.58,3.3s-.9,3.24-2.58,3.24Zm.06,8.16c-1.74,0-2.7-1.2-2.7-3.3s1-3.36,2.7-3.36h12c1.74,0,2.64,1.2,2.64,3.36s-.9,3.3-2.64,3.3Zm4.92,8c-.78,0-1,.18-1,1v3.42c0,.78.18,1,1,1h2.4c.78,0,1-.18,1-1V139c0-.78-.18-1-1-1Zm32.94-21.3c0,1.62-1,2.82-4.44,5.4a78.37,78.37,0,0,1-8.76,5.64,5.87,5.87,0,0,1-2.76.78c-2.16,0-3.9-2.1-3.9-4.68,0-1.68.6-2.52,2.88-3.6a33.84,33.84,0,0,0,8.16-5.4c2.34-2.22,3.06-2.64,4.32-2.64A5,5,0,0,1,355.69,116.74Zm12.66,16.44c0,1.38-.72,2.46-3.54,5.28-7.26,7.38-18.84,13.08-24.48,13.08-2,0-3.66-2.16-3.66-4.92,0-1.86.9-2.64,3.6-3.36a44.94,44.94,0,0,0,19.32-12.06c2-2.22,3.06-2.52,4.14-2.52A4.86,4.86,0,0,1,368.35,133.18Zm-5.82-8.52c0,1.32-.66,2.34-3.06,4.44-5.82,5-15.6,10.56-18.72,10.56-2.1,0-4-2.4-4-5.1a3.3,3.3,0,0,1,2.46-3.18,39.49,39.49,0,0,0,14.34-8.64c2-2.16,2.82-2.64,4.26-2.64A4.83,4.83,0,0,1,362.53,124.66Z"/><path class="cls-2" d="M161.38,212.14c.48.48,1.12.93,1.89,0,.14-.17.63-.14.95-.1,2.1.31,3.88-.63,5.77-1.29,1-.36,2.09-1.15,3.53-.54.77.32,2-.48,3-.77.24-.07.54-.24.72-.15,2.17,1,4.14,0,6.15-.56a1.73,1.73,0,0,1,.7-.1,15.59,15.59,0,0,0,5.65-.25c2.27-.36,4.59-.32,6.73-1.35a2.3,2.3,0,0,1,1.11-.11,14.07,14.07,0,0,0,4.5-.8,10,10,0,0,1,4-.28,19.91,19.91,0,0,0,6.17-.11c4.88-.5,9.83.12,14.67-1.27,1.77-.51,3.85.1,5.79.11a24.1,24.1,0,0,0,3.49-.25c1.46-.21,2.88-.71,4.28.36.42.31,1.23.09,1.85.14l4.88.46a3.14,3.14,0,0,0,.75,0,7.27,7.27,0,0,1,5.09.84c1.5.79,3.38.85,5.08,1.24,2.29.51,4.58,1,6.85,1.55,3.4.82,6.8,1.68,10.19,2.55.44.11.83.4,1.27.53,1.06.32,2.14.6,3.21.9a9.22,9.22,0,0,1,2,.57,10.62,10.62,0,0,0,5.74,1.41c.76,0,1.41,0,1.66.92.05.16.19.44.28.43,2.05,0,2.78,1.93,4.27,2.76,2.24,1.27,4.21,3,6.44,4.32,2,1.15,4.14,2,6.23,2.94s4.16,1.78,6.21,2.74a20.72,20.72,0,0,0,4.25,1.62,9.76,9.76,0,0,1,6,3.6,4.13,4.13,0,0,0,1.59,1c2.54,1.2,5.12,2.31,7.62,3.58,2.11,1.07,4.72,1.46,5.79,4.07.1.26.66.3.91.54.7.67,1.34,1.4,2,2.08a4.32,4.32,0,0,0,.87.73,14.28,14.28,0,0,1,2,1.16,14.78,14.78,0,0,1,2.29,2.52,3.56,3.56,0,0,1,.69,2.09,3.13,3.13,0,0,0,2.13,3.14c1.6.67,1.48,2,1.88,3.11.06.17,0,.44.13.51,2.73,1.71,4,4.54,5.58,7.16,1.14,1.92,2,4,3.18,5.9a12.2,12.2,0,0,0,2.14,2c.35.34.89.73.91,1.12a15,15,0,0,0,1.75,5.7c.69,1.49,1.6,3.06,1.3,5a14.21,14.21,0,0,0,.4,3.37,6.7,6.7,0,0,1,0,2.28c-.62,2.28.54,4.31.76,6.47.13,1.32.08,2.67.14,4,.08,1.89.25,3.77.26,5.65a23.24,23.24,0,0,1-.35,3.31c-.13.88-.34,1.76-.52,2.63a2.57,2.57,0,0,1-.23.6c-.36.63-1,1.23-1.07,1.89-.24,2.21-1.77,3.81-2.54,5.75-.23.58-1,1-1.61,1.35-3.68,2-7.9,1.78-11.82,2.77-3.33.83-6.69.42-10,1-.29.05-.61-.17-.93-.24s-1-.4-1.33-.23c-1.35.74-2.49.22-3.63-.41a8.78,8.78,0,0,0-2.93-.7,16.1,16.1,0,0,1-3.36-1.55c-1.07-.48-2-1.4-3.34-1.14a1.29,1.29,0,0,1-1-.58,3.78,3.78,0,0,0-2.8-1.92,4.67,4.67,0,0,1-3-1.6,4.1,4.1,0,0,0-2.63-1.69c-.81-.12-1.47-1.18-2.24-1.75-1.33-1-1.42-.88-2.2.58-1.52,2.85-1.95,6-2.66,9.05-.47,2-.7,4.35-2.37,6-.07.07-.19.15-.18.21.32,2.23-1.74,3.37-2.41,5.17a11.72,11.72,0,0,1-2,2.67,9.77,9.77,0,0,1-1,1.3c-2.1,2-4.26,3.85-6.35,5.82a12.57,12.57,0,0,0-1.16,1.66q-1.73,2.31-3.49,4.59a11.33,11.33,0,0,0-1.65,2.08c-1,2.41-2.86,3.78-5.07,4.93-1.58.82-2.93,2.18-4.57,2.75s-2.87,1.89-4.86,1.64c-.82-.1-1.81,1.09-3.13,2-1.85-.22-4,.85-6.25,1.68-.64.24-1.25.55-1.89.78-2.06.76-4.1,1.58-6.2,2.23s-4.08,1.07-6.13,1.58c-.79.2-1.59.34-2.35.59-2,.63-3.67,2.1-6,1.6-.25-.06-.57.28-.88.36a25.11,25.11,0,0,1-2.94.7c-.83.11-1.83-.21-1.71,1-3.92-.57-7.69-1.19-11.44-.36a5.13,5.13,0,0,1-3.79-.23c-1-.48-2.36-.09-3.55-.14-3.81-.18-7.62-.35-11.43-.59a15.45,15.45,0,0,1-2.55-.6,13.56,13.56,0,0,0-2-.38c-2.9-.17-5.8-.29-8.69-.45a26,26,0,0,1-2.8-.26c-2.27-.38-4.53-.84-6.8-1.22-.79-.14-1.6-.08-2.38-.21-1-.17-2.08-.1-2.79-1.17-.24-.35-1-.41-1.49-.51a61.46,61.46,0,0,1-6.06-1.27c-1.23-.39-2.22-1.47-3.41-2.05s-2.2-.65-3-1.75c-.4-.56-1.54-.52-2.21-.95-1.36-.88-2.67-1.85-3.94-2.85-1.7-1.34-3.36-2.72-5-4.13s-3.54-3-5.17-4.65a15.17,15.17,0,0,1-3.54-4.34c-1-2.22-3.15-3.94-4.79-5.86-.12-.14-.38-.26-.36-.36.35-2.14-1.64-3.13-2.34-4.76-1.3-3-2.88-5.89-4.21-8.89a78.8,78.8,0,0,1-3.14-8.1,51.94,51.94,0,0,1-1.16-6.26c-.23-1.21-.51-2.41-.75-3.62a4.13,4.13,0,0,1-.09-.93c0-1.65-1.06-2.48-2.76-2a44,44,0,0,0-6.13,1.94c-1.93.83-4.25.73-6.39,1.11-1.71.31-3.48,0-5.15,1-.78.47-2.11.08-3.19,0s-2.34-.25-3.5-.43c-2.61-.4-5.21-.85-7.82-1.22a19.06,19.06,0,0,1-2.28-.06,41.29,41.29,0,0,1-4.7-1.6,18,18,0,0,1-3.6-1.86c-.65-.45-1-1.36-1.46-2-.32-.43-.81-.74-1.09-1.19a13,13,0,0,1-1.66-8c.17-2.51.67-4.92,1.08-7.37a3.73,3.73,0,0,1,.33-.74,44,44,0,0,0,1.6-4.22c.38-1.35.42-2.8.78-4.16.17-.63,1-1.1,1.11-1.71.42-3.14,2.12-5.64,3.83-8.16.08-.11.19-.25.18-.37-.32-2.92,2.49-3.67,3.75-5.5a26.21,26.21,0,0,0,1.51-3.05,4.49,4.49,0,0,1,2.49-2.42c.84-.32,1.34-1.46,2-2.19,1.87-2,3.72-4,5.66-5.91.53-.53,1.42-.69,2-1.21a20.07,20.07,0,0,0,1.67-2.19,5.94,5.94,0,0,1,.85-.81c.47-.41,1-.82,1.46-1.19a4.07,4.07,0,0,1,1.26-.78,3.12,3.12,0,0,0,2-1.45,7.8,7.8,0,0,1,2.61-2.24c1.61-1,3.35-1.71,5-2.62a45.08,45.08,0,0,0,4-2.5,2.11,2.11,0,0,0,.71-1.37c.12-1.23-.08-2.51.15-3.71.29-1.56,1.83-2,3-2.64.56-.33,1-.8,1.62-1.1a34.62,34.62,0,0,1,4.68-2.25,6.64,6.64,0,0,0,3.06-1.46,4.91,4.91,0,0,1,2-1,59.08,59.08,0,0,1,6.56-1.91,12.34,12.34,0,0,0,4.45-2.14,2.73,2.73,0,0,1,1.2-.34,23.64,23.64,0,0,0,7.53-2.15,22.72,22.72,0,0,1,3.24-.7A18.46,18.46,0,0,0,161.38,212.14ZM161,349.32a5.53,5.53,0,0,0,.7,1.82,6.19,6.19,0,0,0,2,1.38,19,19,0,0,0,2.52.66c.14,0,.23.22.35.33a9,9,0,0,0,1,.79c.75.48,1.56.89,2.29,1.4a16.09,16.09,0,0,0,1.65,1.38c1.18.58,2.46.94,3.65,1.49.7.32,1.27,1,2,1.21,1.79.51,3.63.85,5.46,1.23,2.49.52,5,1,7.47,1.5a1.31,1.31,0,0,0,.28,0l10.82.86c1,.09,2.05.21,3.07.32,3.15.37,6.3.8,9.46,1.08,2.33.2,4.67.21,7,.31s4.53.22,6.8.26c.85,0,1.7-.28,2.54-.26,2.59.07,5.15.26,7.72-.53,2.29-.7,4.73-.92,7.06-1.49,1.7-.42,3.3-1.26,5-1.56a8.84,8.84,0,0,0,3.75-1.29,5.78,5.78,0,0,1,2-.54c.31-.07.74,0,.94-.18,1.95-1.85,4.76-1.37,7-2.62,1.63-.91,3.58-1.21,5.3-2s3-1.9,4.89-2.05a1.51,1.51,0,0,0,.77-.29c1.72-1.46,3.49-2.88,5.12-4.44s3-3.12,4.43-4.7c.63-.68,1.59-1.31,1.77-2.1.33-1.41,1.4-2.05,2.2-3,1.73-2.06,3.51-4.08,5.06-6.26.93-1.32,2.12-2.64,1.94-4.52a1.77,1.77,0,0,1,.41-1.16,9.36,9.36,0,0,0,1.78-5.29,10.86,10.86,0,0,1,.13-1.41c.57-2.17,1.54-4.18,2.05-6.41a26.19,26.19,0,0,1,3.44-7.81c1.27-2,2.63-4.28,5.46-4.69a5.76,5.76,0,0,0,2.17-.87c.58-.37.62,0,1,.25a20.14,20.14,0,0,0,4.65,2.56,14.28,14.28,0,0,1,4.43,2.58c1.4,1.11,2.6,2.77,4.18,3.27,2,.63,3.23,1.92,4.67,3.15a3.51,3.51,0,0,0,1.81,1c2.94.2,5.6,1.42,8.23,2.47,2.41,1,4.89.85,7.28,1.12s5-.57,7.53-1.08a2.61,2.61,0,0,0,1.55-1.34c1.29-2.59,1.23-5.42,1.19-8.23,0-.33,0-.66,0-1-.27-2.46-1.09-5-.64-7.35.4-2-.52-3.68-.34-5.55.09-1.06-.61-2.19-1-3.28a19.35,19.35,0,0,0-1.35-3.88c-1.12-1.87-2.64-3.48-3.24-5.68-.2-.74-1.18-1.3-1.29-2a6.93,6.93,0,0,0-2.42-4.19,2,2,0,0,1-.69-1.3,4.41,4.41,0,0,0-1.88-3.26c-2.54-2.16-3.6-5.5-6.28-7.51-.06,0,.1-.32.05-.44a11.07,11.07,0,0,0-1.46-2.87c-1.42-1.55-3.08-2.87-4.62-4.31a39.27,39.27,0,0,0-3-2.93,60.79,60.79,0,0,0-10.47-5.88c-1.76-.84-3.75-1.14-5.29-2.5a21.8,21.8,0,0,0-3.54-2.58A40,40,0,0,0,305,237a8.91,8.91,0,0,0-1.49-.25,7.55,7.55,0,0,1-1.84-.56c-2.37-1.3-4.69-2.66-7-4a50.28,50.28,0,0,1-5.18-2.91c-1-.71-1.71-1.63-3-1.69-.19,0-.36-.27-.55-.4a19,19,0,0,0-3.35-2.32c-2.53-1-5.19-1.71-7.75-2.66-1.94-.71-3.8-1.63-5.72-2.42a34.78,34.78,0,0,0-5.41-2.06,43.26,43.26,0,0,0-6.26-.65c-3.27-.25-6.37-1.45-9.65-1.77-1.47-.14-2.85-1-4.33-1.29-2.62-.44-5.27-.68-7.91-.89-1.55-.12-3.11,0-4.66,0-1,0-1.95-.17-2.92-.18s-1.67.15-2.52.18c-2.14.07-4.3,0-6.42.21-1.27.14-2.46.82-3.73,1.07-.64.14-1.36-.22-2.05-.19a55.49,55.49,0,0,1-6.43.26c-2-.16-4-.64-5.74.78-.22.17-.7,0-1.06,0s-.74-.24-.94-.11c-1.69,1.16-3.67,1.05-5.56,1.33a27.26,27.26,0,0,1-5.23.56c-2.58-.12-5.05-.05-7.35,1.3a1.22,1.22,0,0,1-.94.13c-2.84-1.22-5.56.24-8.21.65-3.65.56-7.15,2.15-10.89,2.42-3.16.24-5.73,2-8.63,2.95a11.5,11.5,0,0,0-2.23,1.09c-.6.35-1.12.84-1.73,1.16-.29.15-.92.2-1,0-.8-1-1.67-.48-2.19.06a3.92,3.92,0,0,1-3.12,1.09,5,5,0,0,0-3.62.92c-1.42,1.23-2.37,3.14-4.61,3.2-.11,0-.19.34-.33.42-1.48.87-2.88,2.06-4.48,2.48-1.92.5-2.52,1-1.94,2.88.73,2.45.62,2.86-1.6,4.31-.65.43-1.52.52-2.22.89s-1.36,1.16-2.13,1.35c-3.12.74-5.33,2.93-7.78,4.74a14.8,14.8,0,0,0-2,2.2c-.74.84-1.29,2-2.2,2.48a9.94,9.94,0,0,0-4.08,4.27,3.64,3.64,0,0,1-1.82,1.66,4.14,4.14,0,0,0-2.43,1.84c-.29.41-.53.85-.85,1.23-.8.94-2,1.73-2.4,2.81a45.83,45.83,0,0,1-3.91,8.29c-.49.78-1.3,1.62-1.26,2.4.1,1.7-.87,2.83-1.44,4.22a56.18,56.18,0,0,0-2.84,9,10.31,10.31,0,0,0,.08,5.65c1.26,3.21,4.42,4.23,7.53,5,.16,0,.36-.12.54-.11,1.48.06,3,.05,4.45.22a36.12,36.12,0,0,0,3.62.71c1.83,0,3.66.33,5.47-.73a15,15,0,0,1,4.34-1.2,8.51,8.51,0,0,1,1.49.11,3.82,3.82,0,0,0,1.84-.18,13,13,0,0,1,6.07-1.66c1.29-.08,2.61-.09,3.39-1.44.15-.25.55-.33.83-.5a6.31,6.31,0,0,0,1.37-.92c.86-.93,2.83-1.53,3.88-.91s1.75,1.42,2.7,2a3.66,3.66,0,0,1,1.83,3.52c-.11,3-.4,6.06-.22,9.07a32.31,32.31,0,0,0,1.36,7.21c.75,2.55,1.88,5,2.84,7.47,0,.09,0,.21.1.26,2.11,1.81,2.15,4.77,3.89,6.86a67,67,0,0,1,4.35,6.59c.23.35.6.66.68,1,.35,1.65,1.56,2.7,2.55,3.92s1.58,2.32,2.42,3.44C156.75,347,158.31,348.9,161,349.32Z"/><path class="cls-2" d="M205.06,339.71c1.93-1.07,3.71-1.92,5.34-3,1.15-.76,3.33-1.16,4.17-.16a3.83,3.83,0,0,0,3.54,1.63,18.55,18.55,0,0,0,4.06-1.53c.91-.39,1.34-1.52,2.56-1.5,1.51,0,3-.13,4.2,1.1a22.9,22.9,0,0,1,1.89,1.93,12.93,12.93,0,0,1,1.06,1.95,8.42,8.42,0,0,1-.76,2.35,23.49,23.49,0,0,1-2.7,3,25.8,25.8,0,0,1-2.8,2.43c-.35.27-1.2.45-1.38.25-1.36-1.42-2.81-.5-4.21-.29-1.87.29-3.71.72-5.58.94-1.24.14-2.49-.6-3.79.24-.37.23-1.46-.22-1.93-.66-1-1-2.42-1.44-3.16-2.94a7.69,7.69,0,0,1-.83-4A12.13,12.13,0,0,1,205.06,339.71Z"/><path class="cls-2" d="M192.93,235.08a4.83,4.83,0,0,1,4.4,3.64c.74,3.23,1.42,6.47,2.31,9.65a21.25,21.25,0,0,0,1.81,3.24,26.07,26.07,0,0,1,1.76,4.11c.11.38-.64,1-1,1.54-.16.2-.45.32-.59.53a4.14,4.14,0,0,1-4.75,1.47c-2.72-.72-3.78-2.66-4.74-5-.65-1.62-2-2.95-3-4.47a1.87,1.87,0,0,1-.22-1.53,2,2,0,0,0-.58-2.57c-1.51-1.22-1.51-2.63-.9-4.23a14.79,14.79,0,0,1,1.37-3.37,9.31,9.31,0,0,1,2.47-1.84C191.83,235.82,192.38,235.46,192.93,235.08Z"/><path class="cls-2" d="M218,238.39c2.52-.13,1.48,2,2,3.07.87,1.67.76,3.82,2.66,5,.47.3.56,1.21.82,1.84.49,1.19,1.19,2.44.2,3.62a14.11,14.11,0,0,1-2.79,2.5,2.34,2.34,0,0,1-1.72.09c-1.22-.34-2.37-1-3.6-1.22a4.56,4.56,0,0,1-4-3.19,28.55,28.55,0,0,0-2.26-4.06,7.81,7.81,0,0,1-.63-1.65c-.3-1.07-.46-2.17-.82-3.21a5.22,5.22,0,0,1,3-6.14,3.29,3.29,0,0,0,1.62-.92,1.48,1.48,0,0,1,2.12-.55,22.34,22.34,0,0,0,2.49.72c.62.19,1.36,2.48,1.15,3.47A3.84,3.84,0,0,1,218,238.39Z"/><path class="cls-2" d="M244.78,250.43a4.94,4.94,0,0,1-3.33,4c-2.95.92-5-.34-6.95-2.4a20.22,20.22,0,0,0-3.1-2.58c-1.08-.78-2-4.36-1.49-5.59.6-1.47,1.85-2.23,3-3.17a1.18,1.18,0,0,1,.79-.18,2.76,2.76,0,0,0,2.54-1.09,2,2,0,0,1,1.7-.28,4.74,4.74,0,0,1,3.93,4.54c.16,1.42,1.25,2.72,1.87,4.09C244.09,248.62,244.42,249.53,244.78,250.43Z"/><path class="cls-2" d="M192.13,310.86c-.31.63-.68,1.24-.93,1.89a7.62,7.62,0,0,0-.68,2.37,1.87,1.87,0,0,1-1.71,1.84,9.14,9.14,0,0,1-6.18-1.19c-.92-.51-1.5-2.07-1.77-3.26-.57-2.48.4-4.35,3.09-5.61a16.61,16.61,0,0,1,3.33-1.32,3.46,3.46,0,0,1,2.44.37C191.32,307.07,192.58,308.51,192.13,310.86Z"/><path class="cls-2" d="M246.77,306.76a4.17,4.17,0,0,1,4.27,4,4.57,4.57,0,0,1-.72,2,9.4,9.4,0,0,1-1.68,2.49,9.85,9.85,0,0,1-2.83,1.72c-.66.29-1.52.1-2.22.34-2,.7-2.82-1.05-3.7-2.1a2.89,2.89,0,0,1-.1-3.7,10.5,10.5,0,0,1,3.32-2.89,2.9,2.9,0,0,0,.59-.52A3.46,3.46,0,0,1,246.77,306.76Z"/></g></g></svg>