<svg xmlns="http://www.w3.org/2000/svg" viewBox="0 0 809.42 116.05"><defs><style>.cls-1{fill:#364c59;}.cls-2{fill:#d97979;}.cls-3{fill:#fff;}</style></defs><title>アセット 1</title><g id="レイヤー_2" data-name="レイヤー 2"><g id="_0" data-name="0"><path class="cls-1" d="M165.18,36.73c0,4.69-1.34,25.19-1.34,29.34,0,5.36,0,11.46,8.17,11.46,8.77,0,14.4-4.76,18.22-15.41,1.14-3.28,2.35-4.29,5-4.29,3.62,0,6.23,2.08,6.23,5,0,2.74-2.75,9-5.83,13.26C189.9,84,182.12,87.78,171.81,87.78c-8.18,0-13.8-2.75-16.68-8.24-1.61-3-2.15-6.37-2.15-12.73,0-.81.94-21.51.94-25.59,0-1.14-.2-6.23-.2-7.31,0-3.14,1.88-4.75,5.76-4.75C163.7,29.16,165.18,31.17,165.18,36.73Z"/><path class="cls-1" d="M257,48.59a6.91,6.91,0,0,1,1.2-.07c2.42,0,4,1.87,4,4.76,0,2.27-1.07,3.75-3.15,4.22a83,83,0,0,1-12.72.73c.06.34.87,10.05.87,10.05a73.79,73.79,0,0,1,10.38,3.82c6.36,3,8,4.36,8,7,0,3-2.21,5.43-4.82,5.43-1.27,0-2.08-.4-5.63-2.75a48.81,48.81,0,0,0-7.37-3.75c-.53,8-5,11.59-14.4,11.59S217.9,85,217.9,78.13a11.19,11.19,0,0,1,4-8.58c2.62-2.07,6.17-3.08,11.19-3.08a42.78,42.78,0,0,1,4.82.27c-.06-.87-.13-1.47-.93-8.71-.34-3.55-.61-7.9-.61-11.25,0-6.37,1.08-7.91,5.23-7.91,3.08,0,4.82,1.34,4.82,3.75a28.73,28.73,0,0,1-.2,3,31.37,31.37,0,0,0-.13,3.82A59.31,59.31,0,0,0,257,48.59Zm-30.22,29.2c0,2.35,2.35,3.62,6.5,3.62,3.62,0,5.23-1.4,5.23-4.69,0-.53-.07-1.07-.07-1.54a40.54,40.54,0,0,0-5.63-.53C228.76,74.65,226.81,75.65,226.81,77.79Z"/><path class="cls-1" d="M300.91,45.37a75.54,75.54,0,0,1,13.6-1.47c10.39,0,16.22,5.89,16.22,16.34,0,22.11-22.78,29.81-28.21,29.81-3.15,0-5.43-2.47-5.43-5.89,0-2.75,1.34-4.09,4.83-5,12.12-3.35,18.15-9.37,18.15-18.28,0-4.63-2.68-7.31-7.23-7.31-4.89,0-13.13,2.62-13.87,2.82-6.9,2.21-7.64,2.41-8.91,2.41-2.54,0-4.49-2.41-4.49-5.63S286.31,48.05,300.91,45.37Zm2.21-18.22c7,2.08,8.24,2.28,17.42,3.48,2.68.34,3.89,1.68,3.89,4.36,0,3.61-1.88,5.69-5.29,5.69-4.76,0-13.74-1.74-19.9-3.75-3.42-1.14-4.49-2.28-4.49-4.82,0-3.29,2.08-5.63,5-5.63A12.32,12.32,0,0,1,303.12,27.15Z"/><path class="cls-1" d="M362.42,33.85a37.26,37.26,0,0,1-.67,4.29,129.69,129.69,0,0,0-2.35,24.18,100.07,100.07,0,0,0,1.07,15.74,24.71,24.71,0,0,1,.47,4.42c0,2.68-2.47,4.56-6.09,4.56-4.89,0-5.5-3.48-6.1-13.13-.2-3-.27-5.83-.27-9.45a150.63,150.63,0,0,1,1.14-19.36c1.48-13.46,2.21-15.21,6.7-15.21C359.67,29.89,362.42,31.64,362.42,33.85ZM378.83,64.6a5.27,5.27,0,0,1-.6,2.61,6.86,6.86,0,0,0-.67,2.88c0,3.15,3.15,4.29,11.86,4.29a52.94,52.94,0,0,0,9.11-.74,17.41,17.41,0,0,1,3.15-.33c2.68,0,4.42,2,4.42,5.22,0,4.83-2.41,6.37-16.62,6.37-7.7,0-22.24-.74-22.24-14.21a16.86,16.86,0,0,1,1.88-7.83,4.45,4.45,0,0,1,4.22-2.42C376.55,60.44,378.83,62.19,378.83,64.6Zm24.59-24.72c0,3.35-1.41,5.09-3.95,5.09a18.76,18.76,0,0,1-1.88-.07,42.53,42.53,0,0,0-6.16-.33,104.17,104.17,0,0,0-14.88.87,15.14,15.14,0,0,1-2.74.27c-2.62,0-4.16-1.88-4.16-5,0-5.29,3.09-5.56,9.05-6,4.29-.34,8.1-.47,12.12-.47C401.27,34.25,403.42,35.19,403.42,39.88Z"/><path class="cls-1" d="M439.4,41.62c5,0,14.27.2,14.27,14.33a83.15,83.15,0,0,1-3.08,21.11c-1.95,7-5.16,10.18-10,10.18-1.07,0-12.4-.67-12.4-6.56,0-3,2.21-5.57,4.83-5.57.73,0,1.4.21,3.21,1.08a6.91,6.91,0,0,0,2.55.67c1.14,0,1.67-1,2.68-4.69a80.14,80.14,0,0,0,2.34-15.55c0-3.68-1.81-5.56-5.29-5.56a41.92,41.92,0,0,0-4.42.41,214.84,214.84,0,0,1-10.12,29.07c-1.74,4.22-3.28,5.7-5.76,5.7-3.41,0-6-2.28-6-5.16,0-1.41.4-2.48,1.95-5.09,2.61-4.49,6.36-13.67,9.17-22.85-1.07.2-5.49,1-6.43,1-2.54,0-4.15-1.95-4.15-5.23,0-4.62,1.81-5,13.13-6.23.87-4.22,1.34-8,2-11.52.4-2.35,1.87-3.35,4.62-3.35,3.28,0,5.63,1.47,5.63,3.68,0,1.74-.4,3.69-1.74,10.25C437.39,41.69,438.39,41.62,439.4,41.62Zm19.43-5.36c2.21,0,3.21.87,6.23,5.29,2.88,4.22,10.11,15.75,10.11,20.1a5.44,5.44,0,0,1-5.56,5.43c-2.28,0-3.35-.94-4.55-3.62A81.3,81.3,0,0,0,457,48.39c-3.62-5.16-3.88-5.77-3.88-7.17C453.07,38.6,455.81,36.26,458.83,36.26Z"/><path class="cls-1" d="M499,46.91c0,3.55-4.16,14.74-6.5,20-3.89,8.78-5.29,10.45-8.78,10.45A5.81,5.81,0,0,1,477.92,72c0-1.75.34-2.35,3.29-7.51,3.68-6.7,5.22-12.19,7-18.49.74-2.68,2.21-3.95,4.83-3.95C496.28,42,499,44.3,499,46.91Zm7-15.81c0-2.75,1.88-4.22,5.29-4.22s5.3,1.47,5.3,4.22V80.27c0,8.78-5.1,8.78-10.46,8.78-7,0-9.84,0-9.84-4.89,0-3.35,1.6-5.43,4.22-5.43,1.07,0,2.74.34,3.41.34,1.75,0,2.08-.34,2.08-2.15Zm29.28,17.69c4.75,11.92,7,17.75,7.1,21a6.13,6.13,0,0,1-6.1,5.9c-3.55,0-4-1.48-6.3-9.25a95.8,95.8,0,0,0-4-10.78c-2.14-4.69-2.81-6.1-2.81-8,0-2.82,2.81-5.36,5.83-5.36C531.79,42.29,533.39,44,535.34,48.79Z"/><path class="cls-1" d="M566.09,83.56c-3.82,2.88-10.85,5.62-14.6,5.62-2.48,0-4.49-2.54-4.49-5.69A3.66,3.66,0,0,1,549.21,80c.6-.27.4-.21,4.22-1.08,6.16-1.4,9.44-5,10.38-11.32.47-3.08,1.54-4.08,4.29-4.08,3.75,0,5.63,1.54,5.63,4.48A20.39,20.39,0,0,1,566.09,83.56Zm-14.47-52c0-2.55,1.81-4,5-4s5,1.41,5,4V59.84c0,2.55-1.81,4-5,4s-5.09-1.47-5.09-4ZM567,35.05c0-4.82,1.47-6.23,6.3-6.23h23.24c4.83,0,6.3,1.41,6.3,6.23V56.16c0,4.82-1.47,6.29-6.3,6.29H573.33c-4.83,0-6.3-1.47-6.3-6.29Zm26.19,6.64V38.47c0-1.07-.4-1.47-1.47-1.47H578c-1.07,0-1.48.4-1.48,1.47v3.22Zm0,7.5H576.47v3.42c0,1.07.41,1.47,1.48,1.47h13.8c1.07,0,1.47-.4,1.47-1.47ZM579.49,67.81c0-2.54,1.81-4,5-4s5,1.48,5,4v8.85c0,2.41.4,2.41,3.48,2.41,4.69,0,4.76,0,5-2.88.33-3.75,1.2-4.69,4.42-4.69s5,1.27,5,3.75c0,1.14-.2,8-3.41,10.78-1.21,1-2.55,2.15-11.53,2.15-7.77,0-13.06,0-13.06-7Z"/><path class="cls-1" d="M623.31,70c-2.08,3.29-3.42,4.36-5.3,4.36a5.29,5.29,0,0,1-5-5.23c0-1.2.34-1.87,1.54-3.28a49.17,49.17,0,0,0,8.31-13.06h-6.1c-2.28,0-3.62-1.61-3.62-4.56s1.34-4.49,3.62-4.49h6.57V39.88a24.27,24.27,0,0,1-4.49.53c-2.48,0-4.15-2.14-4.15-5.36s1.27-4.49,5-4.75c5.83-.41,9.45-1.41,15.14-3a14.15,14.15,0,0,1,2.08-.27c2.48,0,4.22,2.22,4.22,5.3,0,3.61-2,4.08-8.44,5.83v5.62h5.15c2.35,0,3.62,1.61,3.62,4.49s-1.27,4.56-3.62,4.56h-5.15v3a5.57,5.57,0,0,1,2.74-.74c1.74,0,2.55.54,4.29,3,2.14,3.08,2.61,4.09,2.61,5.63,0,2.34-2.34,4.28-5.09,4.28-1.41,0-2.08-.47-3.28-2.34-.27-.47-.67-1-1.27-1.88V85.7c0,2.41-1.68,3.75-4.69,3.75s-4.69-1.34-4.69-3.75Zm47-7.5c.27-.07,2.14-.27,2.28-.27,2,0,3.55,2.21,3.55,5.36,0,2.55-.87,3.55-3.75,4.09l-2.08.33v13.4c0,2.55-1.81,4-5,4s-5-1.47-5-4V73.84l-15.68,2.82a15.39,15.39,0,0,1-2.21.26c-2.34,0-4-2.21-4-5.42,0-2.55.87-3.42,3.75-4l18.16-3.28V30.77c0-2.62,1.81-4,5-4s5,1.47,5,4ZM655.2,53.21c1.74,1.74,2.47,3,2.47,4.15a5.49,5.49,0,0,1-5.49,5.36c-1.27,0-1.87-.33-3.21-1.74s-3-2.95-4.22-4c-1.88-1.67-2.28-2.21-2.28-3.55a5.69,5.69,0,0,1,5.22-5.36C649.5,48.05,651.31,49.26,655.2,53.21Zm2.14-15.81a5,5,0,0,1,1.74,3.68,5.62,5.62,0,0,1-5.49,5.3c-1.48,0-2.15-.47-4.22-2.82a30.38,30.38,0,0,0-2.88-2.81c-1.48-1.34-2-2.28-2-3.49,0-2.74,2.68-5.56,5.29-5.56C651.38,31.7,652.18,32,657.34,37.4Z"/><path class="cls-1" d="M721.92,49.32c0,1.54-.06,2.88-.13,4.36h16c2.07,0,3.21,1.47,3.21,4.08s-1.14,4-3.21,4H722.26c3.08,2.82,8.31,5.43,13.26,6.7,3.82.94,5,2,5,4.22,0,3-1.68,5.23-3.75,5.23-4.22,0-14.27-4.36-19.5-9.05a27.35,27.35,0,0,1-18.82,9c-3,0-4.62-1.54-4.62-4.55,0-2.75.93-3.55,5.42-4.69,4.69-1.21,9.18-4,10.79-6.84H696.6c-2.07,0-3.21-1.47-3.21-4s1.14-4.08,3.21-4.08h2.88c-2.48-.81-4.08-2.55-4.08-4.42,0-1.21.4-1.88,2.34-3.89a50.58,50.58,0,0,0,4.69-6.3,7.66,7.66,0,0,1,1.07-1.4h-9.44c-1.21,0-1.61.4-1.61,1.67V77.12c0,1.21.4,1.61,1.61,1.61h43.81c2.28,0,3.62,1.61,3.62,4.49s-1.34,4.49-3.62,4.49h-48.1c-5.5,0-7.1-1.61-7.1-7.1V35.66c0-5.43,1.6-7,7.1-7h48c2.34,0,3.61,1.61,3.61,4.56s-1.27,4.49-3.61,4.49H709.66c1.14.47,2.48,1,2.48,2.48a4.28,4.28,0,0,1-.06.8h21.57c2.14,0,3.35,1.47,3.35,4.22s-1.21,4.15-3.35,4.15Zm-9.64,4.36c.13-1.41.2-2.75.2-4.36h-5.43a21.11,21.11,0,0,1-4.55,4.36Z"/><path class="cls-1" d="M787.32,65.54c-.74,19.15-14.21,23.71-17,23.71-2.28,0-4.49-2.55-4.49-5.16,0-1.61.8-2.68,3-3.82,4-2.14,8.84-4.75,9.51-14.73h-4.28a3.22,3.22,0,0,1-2.62-1.28,27,27,0,0,1,.14,2.82c0,8.91-3.49,10.51-7.91,10.51s-6-.53-7-2.27V85.83c0,2.21-1.55,3.49-4.36,3.49s-4.35-1.28-4.35-3.49V34.72c0-4.76,1.4-6.1,6.43-6.1H764.6c4.29,0,6,1.34,6,4.56a56.15,56.15,0,0,1-1.81,11C767.89,47.92,767,51.4,767,52a7.44,7.44,0,0,0,1,2.15,52.28,52.28,0,0,1,2.82,6.63c.2-2.41,1.34-3.69,3.35-3.69H805.2c2.15,0,3.35,1.48,3.35,4.22s-1.2,4.23-3.35,4.23H799V78.6c0,1.07.14,1.2,1.41,1.2,1.07,0,1.27-.33,1.67-3.08s1.21-3.41,3.55-3.41c2.55,0,3.82,1.14,3.82,3.35,0,2.94-.73,6.83-1.67,8.57-1.21,2.35-3.75,3.28-8.64,3.28-7.17,0-9.05-1.47-9.05-7.37V65.54Zm-30.55,4.35c.6-1.07,1-1.41,2.07-1.41.67,0,1.54.14,2.21.14,1,0,1.48-.54,1.48-1.81,0-2.82-.81-5.76-2.68-9.51-1.41-2.89-1.81-4-1.81-4.9a28.8,28.8,0,0,1,1-4.35c.34-1.14,2-9,2-9.78s-.33-.67-3-.67c-1.14,0-1.27.13-1.27,1.34Zm27-36.85V31c0-2.55,1.81-4,5-4s5.09,1.4,5.09,4V33h8.51c4.82,0,6.23,1.41,6.23,6.23V45c0,2.27-1.68,3.61-4.49,3.61a6.59,6.59,0,0,1-2.61-.47,5.45,5.45,0,0,1,.13,1.48c0,2.74-1.14,4.22-3.35,4.22H779.48c-2.15,0-3.29-1.48-3.29-4.22a5.5,5.5,0,0,1,.07-1.07,3.6,3.6,0,0,1-.8.06c-2.82,0-4.36-1.2-4.36-3.41v-6c0-4.82,1.41-6.23,6.23-6.23Zm-4.15,12.53H798.3a4.73,4.73,0,0,1,1.34.2,9.49,9.49,0,0,1-.07-1.54V42.09c0-.81-.33-1.14-1.14-1.14H780.75c-.8,0-1.14.33-1.14,1.14Z"/><path class="cls-2" d="M131.07,58.27A51.7,51.7,0,0,1,128.26,74c-1.63,5.13-4.52,9.48-7.57,13.92s-5.71,9-9.87,12.56a65.6,65.6,0,0,1-13.5,8.76c-4.73,2.31-9.95,3.61-15.31,4.82a71.9,71.9,0,0,1-15.88,1.69c-5.52,0-11.09.84-16.2-.31-5.35-1.21-9.93-4.56-14.67-6.87a63.14,63.14,0,0,1-13-9C18.07,96,13.16,93.28,10.15,88.9a56.07,56.07,0,0,1-7-14.62c-1.61-5-3.1-10.51-3.1-16S1.8,47.38,3.4,42.34s4.75-9.54,7.8-14,5.35-9.66,9.51-13.17A67.74,67.74,0,0,1,34.57,6.55,71.54,71.54,0,0,1,49.86.79C55-.36,60.61.08,66.13.08a72.8,72.8,0,0,1,16,2A69.44,69.44,0,0,1,97.21,7.52c4.91,2.4,10.22,4.35,14.26,7.76a62.24,62.24,0,0,1,11.11,12c3.06,4.44,4.11,10.08,5.74,15.2A51.85,51.85,0,0,1,131.07,58.27Z"/><path class="cls-3" d="M100.6,68.49A13.77,13.77,0,0,0,99,71.35a27.05,27.05,0,0,1-1.28,2.52c-.29.74-1.12,1.27-1.73,1.86-.44.43-1,.6-1.39,1.21-.21.39-.86.52-1.29.81a4.5,4.5,0,0,0-.6.63c0,.06-.09.15-.15.19-.5.35-1,.7-1.51,1s-1.29.82-2,1.2c-.31.17-.67.26-1,.4a2.25,2.25,0,0,0-.35.22c-.22.14-.44.41-.65.39-.77,0-1.12.78-1.81.82a2,2,0,0,0-1.43.62c-.22.22-.72.17-1.09.27-1,.26-1.91.55-2.87.81a3.14,3.14,0,0,1-1,.17c-.35,0-.57,0-.66.4,0,.08-.36.1-.56.11a12.36,12.36,0,0,0-3.61.48,9.87,9.87,0,0,1-2.33.38c-.67.08-1.36,0-2,.18A2.85,2.85,0,0,1,68,86a.19.19,0,0,0-.18,0c-.8.77-1.83.14-2.71.45-.37.13-.82,0-1.2.16-.55.2-1-.08-1.51-.12-1.31-.09-2.52-.62-3.84-.66a27.12,27.12,0,0,1-3.06-.51,6.83,6.83,0,0,0-1,0,2.34,2.34,0,0,0-.7-.18,4.49,4.49,0,0,1-2.48-.67.66.66,0,0,0-.4-.08,5.44,5.44,0,0,1-2.94-.79,5.59,5.59,0,0,0-1-.3c-1.34-.53-2.69-1-4-1.66a8.89,8.89,0,0,1-1.4-1.16,10.77,10.77,0,0,0-1.31-.89,11.49,11.49,0,0,1-3.35-3c-.71-1-1.35-2-2-3a13,13,0,0,1-1.23-2,10.57,10.57,0,0,1-1.07-3.39A1.43,1.43,0,0,0,31.25,67a6.69,6.69,0,0,0-1.89,0,7.05,7.05,0,0,1-1.7.3c-1.4,0-2.76.4-4.15.28-1.75-.16-3.49-.39-5.24-.46a8.92,8.92,0,0,1-2.48-.53c-.58-.2-1.15-.44-1.71-.69a12.06,12.06,0,0,1-1.72-.87,4.52,4.52,0,0,1-1.1-1A6.4,6.4,0,0,1,10,62.17a5.67,5.67,0,0,1-.19-3.75.14.14,0,0,0,0-.06,2.63,2.63,0,0,1,.47-1.69,13.34,13.34,0,0,0,1-2.27.22.22,0,0,1,.11-.12,3.84,3.84,0,0,0,1.84-1.78c.54-1,1.61-1.37,2.11-2.33.13-.23.56-.29.82-.48.49-.35.93-.77,1.43-1.11.27-.18.64-.19.92-.36.61-.37,1.18-.79,1.76-1.19s1.15-.81,1.72-1.23c.12-.08.19-.23.31-.31a9,9,0,0,1,1-.6,31.09,31.09,0,0,0,3.91-2.17c.49-.35,1.12-.51,1.65-.83a5.07,5.07,0,0,0,2-1.8c.21-.38.86-.51,1.31-.77s.92-.59,1.4-.85,1.08-.49,1.62-.74c.8-.37,1.58-.79,2.4-1.1,1.07-.4,2-1.19,3.29-1,.31,0,.67-.36,1-.53.74-.39,1.52-1.11,2.23-1.05.93.08,1.4-.62,2.18-.74s1.57-.68,2.4-.88c1.29-.32,2.62-.49,3.93-.72,1.11-.2,2.22-.4,3.33-.57.46-.06.94,0,1.4-.07.83-.11,1.66-.27,2.49-.39.41-.05.83,0,1.23-.11s.71-.29,1.08-.33c1.11-.12,2.22-.2,3.34-.25,1,0,1.9,0,2.86,0s2,0,3,0,1.72-.14,2.57-.1a29.79,29.79,0,0,1,4.7.45,7.12,7.12,0,0,0,1.6,0,20.43,20.43,0,0,1,2.34-.09,22.1,22.1,0,0,1,2.2.55c1,.2,1.8.81,2.82.78a21.88,21.88,0,0,1,3.7.55c.9.13,1.62.62,2.49.77a21.74,21.74,0,0,1,2.87.92c.26.09.55.13.8.24s.67.37,1,.56c.07,0,.12.14.19.15,1,.13,1.57,1,2.32,1.48s1.39.81,2,1.28a2.27,2.27,0,0,0,1.48.62c.06,0,.15.06.19.12a8,8,0,0,0,2.66,2.24,26.46,26.46,0,0,1,2.09,1.88c.38.33.8.63,1.21.92a4.67,4.67,0,0,1,2.13,2.42,2.75,2.75,0,0,0,.49.82c.37.49.77,1,1.15,1.44a3.59,3.59,0,0,1,.32.57c.11.22.15.5.31.65a4.26,4.26,0,0,1,1,1.54c.55,1.36,1.16,2.7,1.76,4,.34.75.74,1.47,1,2.24a32.22,32.22,0,0,1,1.37,3.9,7.35,7.35,0,0,1,.07,3.84c-.26.88-.46,1.77-.78,2.63a4.42,4.42,0,0,1-.83,1.38,5.29,5.29,0,0,1-1.12.77s0,0,0,0c-.9,1-2.26.77-3.37,1.25a2,2,0,0,1-2.45-.54.42.42,0,0,0-.26-.12,28,28,0,0,0-3.31.08c-.49.07-1,.36-1.49.18-1.2-.41-2.41-.8-3.62-1.18-.32-.1-.66-.13-1-.21C101.65,68.82,101.15,68.66,100.6,68.49ZM114.52,68v-.11a12,12,0,0,1,1.18-.3,1,1,0,0,0,.81-.47,6.85,6.85,0,0,0,.8-2.78c.27-2-.57-3.78-1.18-5.57A53.35,53.35,0,0,0,113.49,53a22.47,22.47,0,0,0-1.3-2.29c-.43-.68-.94-1.3-1.4-1.95A17.19,17.19,0,0,0,109,46.33c-1.25-1.23-2.64-2.31-4-3.44-.43-.36-.89-.67-1.35-1-.23-.16-.49-.27-.71-.43-.51-.37-1-.78-1.5-1.12s-1.14-.68-1.72-1c-.75-.42-1.21-1.25-2.13-1.44a1.45,1.45,0,0,1-.71-.44c-.91-.94-2.2-1.13-3.33-1.56s-2.53-.45-3.65-1.15a1,1,0,0,0-.5,0,3.8,3.8,0,0,1-1,.12c-1.14-.23-2.26-.52-3.38-.8-.76-.18-1.51-.41-2.28-.56s-1.26-.15-1.89-.23c-.25,0-.5-.11-.76-.12-.88,0-1.77,0-2.64-.11s-2-.33-3-.36c-1.28,0-2.58.06-3.87.1-.71,0-1.43,0-2.14.07-1.5.09-3,.21-4.5.29-.42,0-.86-.15-1.27-.1-1.09.13-2.16.33-3.24.49s-2.39.31-3.58.49c-.54.08-1.07.19-1.6.3s-1,.24-1.47.3a10.81,10.81,0,0,0-1.28,0,18.19,18.19,0,0,1-2.42.67,6.22,6.22,0,0,0-2.35.9l-2.29,1.21a6.29,6.29,0,0,1-1,.5c-.74.23-1.49.4-2.25.59a5.82,5.82,0,0,0-.85.18,16.45,16.45,0,0,1-1.68.84c-1.09.37-2.11.89-3.15,1.35A12,12,0,0,0,33,42.82a4.2,4.2,0,0,1-.67.34,4.07,4.07,0,0,1-2.06.68s-.06.06-.09.08c-.47.28-.93.76-1.41.79-1,0-1.43.9-2.25,1.15a6.8,6.8,0,0,0-1.43.81c-.41.25-.8.52-1.2.8s-.69.5-1,.75a4.43,4.43,0,0,0-.46.29c-.17.13-.29.32-.46.44-.46.32-.94.61-1.4.92a7.39,7.39,0,0,1-1.31.89,7.34,7.34,0,0,0-2.08,1.52A23,23,0,0,0,15.41,54c-.29.31-.73.63-.79,1a1.78,1.78,0,0,1-.55,1,2.2,2.2,0,0,0-.47.67c-.19.54-.3,1.09-.47,1.63a2.84,2.84,0,0,0,.12,2.23,10.49,10.49,0,0,0,1,1.7,6.61,6.61,0,0,0,2.85,1.9,12.15,12.15,0,0,0,3.47.68c.84.12,1.7.17,2.56.26a6.27,6.27,0,0,0,1,.11c.74,0,1.48-.15,2.22-.24s1.65-.19,2.47-.33a12.93,12.93,0,0,0,1.94-.43,5,5,0,0,0,1.54-.75A2.1,2.1,0,0,1,34.37,63a2.81,2.81,0,0,1,1.55,2.23c.18,1.46.08,3,1,4.26.37.55.53,1.24.88,1.81a24.94,24.94,0,0,0,2,2.93,25.84,25.84,0,0,0,2.88,2.85,6.59,6.59,0,0,0,2.42,1.73,8.87,8.87,0,0,1,1.7.88,10.1,10.1,0,0,1,.91.51,3.76,3.76,0,0,0,2.16.89,2.83,2.83,0,0,1,1.52.42,2.18,2.18,0,0,0,1.16.29,6.58,6.58,0,0,1,1,.21,9.35,9.35,0,0,0,1.08.39c.73.16,1.47.28,2.2.37.38,0,1-.11,1.12,0,.29.56.73.11,1.07.29a2.65,2.65,0,0,0,1.14.27c1.17,0,2.38-.41,3.48.37a.27.27,0,0,0,.18,0c.88,0,1.77,0,2.65-.06,1.5-.15,3-.31,4.48-.56s3.28-.22,4.79-1c.07,0,.19,0,.28.07s.25.17.31.14c.49-.23.95-.5,1.37-.72a2.42,2.42,0,0,0,.83.1c.92-.22,1.83-.48,2.74-.77.25-.08.49-.44.7-.4,1.38.2,2.23-1,3.46-1.19,0,0,.06-.12.1-.14.49-.24,1-.46,1.47-.69a13.71,13.71,0,0,0,2.26-1.15c1.15-.86,2.19-1.88,3.3-2.8A11.74,11.74,0,0,1,93.67,74c.3-.19.4-.68.57-.78.79-.49.64-1.54,1.33-2.06a1.74,1.74,0,0,0,.48-.77c.47-1.32.9-2.65,1.39-4,.2-.54.61-1,.78-1.55a.78.78,0,0,1,.93-.61,2.9,2.9,0,0,1,1.23.23c.93.59,1.75,1.38,2.72,1.9a12.34,12.34,0,0,0,2.68.94c.83.22,1.7.34,2.55.49a1,1,0,0,0,.62,0c.62-.39,1.19,0,1.78.06s1,.69,1.62.33a2.63,2.63,0,0,1,.93-.41A5.39,5.39,0,0,1,114.52,68Z"/><path class="cls-3" d="M88.21,40.18c1.27,0,1.84.61,2,1.9,0,.52.23,1,.28,1.55a2.12,2.12,0,0,1-.14,1c-.34.75-1,1.34-1,2.26a.33.33,0,0,1-.2.22c-.59.11-.7.71-1.07,1a4.92,4.92,0,0,1-1.95,1,10.31,10.31,0,0,1-4.14-.08A9.31,9.31,0,0,1,80,48.27a2.66,2.66,0,0,0-2.17-.33c-.29.12-.72-.12-1.06-.06a13.05,13.05,0,0,1-1.78.48c-1.28,0-2.6.39-3.84-.3-.38-.2-.85-.21-1.24-.4A8.39,8.39,0,0,1,67,45.46c-.57-.69-1.06-.76-1.72-.21-.4.35-.85.63-1.27,1-.06,0-.15.15-.15.14-.44-.37-.77.09-1.16.14a4.94,4.94,0,0,1-1.75.06,5.89,5.89,0,0,1-3.13-1.76,18.67,18.67,0,0,1-2.89-5.19A6.5,6.5,0,0,1,54.39,38a1.79,1.79,0,0,1,.31-1.17,2.39,2.39,0,0,1,2.92-.35,1.75,1.75,0,0,1,.53.82c.21.64.29,1.32.52,1.95A8.48,8.48,0,0,0,61.06,43c1.25,1,2,.54,2.79-.63.38-.56.77-1.38,1.77-1.14.15,0,.53-.19.54-.33.07-.66.51-.47.87-.42.72.1,1,.78,1.45,1.21,1,1,2,2,3.07,2.87a10.46,10.46,0,0,0,2.59,1.07c.09,0,.23-.06.35-.09s.47-.21.61-.13c.46.24.78,0,1.11-.24a7.15,7.15,0,0,1,3-1.45c.33,0,.91,0,1,.24a4.81,4.81,0,0,0,3.19,2.12c.21.07.43.11.65.16a1.4,1.4,0,0,0,1.45-.2,2,2,0,0,0,.72-1.22,13.24,13.24,0,0,0,.09-3.14,1.62,1.62,0,0,1,1.58-1.5Z"/><path class="cls-3" d="M62.17,57.45a5.4,5.4,0,0,1,1,1.23,2.2,2.2,0,0,1-1.93,2.76,1.28,1.28,0,0,0-.6.26c-.37.26-.79.12-1.22-.49a4,4,0,0,1-3,.71c-1.39,0-2.79-.19-4.16-.07a2.33,2.33,0,0,1-1.83-.49,1.1,1.1,0,0,0-.49-.09c-.06,0-.15,0-.17,0-.44-.57-1.23-.35-1.74-.75s-.86-.84-1.33-.89a2.25,2.25,0,0,1-1.47-.79,7.13,7.13,0,0,1-1.05-1.15c-.38-.63-.63-1.34-1-2a1.63,1.63,0,0,1,.26-1.59,2.38,2.38,0,0,1,3.06-.38,1.85,1.85,0,0,1,.63.89A4.65,4.65,0,0,0,49,57a5.76,5.76,0,0,0,3.34,1.28,24,24,0,0,1,2.48.56,7,7,0,0,0,1.37,0c.75,0,1.51,0,2.25-.14a12,12,0,0,0,1.26-.47c.73-.2,1.48-.34,2.21-.51C61.94,57.7,62,57.62,62.17,57.45Z"/><path class="cls-3" d="M72.27,59.06a.23.23,0,0,0,.17,0,1.32,1.32,0,0,1,2,.5A19.43,19.43,0,0,0,76,61.43,5.53,5.53,0,0,0,79,62.87c.53.11,1.07.2,1.6.28.11,0,.23-.1.35-.14a2.45,2.45,0,0,1,.68-.18c.59,0,1.18.1,1.77.07a7,7,0,0,0,1.71-.26,2.55,2.55,0,0,0,.81-.57,4,4,0,0,1,2.28-.88,1.06,1.06,0,0,1,1.18.56c.12.24.4.41.52.66a2.31,2.31,0,0,1,.11.75s-.1.08-.12.13c-.42,1.43-1.73,1.61-2.86,1.95a22.83,22.83,0,0,1-2.63.39c-.53.09-1,.27-1.56.4a2.44,2.44,0,0,1-.47.09c-1,0-2,.11-3.07.11a12.27,12.27,0,0,1-2-.13,3.07,3.07,0,0,1-1-.42c-1.24-.67-2.63-1.1-3.6-2.21-.15-.17-.45-.22-.61-.39a15.24,15.24,0,0,1-1.56-1.75,1.25,1.25,0,0,1,0-1c.24-.6.56-1.21,1.35-1.27.05,0,.1-.07.16-.08A2,2,0,0,1,72.27,59.06Z"/><path class="cls-3" d="M68.26,75.26l-.38-.33c-.21.08-.37.21-.5.19-.91-.17-1.8-.43-2.7-.54a12.82,12.82,0,0,0-2.05.07,4.65,4.65,0,0,1-2.84-1,4.94,4.94,0,0,1-2-2.38,1.52,1.52,0,0,1,0-1,2.91,2.91,0,0,1,1.88-1.59,1.88,1.88,0,0,1,1.89.85c1.09,1.7,2.22,2.36,4.33,2,.71-.14,1.44-.18,2.16-.28a1.17,1.17,0,0,0,.45-.17,2.23,2.23,0,0,1,2.51.16,1.59,1.59,0,0,1,0,1.66c-.08.12-.23.22-.25.34-.14.67-.52.83-1.2.8-.3,0-.64.47-.94.75A2.14,2.14,0,0,0,68.26,75.26Z"/></g></g></svg>