<svg xmlns="http://www.w3.org/2000/svg" viewBox="0 0 580.78 362.3"><defs><style>.cls-1{fill:#d97979;}</style></defs><title>hospital-illust</title><g id="レイヤー_2" data-name="レイヤー 2"><g id="side"><path class="cls-1" d="M330.28,190.55c-1.46.54-2.47.85-3.42,1.29a3.16,3.16,0,0,1-3.12-.05c-3.5-1.76-7.24-3.07-10.66-5a14.2,14.2,0,0,1-5.68-5.76,21.08,21.08,0,0,1-2.73-8.51,29.61,29.61,0,0,1,1.07-8.26,26.63,26.63,0,0,1,8.79-14.75c.23-.2.4-.54.66-.62,2.9-.91,5.76-2.22,8.72-2.53,3.27-.35,6.81-.14,9.44,2.34a25.76,25.76,0,0,1,3,4.18c-2.21,3.27-5.61,3.81-8.5,1.4-1.8-1.5-5.9-1-7.76.53-1.1.94-2.64,1.16-3.47,2.68-2.1,3.85-4.16,7.76-4,12.21.1,3.2.76,6.5,2.95,9.11a8.72,8.72,0,0,0,2.82,2.14,55.83,55.83,0,0,0,6.52,2.68c1.82.6,3.14-.73,2.92-2.62a5.2,5.2,0,0,1,.2-1.4,9.49,9.49,0,0,0,.45-2.78,19.76,19.76,0,0,1,1.72-11c1.59-3.5,3.06-7.22,6.13-9.68a11.82,11.82,0,0,1,5.87-2.58c3.35-.34,6.82.47,10.17.12,2.57-.27,4.56.81,6.8,1.39,1.15.29,2.45-.11,3.64.09a60.52,60.52,0,0,0,6.59,1.06c-1.35-.92-2.7-1.85-4.06-2.76a11,11,0,0,1-1.6-1.05,50.17,50.17,0,0,1-4.06-4.06c-2.23-2.65-4.36-5.39-6.44-8.16-1-1.27-1.64-2.76-2.6-4-2.2-2.93-2.52-6.57-3.86-9.82-.31-.76-.58-1.54-.82-2.16-1.16.32-2.2.55-3.2.89-3.54,1.19-7,2.49-10.6,3.59-1.72.53-3.55.72-5.33,1.08s-3.69.82-5.55,1.14a11.64,11.64,0,0,1-3.74.32c-5.12-.88-10.21-1.73-14.27-5.64a18.41,18.41,0,0,1-5.53-11.45c-.29-2.3-.61-4.61-.81-6.93a5.23,5.23,0,0,1,.4-2.26c1.14-2.89,2.38-5.74,3.54-8.62.26-.65.2-1.45.52-2,1-1.83,2.08-3.59,3.12-5.38,1.23-2.13,2.44-4.27,3.67-6.4.26-.46.54-.92.83-1.37.59-.94,1.16-1.9,1.79-2.81s1.45-2,2.16-3,1.65-2.31,2.46-3.48q1.63-2.37,3.25-4.76c1-1.43,1.89-2.92,3-4.27,1.93-2.36,4-4.61,6-6.95a8.94,8.94,0,0,0,1.27-2,6.22,6.22,0,0,1,1.73-2.18,14.54,14.54,0,0,0,3.65-5.08c1-2.23,1.94-4.27,4.17-5.43a13.49,13.49,0,0,1,2.05-.82c1-.32,2-.59,3.15-.93,2.14.92,2.5,3.13,2.56,5.26,0,.78-1,1.65-1.71,2.4-.91,1-2,1.85-2.84,2.91-3,3.91-6.08,7.79-8.88,11.85-1,1.45-2.4,2.46-3.26,4.14-1.27,2.48-3.54,4.43-5.14,6.77-1.9,2.77-3.52,5.73-5.33,8.57-1.07,1.68-2.33,3.24-3.44,4.9-.83,1.26-1.54,2.59-2.33,3.88a38.28,38.28,0,0,0-2.79,4.55,87,87,0,0,0-4,10.52,19.08,19.08,0,0,0-.41,6.71,12.71,12.71,0,0,0,3.43,7.81,11.58,11.58,0,0,0,6.66,3.77c2.26.29,4.7.64,7.15-.19,4-1.36,8.28-2,12.3-3.42,2.22-.76,4.6-1.6,6.18-3.66.27-.35,1-.41,1.48-.53,1.32-.31,2.68-.47,3.42-1.89.18-.34.81-.46,1.23-.66l3.57-1.65c.51.19,1.52.52,2.5.93,1.61.67,2.82,3.71,2.11,5.61-1.38,3.68-.43,7.08.84,10.57s3.59,6.59,5.56,9.77a16.79,16.79,0,0,0,3.21,3.32c1.26,1.14,2.65,2.12,3.91,3.25.72.66,1.25,1.54,2,2.21.53.48.77,1.72,2,1,.11-.07.43.13.61.26,1.79,1.28,3.49,2.72,5.38,3.82a17.66,17.66,0,0,0,4.46,1.64c3.66.94,7.49,1.37,11,2.69,4.4,1.66,8.86,1.61,13.39,1.74,2.81.08,5.61.61,8.41.65s5.64-.27,8.46-.44c.16,0,.37-.25.47-.2,2.47,1.16,5-.34,7.57.16,2.8.54,5.87,0,8.78-.44,3.1-.42,6.14-1.26,9.24-1.77s6.55-.38,9.55-1.39c4.83-1.62,9.92-1.75,14.79-3.48,4.09-1.46,8-3.24,12-5,2.69-1.19,5-3.6,7-5.82a93.94,93.94,0,0,0,9.86-11.73c1.86-2.78,3.83-5.77,4.27-9.38.17-1.44,1.1-2.62,3-2,.17,0,.44-.13.63-.26a7,7,0,0,1,7.91.17c.23.18.52.51.72.47,2.55-.51,3.7,1.43,5.15,2.85a31.18,31.18,0,0,0,4.33,4,27.09,27.09,0,0,0,6.59,3.24c2.09.65,4.4.58,6.61.89a19.86,19.86,0,0,1,3.26.68,6.9,6.9,0,0,0,7.39-1.88,14.89,14.89,0,0,0,4.55-7.34,27.63,27.63,0,0,1,1.38-3.24c1-2.69,2.07-5.36,2.82-8.11.26-.92-.36-2.07-.43-3a25.58,25.58,0,0,0,.3-4.43c-.26-2.59-.78-5.15-1.25-7.72-.22-1.2-.56-2.38-.88-3.56-1-3.81-2-7.62-3.13-11.42a34.48,34.48,0,0,0-1.31-3.25q-1-2.44-1.93-4.91c-.13-.33-.21-.67-.34-1-.56-1.53-1.06-3.1-1.73-4.59-.9-2-1.95-3.89-2.92-5.84q-1.14-2.3-2.27-4.59c-.15-.31-.16-.77-.4-.95-2.84-2.18-3.57-5.8-5.75-8.43-1.15-1.39-2-3.1-3.34-4.25a63.64,63.64,0,0,1-8.28-9.09,30.7,30.7,0,0,0-3-3c-2.26-2.16-4.47-4.37-6.79-6.46a32.71,32.71,0,0,0-3.21-2.16,46.58,46.58,0,0,0-4.55-3.19c-3.36-1.78-6.82-3.36-10.24-5a24.5,24.5,0,0,0-7.71-2.38c-3.06-.38-6.1-.93-9.16-1.35-2.83-.4-5.66-.84-8.5-1-2-.14-4,.24-6,.17-2.91-.12-5.82-.46-8.73-.67a52.27,52.27,0,0,0-5.59-.25c-2.51.11-5,.51-7.51.66-4.86.3-9.76.24-14.58.84-3.32.41-6.64.58-10,.92a20.36,20.36,0,0,0-6.4,1.61c-1.23.57-2.26,1.54-3.75,1.54a20.28,20.28,0,0,1-2.32.17c-2.47-.32-4.5.76-6.65,1.71-2.73,1.2-5.66,2-8.43,3.08-3.11,1.27-6.56,1.39-9.49,3.45-2,1.4-4.66,1.79-7,2.74-1.51.62-2.93,1.49-4.43,2.16-2.52,1.13-5.09,2.14-7.6,3.29-3,1.39-6.11,2.71-9,4.39a13,13,0,0,0-3.59,3.69c-1.15,1.59-4.87,3.16-6.76,2.82a7,7,0,0,1-3.78-2.25c-.63-.64-1.29-1.32-.48-2.48a13.51,13.51,0,0,0,1.19-3.25,5.17,5.17,0,0,1,2.67-3.09,17.67,17.67,0,0,0,3.72-1.92c3.57-2.92,8.3-3.12,12.17-5.39,2.51-1.48,5.46-2.23,8.22-3.26,2.61-1,5.27-1.84,7.84-2.89.86-.34,1.47-1.27,2.32-1.64,1.44-.63,3-1,4.46-1.54a36.85,36.85,0,0,1,3.67-1.61c1.44-.37,3-.24,4.44-.56a27.48,27.48,0,0,0,3.64-1.34c.71-.27,1.42-.57,2.15-.8,1.39-.45,2.8-.87,4.21-1.3l6.45-2c.39-.11,1,0,1.18-.26,1.37-1.52,3.27-1.25,5-1.55,2.86-.49,5.72-1,8.6-1.32,1.74-.21,3.52-.05,5.28-.16,5.27-.3,10.54-.7,15.82-1C449.83,0,452.39,0,455,0q8.07.14,16.14.37c3.08.08,6.18.11,9.24.43C484.7,1.27,489,2,493.41,2.51c1.43.17,2.9,0,4.36.06a6.75,6.75,0,0,1,2.24.37c4.67,1.94,9.35,3.87,14,6,3.2,1.44,6.3,3.11,9.44,4.69a3.73,3.73,0,0,1,.83.6c2,1.82,3.91,3.62,5.8,5.49.73.72,1.24,1.67,2,2.42,3.88,4.14,7.66,8.37,11.72,12.32,3.3,3.19,5.44,7.12,7.93,10.85,1.23,1.84,3.17,3.21,4.37,5.07A28.21,28.21,0,0,1,558.43,56c.71,1.93.83,4,2.65,5.56,1,.81,1.41,2.48,1.62,3.83a12.44,12.44,0,0,0,3.06,7,3,3,0,0,1,.64,2.31c-.59,2.78,1.16,5,1.66,7.45.21,1.08.87,2.11.89,3.16a11,11,0,0,0,1.37,5.26c.87,1.64.94,3.73,1.21,5.64a81,81,0,0,1,1,8.77,19.4,19.4,0,0,1-.9,5.12,54,54,0,0,1-1.86,6.28c-.86,2.24-2,4.37-3,6.55a23.29,23.29,0,0,0-1.34,2.87c-1.21,3.9-4.75,5.75-7.28,8.5s-6.07,3.11-9.43,3.15c-3.12,0-6.25-.68-9.37-1.11-2-.28-4-.65-6-.95-3.28-.49-5.9-2.22-8.4-4.25-2.19-1.77-4.42-3.48-6.65-5.19-.46-.35-1-.59-1.14-.31-1,.75-2.08,1.43-3,2.25a4.45,4.45,0,0,0-1.57,3.45,4.25,4.25,0,0,1-1.17,2.47c-1.71,1.88-3.67,3.54-5.34,5.45-2,2.26-3.71,4.7-5.74,7.31a12.91,12.91,0,0,0,7.53-2.65,3.64,3.64,0,0,1,2.43-1c1.15,0,2.31-.76,3.5-1,2.58-.45,5.18-.74,7.77-1.14,2.09-.32,4.17-1,6.25-1a30.54,30.54,0,0,1,11.72,2.73c1.33.56,2.39,1.73,3.65,2.5.34.2,1.3.09,1.4-.13a6.35,6.35,0,0,1,5.15-3.77,24.09,24.09,0,0,0,7.2-2.25c2.81-1.58,5.46-.29,8.15-.34a12,12,0,0,1,4.86.91,15,15,0,0,1,3.54,2.74,49,49,0,0,1,4.28,4c.86.95,1.39,2.21,2.25,3.17a18.13,18.13,0,0,0,.31,2.87c1.16,4.61.13,8.94-1.76,13.1-1.38,3-3,6-4.42,9a14.82,14.82,0,0,1-.78,2,8,8,0,0,1-1.8,1.83c-.71.53-1.6.81-2.32,1.32-.88.63-1.61,1.46-2.5,2.07-2.38,1.61-4.8,3.16-7.23,4.7a5.07,5.07,0,0,1-1.64.57c-3.13.69-6.22,1.74-9.47,1.63a3.49,3.49,0,0,1-1.9-1.22,10.76,10.76,0,0,1-1.26-2.09c-1.7.75-3.36,1.56-5.08,2.21-2.19.83-4.43,1.53-6.64,2.29-1,.36-2,.74-3.08,1.08-2.57.86-5.15,1.69-7.71,2.57a10.72,10.72,0,0,0-1.68.87,7.94,7.94,0,0,1-2.32,1.24c-1.64.22-3.41-.14-4.34,1.76-2.4-.24-4.29,1.23-6.41,1.92-1.33.43-2.71.67-4.06,1,0,1.92-.12,4,0,6.07.26,3.8.72,7.59,1,11.39.08,1.11-.39,2.28-.25,3.37.28,2.1.9,4.16,1.22,6.26a10.41,10.41,0,0,1,.11,4.33c-.88,2.85.34,5.44.56,8.14.25,3.06,1.09,6.08,1.29,9.14.31,4.83.37,9.68.39,14.53,0,3.38-.21,6.76-.34,10.15a77.87,77.87,0,0,0-.29,8.49,20.25,20.25,0,0,1-1.09,6.68,38,38,0,0,0-.45,5.37c-.33,3.3-.31,6.71-1.18,9.87-1.26,4.56-2.2,9.3-4.8,13.39a7.32,7.32,0,0,1-2.37,2.36c-2.39,1.39-3.2,3.59-3.68,6.09A7.79,7.79,0,0,1,493,328c-1.59,2.68-3.18,5.35-4.87,8-.5.77-1.47,1.23-2,2-1.37,2.05-2.45,4.31-4,6.24a66.46,66.46,0,0,1-5.47,5.92c-3.43,3.46-7.74,4.41-12.44,4.27-2.44-.08-4.86.24-7.31-.35-3.38-.82-6.86-1.27-9.88-3.21-4.68-3-7-7.54-8.26-12.76-.81-3.45-1.44-6.95-2.09-10.43a22.68,22.68,0,0,1-.17-2.82,38.49,38.49,0,0,1-5.45-2.43,9.28,9.28,0,0,1-2.73-3.15,29.58,29.58,0,0,1-1.58-3.89c-1.21-2.81-2.35-5.66-3.76-8.37A4,4,0,0,0,420.4,305c-.56-.09-1.31,1.34-2,2-2.43,2.36-2.53,6.17-5.18,8.4-.18.16-.17.54-.25.81a9.43,9.43,0,0,1-4.28,5.7c-1.37.82-3.14.93-4.7,1.45-.95.32-1.81.86-2.75,1.21a.93.93,0,0,1-.67,0c-1.57,3.23-3.12,6.3-4.55,9.42-.87,1.92-1.54,3.94-2.33,5.9a3.7,3.7,0,0,1-.88,1.57c-2.81,2-3.7,5.54-6.23,7.65a21.85,21.85,0,0,1-6.23,3.62,34.67,34.67,0,0,1-6.81,1.22c-4.25.62-8.51.44-12.3-1.62a30.62,30.62,0,0,1-7.61-5.7,24.55,24.55,0,0,1-6.85-13c-.54-3.4-1.08-6.81-1.44-10.23-.29-2.77,1.1-4.59,3.49-5-1.21-3.53-3.27-6.8-3.18-10.73a2.93,2.93,0,0,0-.41-1.53c-2.35-3.67-1.42-7.78-1.25-11.65a55.44,55.44,0,0,1,2.11-11.49c.74-2.86.3-5.72.67-8.56a3.29,3.29,0,0,1,.07-.71c.91-2.18,1.85-4.35,2.76-6.53a18.65,18.65,0,0,0,.88-2.29c1-3.49,2-7,2.87-10.51a13.62,13.62,0,0,0,.05-2.22,28.15,28.15,0,0,1,.46-4.78c.46-1.84,1.42-3.56,1.93-5.4a57.45,57.45,0,0,0,2.2-9.4,37.16,37.16,0,0,1,2.58-10,19.34,19.34,0,0,0,1-2.31c.87-3.34,1.65-6.7,2.38-9.68a36.61,36.61,0,0,0-4.61-2.73c-1.34-.55-3-.42-4.33-.93-3.17-1.16-6.28-2.48-9.37-3.84a50.79,50.79,0,0,1-5.76-2.89,25.1,25.1,0,0,1-7.63-6.31,1.67,1.67,0,0,1-.36-1A2.14,2.14,0,0,0,330.28,190.55Zm48-24.83c-7.26,1.56-6.45,1.34-10-.9-2.6-1.61-5.56-1.85-8.49-2.21-2.47-.3-4.93-.7-7.41-1-2.94-.35-5.75-1.21-8.9-.22-3.67,1.15-4.75,4.34-6,7-1.15,2.42-.72,5.61-.9,8.46-.05.75.48,1.61.28,2.27a8.11,8.11,0,0,0,1.17,7c1.42,2.3,2.61,5,4.65,6.59,2.8,2.16,6.29,3.43,9.5,5a4.45,4.45,0,0,0,1.39.22c2.63.37,5.26.53,7.77,1.74,1.61.79,3.6.79,5.42,1.12a.59.59,0,0,0,.45-.26,29.76,29.76,0,0,0,1.69-3.27c1.46-3.78,2.79-7.6,4.26-11.38.93-2.38,2.12-4.66,3-7.06.83-2.24.36-5,2.66-6.66a1,1,0,0,0,.27-.8c-.47-2.11.83-3.5,2-5a4.73,4.73,0,0,1,5.21-1.24c1.83.91,2.94,3.08,2.26,4.81-1.15,2.88-2.41,5.72-3.67,8.55-2.71,6-5.56,12-8.12,18.13-1,2.47-2.54,4.87-2.38,7.75a1.75,1.75,0,0,1-.49,1.13c-2.05,2.2-2,5.21-3,7.81-.86,2.18-1.07,4.6-1.77,6.85-1,3.3-2.38,6.51-3.33,9.83-1.22,4.23-1.9,8.63-3.3,12.79-1.6,4.76-2.21,9.66-3,14.56a30.33,30.33,0,0,1-2.4,8.86c-1.72,3.41-2.48,7.06-3.62,10.6-.36,1.1.38,2.51.18,3.71-.42,2.48-1.26,4.89-1.68,7.37a33,33,0,0,0-.07,4.56c-.09,2.59-.29,5.18-.31,7.77a12.28,12.28,0,0,0,.44,4.08,81.67,81.67,0,0,0,3.62,8.64,3.66,3.66,0,0,0,2.4,1.69c2.71.43,5.47.57,8.22.79,1.91.15,3.83.2,5.74.38s3.78.46,5.68.68a4.53,4.53,0,0,0,.9,0c1.32-.09,2.63-.23,3.95-.26,2.06-.06,4.13,0,6.2-.05,1.16,0,2.32,0,3.48,0,1.69,0,3.38.12,5.06.07a19.17,19.17,0,0,0,2.8-.44,5.9,5.9,0,0,1,1.68-.36,3.21,3.21,0,0,0,3.7-2c.6-1.21,1.47-2.3,2.1-3.51,1.28-2.47,2.62-4.92,3.66-7.5.57-1.41,2-1.25,2.76-2.13a12.47,12.47,0,0,1,4.47-3.23c2.34-1.09,4.76-2.19,7.12-.11a43.36,43.36,0,0,1,3,3.3,25.69,25.69,0,0,1,6.13,10.9c1,3.93,5.88,7,9.85,6.35a16.75,16.75,0,0,1,3-.08c1.56,0,3.13.1,4.7.14.61,0,1.22,0,1.83,0,4.22-.1,8.44-.13,12.65-.33,2-.1,3.94-1,6.13-.48,1.11.28,2.85.76,3.63-.78,1.24.17,2.59.79,3.49.4,2.79-1.22,5.67-.74,8.5-1,1.25-.13,3.19-.68,3.51-1.53.84-2.24,3.78-3.48,3.05-6.4,2-2,1.14-4.79,1.87-7.16.87-2.83.28-5.9,1-8.91.86-3.43.6-7.15.88-10.74.21-2.5.57-5,.75-7.49.07-1-.25-2.11-.19-3.16.1-2.09.48-4.17.48-6.26,0-1.53-.59-3-.65-4.58-.2-4.39-.27-8.8-.4-13.2-.11-3.79-.24-7.59-.37-11.38a9.75,9.75,0,0,0-.21-1.05c-.54-4.13-1.12-8.26-1.58-12.4-.33-3-.45-6-.76-9-.21-2-1.27-4-.07-6.06.13-.22-.05-.7-.22-1A8.92,8.92,0,0,1,494,199.2a5.36,5.36,0,0,0-.22-1.4c-.41-3-1.74-5.76-2.07-8.85-.41-3.84-1.65-7.6-2.6-11.38-.3-1.18-.91-2.29-1.25-3.47-.29-1-.23-2.14-.6-3.12-.82-2.14-1.86-4.18-2.7-6.31-1-2.54-1.42-5,1.07-7.11a15.29,15.29,0,0,0,1.8-2.11,4.62,4.62,0,0,0-2.09.28q-3,1.05-5.9,2.15c-1.92.71-3.8,1.63-5.78,2.15-2.85.75-5.78,1.23-8.67,1.83a18.26,18.26,0,0,1-3.27.72c-4.17.09-8.2.33-12.16,2.08-2.28,1-5.07.93-7.65,1.21s-5.37.46-8.06.64c-1.09.07-2.19,0-3.28,0-3.1,0-6.2.18-9.29.09-1.83-.05-3.65-.61-5.48-.68-3.3-.12-6.62,0-9.92-.07-3-.11-6-.42-9-.71a38.56,38.56,0,0,1-6.37-.84c-4.14-1.11-8.2-2.49-12.27-3.75Zm124.26,27.75c.92-.73,1.89-1.41,2.77-2.21a6.82,6.82,0,0,1,4.88-2.11,21.06,21.06,0,0,0,4.7-.06c2.62-.53,5.17-1.4,7.75-2.11,1.31-.36,2.65-.62,3.93-1,2.91-.95,5.83-1.89,8.68-3,1.24-.48,3-1.11,3.36-2.08,1.08-3.21,2-6.52,1.4-10a32.81,32.81,0,0,1-.08-5.06,17.36,17.36,0,0,0,0-2.6c-.33-2.1-1-4.17-1.11-6.28s-.65-3.93-2.27-5.18a29.64,29.64,0,0,0-4.94-2.88,20.07,20.07,0,0,0-3.66-1.19c-1.68-.42-3.22-1.48-5.14-.7a13.86,13.86,0,0,1-5.05,1.41c-4.19,0-7.78,1.77-11.45,3.31-1.3.54-2.27,2.24-3.53,2.44-2,.3-2.92,1.68-3.89,2.92a3.59,3.59,0,0,1-3.15,1.61c-2.15,0-2.48.51-1.84,2.62.88,2.92,1.72,5.86,2.57,8.79.37,1.3.7,2.62,1.09,3.92a21.29,21.29,0,0,1,1.15,3.61c.45,3.77.59,7.58,2.18,11.14C501.52,190,501.9,191.47,502.58,193.47ZM388.87,325.75a6,6,0,0,0,.88-1.18c.12-.26-.06-1-.19-1a22.7,22.7,0,0,0-3.49-.37c-1.63,0-3.26.21-4.88.18s-3.49-.23-5.23-.36c-3.18-.24-6.36-.45-9.53-.73-1.95-.18-3.89-.64-5.84-.68s-4,.3-5.86-.72c-.25-.14-.67,0-.83,0a21.94,21.94,0,0,0-.21,4.13,53.73,53.73,0,0,0,1.81,9.39,19.67,19.67,0,0,0,10.25,11.33,8.55,8.55,0,0,0,3.83,1.16,67.65,67.65,0,0,0,8-1,5.19,5.19,0,0,0,4-3.05,13.73,13.73,0,0,1,.94-1.36A36.78,36.78,0,0,0,386,336.2a69.94,69.94,0,0,0,2.59-8A15.67,15.67,0,0,0,388.87,325.75Zm94.18-.86c-1.5.12-2.86-.26-4.4-.17-7.32.43-14.67.42-22,.48-2.58,0-5.17-.18-7.76-.35s-3.26.51-3.17,3a19,19,0,0,0,.38,3.92c.64,2.65.35,5.61,2.48,7.81.36.36.45,1,.77,1.38,1.06,1.38,1.92,3.25,3.34,4,2.4,1.21,5.17,1.72,7.81,2.46s5.19.07,7.8-.81c1.86-.63,2.83-2.11,4.05-3.22a37.61,37.61,0,0,0,5.09-6.43,60.27,60.27,0,0,0,3.45-5.72C481.93,329.33,483.47,327.58,483.05,324.89Zm65.22-148.06c-.93,2.9.29,3,1.89,3.31a11.62,11.62,0,0,0,9.1-2.29c.63-.44,1-1.28,1.58-1.74,1.33-1,2.95-1.65,4.08-2.8,1-1,1.18-2.76,2.19-3.68,2.19-2,3-4.42,3.52-7.22.92-4.54.67-8.72-2.41-12.35-1.55-1.84-3.14-3.74-5.91-3.84-1,0-2.14-.62-3.14-.47-2.29.36-4.81-.06-6.62,2.23a6.63,6.63,0,0,1-3.64,1.83c-1.1.25-1.46.63-1.37,1.64.12,1.43.19,2.87.39,4.29.08.63.73,1.3.6,1.82-.74,2.95.57,5.82-.08,8.91C547.68,170.06,548.27,173.93,548.27,176.83Z"/><path class="cls-1" d="M46.59,171.73c-1-1.54-.12-5.15,1.18-6.48,2.06-2.11,5-2.22,7.35-3.7a22.71,22.71,0,0,0,2.13-1.15c1.86-1.54,4-1.85,6.34-2.38,3.46-.8,6.74-2.43,10.12-3.66a6.51,6.51,0,0,1,1.61-.11,36.38,36.38,0,0,0,3.92-.39c2.78-.54,5.55-1.18,8.31-1.79,1.7-.38,3.37-.82,5.07-1.15.94-.19,1.9-.2,2.85-.31,3.78-.45,7.56-1,11.35-1.34s7.43-.6,11.15-.83c2.94-.18,5.9-.26,8.85-.36,1.15,0,2.32.07,3.47,0,2.07-.17,4.14-.46,6.21-.68a7.8,7.8,0,0,1,1.45,0c3.44.22,6.89.42,10.33.71,3.69.32,7.42.5,11,1.17,2.74.51,5.33,1.78,8,2.57s5.37,1.36,8,2.08c1.87.51,3.7,1.17,5.58,1.67,4,1.05,8,1.89,12,3.1,3.12,1,6.11,2.34,9.18,3.48a57.89,57.89,0,0,0,7.15,2.43c2.2.51,3.49,2.13,5.06,3.38a68.23,68.23,0,0,1,6.75,6.08c1.68,1.77,3.6,3.34,4.4,6a11.15,11.15,0,0,0,3.29,4.37c1.61,1.49,3.1,2.9,3.81,5.11a16.88,16.88,0,0,0,2.32,4.4c1.61,2.32,3,4.53,3,7.62,0,2.33,1.26,4.62,1.69,7a25,25,0,0,1,.07,9.94,27.43,27.43,0,0,1-3.2,8.32,3.83,3.83,0,0,1-1.82,1.37c-2.77,1.11-5.54,2.26-8.39,3.11a37.82,37.82,0,0,1-7.64,1.56c-4.44.33-8.92.29-13.38.43-1.51,0-3.25,2.45-3.65,4.66a18.06,18.06,0,0,1-1.23,4c-1.09,2.5-2.26,5-3.53,7.38a10.88,10.88,0,0,1-2.12,2.44c-2.64,2.59-5.44,5-7.93,7.74-2,2.23-4.94,2.94-7.23,4.69a22,22,0,0,1-3.44,1.71c-2,1-4,2.27-6.09,3.13-1.9.77-4,1.13-5.94,1.71-1.12.33-2.19.83-3.32,1.11-2.16.53-4.34,1-6.51,1.44a7.64,7.64,0,0,0-1.08.07,62.79,62.79,0,0,1-13.9,2.87c-3.73.42-7.44,1.22-11.17,1.35s-7.41-.4-11.12-.6c-1.28-.07-2.57.06-3.83-.06-2.51-.23-5-.57-7.5-.87a9.7,9.7,0,0,0-1.05-.2A50,50,0,0,1,87.38,273a88,88,0,0,1-8.65-2.95c-1.76-.82-3.35-1.87-5.37-2.13-.63-.08-1.07-1.19-1.73-1.65-1.67-1.16-3.48-2.11-5.1-3.33a76.83,76.83,0,0,1-7.81-6.33,40.43,40.43,0,0,1-5.42-7.22c-2.51-3.95-3-8.39-4.45-12.6-.3-.89-.54-1.29-1.5-1.09-2.43.5-4.85,1-7.29,1.44-2.8.52-5.59,1.15-8.41,1.43-3.18.32-6.39.24-9.58.44-1.42.09-2.83.69-4.23.66a19.22,19.22,0,0,1-12.73-4.63,25.7,25.7,0,0,1-4.42-5.22c-.62-.94-.52-2.4-.61-3.63a23.27,23.27,0,0,1,2.46-13c1.27-2.31,1.83-5.09,4.08-6.9.77-.62,1-1.81,1.68-2.66q3.67-5,7.45-9.85a17.65,17.65,0,0,1,1.76-1.56q5.5-5.49,11-11c1.15-1.16,2.27-2.35,3.45-3.47s2.7-2.35,4-3.61a14.88,14.88,0,0,0,1.64-2.32c1.73-2.58,4.29-2.63,6.4-2.33l2.69,2.13c.78,3,.76,3.62-1.9,5.26a28.54,28.54,0,0,0-4.35,3.75c-1.14,1.07-2.2,2.22-3.33,3.3-.73.7-1.55,1.32-2.3,2a23.14,23.14,0,0,0-2,1.94c-1.31,1.47-2.3,3.41-3.89,4.4-3,1.85-4.53,4.86-6.93,7.16-1.48,1.42-2.41,3.41-3.66,5.09-1.43,1.95-3,3.81-4.36,5.78-.62.88-.88,2-1.41,2.92-1.12,2-2.49,3.8-2.67,6.22-.26,3.44-1.16,6.8,1.82,9.79a8.28,8.28,0,0,0,5.72,2.61c1.51,0,3.05.31,4.57.18,2.05-.17,4.09-.59,6.14-.66a47.8,47.8,0,0,0,13.15-1.92,26,26,0,0,0,6.64-3.05,4.65,4.65,0,0,1,6,.29c2,2.07,2.81,4.73,3.7,7.32s1.35,5.14,2.23,7.64c1.56,4.4,3.4,8.65,7.76,11.12.83.47,1.55,1.1,2.33,1.65,3.52,2.48,6.84,5.32,10.62,7.32,3.46,1.84,7.36,2.89,11.14,4,4.89,1.49,9.88,2.64,15.07,2.28a4.33,4.33,0,0,1,.72,0c4.7.47,9.38,1.06,14.08,1.38a62.16,62.16,0,0,0,6.67-.31c1.46,0,2.93.06,4.39,0,1.79-.14,3.59-.7,5.36-.61a24.42,24.42,0,0,0,8.91-1.42,25.93,25.93,0,0,1,3.68-1.12c1.89-.29,3.88-.08,5.72-.55,3.36-.85,6.65-2,10-3.11,1.49-.48,3-1,4.43-1.52a14.46,14.46,0,0,0,2.28-1.09c2-1.18,3.79-2.73,5.9-3.55,3.91-1.53,6.39-4.59,9-7.51a22.53,22.53,0,0,0,5.07-8.47c.43-1.4,1.54-2.65,1.73-4.05.42-3,1.94-5.42,3.35-7.92a4,4,0,0,1,1.51-1.42,13.24,13.24,0,0,1,7.87-1.33,57,57,0,0,0,6.11-.28,67.68,67.68,0,0,0,7.13-.12,29.68,29.68,0,0,0,6.43-1.78,38.57,38.57,0,0,0,4.5-2.31c.13-.68.21-1.27.36-1.85a8.81,8.81,0,0,0,.62-2.19,49.86,49.86,0,0,0-.6-8.12A30.89,30.89,0,0,0,229,200c-1.66-3-3.17-6.25-6-8.5a5.59,5.59,0,0,1-1.4-2,27.3,27.3,0,0,0-5.08-7c-2.13-2.26-4.21-4.58-6.44-6.73a19.23,19.23,0,0,0-4.93-3.94c-3.77-1.74-7.81-2.9-11.65-4.53A38.36,38.36,0,0,0,186,164.9c-5-1-9.84-2.48-14.75-3.74-1.43-.37-3-.41-4.28-1.07-4.56-2.36-9.62-2.91-14.5-3.91a63.67,63.67,0,0,0-11.49-.8c-3.37-.06-6.75.16-10.11.34-6.37.32-12.74-.64-19.11.95-3.73.93-7.77.52-11.65.88-3,.28-6,.66-8,3a7.09,7.09,0,0,0-2.43-.79,59.79,59.79,0,0,0-12.75,2.55c-1.85.57-3.72,1.09-5.58,1.66a12.56,12.56,0,0,0-2.61,1c-1,.56-2.13.31-3.18,1.34-1.63,1.59-3.94,2.5-6,3.65a20.2,20.2,0,0,0-2.65,1.26,8.71,8.71,0,0,1-8,1.52A17.88,17.88,0,0,1,46.59,171.73Z"/><path class="cls-1" d="M120.75,345.89c-1.42-2.48-2.74-4.84-4.1-7.18a4.18,4.18,0,0,1,1.11-5.44c.52-.39,1-.87,1.49-1.35a48.74,48.74,0,0,1-6.29-2.51,26.14,26.14,0,0,1-5.13-4c-2.65-2.57-5.18-5.28-7.63-8a13.86,13.86,0,0,1-1.78-3.18c-.49-1-.85-2.06-1.34-3.06-1.25-2.58-1.29-2.41.78-4.54a9.88,9.88,0,0,1,2.88-1.46l-.9-.91c3.31.08,4.66,1.91,5.53,5s3.22,5.67,5.77,7.82c1.8,1.51,3.66,2.94,5.46,4.44s3.81,2.95,6.19,2.87c3.93-.13,8-.15,11.71-1.24,2.17-.63,4-3,5.55-5a10.23,10.23,0,0,0,2.53-7,31.43,31.43,0,0,0-1.51-6.89c-.68-2.11-.94-3.77.27-6,.88-1.63,1.62-2.13,3.14-2.16s3-.27,4.06,1.28a2.31,2.31,0,0,0,3.25.8c.9-.43,2.63-.47,3.19.1.87.88,2.05,1.7,1.68,3.74-.52,2.79.11,5.79.15,8.7,0,1.65,1.16,2.25,2.4,2.74a30,30,0,0,0,7.61,1.64,23.5,23.5,0,0,0,11.54-1.47c1.66-.65,2.54-1.6,2.46-3.24-.14-3.34.46-6.69-.61-10-.8-2.51,1.43-5.49,4.13-6.17,3.61-.9,4.84.09,4.9,3.81,0,2,.32,4.07.31,6.11s-.32,3.94-.36,5.92a37.88,37.88,0,0,0,.14,6.57c.49,3.2,1.6,6.33,2,9.54.16,1.42-.75,3-1.39,4.46-.71,1.59-1.1,3.32-3.37,3.91-1.3.34-2.22,2-3.35,3.09-1.3,1.21-3,2.18-3.92,3.61-1.54,2.3-4.16,2.45-6.24,3.36-1.79.78-4.33.24-6.43-.2A14.74,14.74,0,0,1,161,342.1a17.29,17.29,0,0,1-6.25-7.28c-.3-.74-.64-1.47-1-2.2l-.55.06c-.24,2.13-.6,4.24-.68,6.37-.09,2.75-1.86,4.36-3.36,6.38-1.68,2.28-4.39,2.53-6.23,4.32-.7.68-2.08.73-3.18.95-3.44.71-6.87,1.47-10.36.08-.76-.3-1.42.23-2.22.81-1.79,1.31-3.37,2.86-6.15,3-3.26.15-6.55,0-9.84.35-4.89.58-9.89.23-14.82.53s-9.86,1.05-14.8,1.34c-3.19.18-6.4-.1-9.6-.18a36.92,36.92,0,0,1-3.8-.14,12.06,12.06,0,0,1-3.54-.85c-1.7-.77-1.84-4.17-.33-5.26a13.49,13.49,0,0,0,1.14-.85,5.33,5.33,0,0,1,6.19-.92,8.45,8.45,0,0,0,5,1,13.59,13.59,0,0,1,3,.27,13.22,13.22,0,0,0,2.18,0c2.2-.2,4.39-.44,6.59-.7s4.24-.57,6.38-.78c1.73-.17,3.48-.24,5.23-.3,4-.14,8-.1,12-.42a69.57,69.57,0,0,0,7.79-1.41A3.9,3.9,0,0,0,120.75,345.89Zm43.8-23.72v.15c-1,0-2.07.05-3.09,0-1.24-.09-1.63.36-1.74,1.64-.25,2.73.94,4.92,2.1,7.2,2,3.91,5.43,5.59,9.46,6.42a2.48,2.48,0,0,0,1.68-.32,36.83,36.83,0,0,0,4-2.86c1-.86,1.79-2.13,2.91-2.83,4.27-2.66,3.28-5.56,2-9.48-.12-.38-1.09-.68-1.67-.67-.84,0-1.68.49-2.53.52-2.12.09-4.26,0-6.38.06-.72,0-1.43.64-2.14.62C167.63,322.58,166.09,322.33,164.55,322.17Zm-41.5,9.9a9.08,9.08,0,0,1,1.23,2.29c.79,3.84,3.25,6.36,6.48,8.19a11.26,11.26,0,0,0,4.41,1.52c2.7.24,5.34.05,7.61-2.05,1-.89,2-1.42,2.1-2.91.28-3.39.8-6.75,1-10.14a26.29,26.29,0,0,0-.59-4.64c-.81.61-1.35,1.06-1.93,1.45-1.81,1.22-2.93,3.44-5.38,3.77-1.64.23-3.28.49-4.92.77C129.74,330.89,126.41,331.48,123.05,332.07Z"/><path class="cls-1" d="M488.24,39c0,2.44.1,4.89,0,7.33a11.46,11.46,0,0,1-9.78,10.79,84.83,84.83,0,0,1-10.89,1,59.26,59.26,0,0,1-8.85-1.09,5,5,0,0,1-1.75-.87c-2.62-1.68-3.91-1.46-5.39,1.26-1.59,2.92-4.18,3.94-7.23,4.43-3.49.57-6.85-.37-10.21-.86-2-.3-3.84-1.63-5.78-2.47a3.83,3.83,0,0,0-1.14-.18c-.26,0-.64.13-.78,0-2-1.8-4-3.6-5.91-5.47-.88-.86-1.27-.46-2.15.93-1.46,2.31-2.87,4.93-5,6.49-3.27,2.4-7.28,2.81-11.45,2.8-3.71,0-6-2.14-8.46-4-1.42-1.12-2.11-3.21-3-4.92a34.79,34.79,0,0,1-1.5-3.56A37.54,37.54,0,0,1,386,36.76c0-2.8,4.13-5.42,6.6-4A4,4,0,0,1,394,35.32c.49,2.75.56,5.58,1.19,8.29a22.72,22.72,0,0,0,5.23,10.51c2.14,2.32,7.41,2.46,9.22-1.1a45.54,45.54,0,0,0,4.43-13.45,1.84,1.84,0,0,1,.47-.92c2.78-2.88,5.54-3.07,8.67-.53a4.61,4.61,0,0,1,1.87,3.46c.14,1.59,1.21,3.1,1.89,4.63.1.21.38.34.46.55,1.41,3.74,4.64,5.1,8.08,6.17a33.11,33.11,0,0,0,5.59,1.59c2.67.32,3.83-.56,4.52-3.11.64-2.33.83-4.79,1.62-7a8.92,8.92,0,0,1,2.63-3.57,11.64,11.64,0,0,1,3.51-1.68c1.49-.58,2.54.38,3.11,1.48.93,1.82,1.55,3.8,2.32,5.71a1.44,1.44,0,0,0,.45.65,19.49,19.49,0,0,0,15.43,3.29c1-.19,2.42-.24,2.75-.85a34.23,34.23,0,0,0,2-5.55,5.2,5.2,0,0,0,.07-1c.15-1.81.29-3.54-1.43-4.91a4.39,4.39,0,0,1-1.17-2.56,2.65,2.65,0,0,1,.59-2.15,9.07,9.07,0,0,1,7.27-2.15c1.05.16,2.14,1.8,2.68,3a23.13,23.13,0,0,1,1.08,4.82Z"/><path class="cls-1" d="M21.45,325.24a28.87,28.87,0,0,0-.63,3.75c-.08,3.36-.66,6.78.71,10a67.46,67.46,0,0,0,3,6.78,25.23,25.23,0,0,0,3.68,5.08,21.4,21.4,0,0,0,5,4.08,5.06,5.06,0,0,0,5.83-.9,7.43,7.43,0,0,1,1.5-.87,36.92,36.92,0,0,0,7.7-4.74c1.65-1.34,2-2.94,1.13-5a15.53,15.53,0,0,1-.38-1.6l4,2.36c-2.09-3.17-4-5.92-5.74-8.8a9.92,9.92,0,0,1-1.33-3.8c-.26-2,1.52-3.8,3.78-4.23,1.37-.26,2.76.89,3.67,2.53a67,67,0,0,0,4.37,6.91c1.42,1.95,3.21,3.63,4.7,5.53,2,2.52,1.2,5-1.69,6.09a6.83,6.83,0,0,1-2.85,0c-1.27-.09-1.54.56-1.5,1.66.06,1.37.19,2.48-1.89,2.92-1.84.39-3.43,2-5.14,3-.79.48-1.61.92-2.44,1.34-2.76,1.39-5.49,2.84-8.31,4.12a9.11,9.11,0,0,1-3.43.75,13.2,13.2,0,0,1-9.36-3.67,37.38,37.38,0,0,1-8.86-11A52.81,52.81,0,0,1,13.9,339a28.11,28.11,0,0,1-1.24-5.24,28.92,28.92,0,0,1,.76-9.74c.8-3.4,3.51-4.6,5.87-6,1.09-.65,3.23,0,4.68.52,1.18.46,2.13,1.37,3.58,1.29.63,0,1.27.53,1.93.79a8.78,8.78,0,0,0,2.65.91,5.07,5.07,0,0,1,4.08,1.57c.8.89,2.14.26,3.13-.65,3.29-3,4.12-7.38,6.18-11.07.68-1.23,1.7-2.38,2-3.69.5-2.37,2-4.1,3.13-6.07,1.33-2.33,2.65-4.66,4-6.95.7-1.15,1.59-2.17,2.3-3.29.51-.8.8-1.73,1.31-2.52,1.84-2.91,3.62-5.86,5.62-8.65a18.89,18.89,0,0,1,6.44-5.71,6.35,6.35,0,0,1,3.06-.58c1.69,0,2.06,1.57,1.87,2.71a7.5,7.5,0,0,1-1.83,3c-1,1.28-2.22,2.43-3.29,3.68s-2.28,2.66-3.31,4.08c-1.25,1.72-2.45,3.5-3.54,5.32-1.84,3.09-3.6,6.23-5.36,9.37-2.6,4.68-5.3,9.32-6.62,14.6a15.93,15.93,0,0,1-1.06,2c-.88,2.27-1.6,4.6-2.59,6.81a15.73,15.73,0,0,1-2.37,3.59c-.3.37-1.09.34-1.67.47a15.09,15.09,0,0,0-3.75.86,8.94,8.94,0,0,1-6.64.93c-1.1-.31-1.95-1.41-3-2C27.46,328,24.64,326.74,21.45,325.24Z"/><path class="cls-1" d="M400.38,122.55c.23-1.07.42-1.81.54-2.56a20.59,20.59,0,0,0,.36-3c0-1.55,1.49-3.19,3.72-4.07,2.72-1.08,5.38-2.36,8.15-3.31s5.44-1.55,8.18-2.26a34.29,34.29,0,0,1,3.63-.73c3.52-.52,7.16-.6,10.53-1.6,2.38-.71,3.82,0,5.86.91,4.59,2,7.43,5.5,9.37,9.83.75,1.68.72,3.69,1.16,5.52.68,2.77.12,5.5-.44,8.14a24.8,24.8,0,0,1-2.55,7,57.34,57.34,0,0,1-5.42,7.66,29,29,0,0,1-4.41,4.23,7.63,7.63,0,0,1-2.5.76c-2.08.6-4.14,1.32-6.24,1.79a15.65,15.65,0,0,1-3.21,0c-2.79,0-5.15-1.42-7.72-2.14a35.07,35.07,0,0,1-6-1.92c-2-.94-2.76-2.82-4.34-4a14.69,14.69,0,0,1-2.27-2.81c-1.87-2.38-2.36-5.12-2.69-8.09-.24-2.07-1.74-4-2.59-6C401,124.72,400.7,123.52,400.38,122.55ZM429.52,143l.11-.27a5.09,5.09,0,0,0,2.05-.14c2.18-1.15,4.68-1.59,6.29-3.94,1.76-2.56,3.81-5,4.36-8.06.68-3.84,1.46-7.69-.53-11.64-1.62-3.21-4.06-5.44-7.66-5.41-1.16,0-2.33,0-3.48.07a18,18,0,0,0-2.57.58c-1.55.38-3.09.84-4.66,1.16-3.18.64-6.41,1.1-9.55,1.91a3.42,3.42,0,0,0-2.18,2.19c-.3,2.85-1,5.77.29,8.61a30.71,30.71,0,0,1,2,4.88c1.26,4.7,4.07,7.32,8.77,7.89a5.13,5.13,0,0,1,.84.27Z"/><path class="cls-1" d="M215.88,341.19l-2.78.51c-.56,1.12-.85,2.54-1.72,3.23a9.83,9.83,0,0,1-4.12,1.7c-4.42.86-8.89,1.45-13.31,2.27-2.38.43-4.69,1.21-7.06,1.66-3,.56-5.21-.73-4.94-3.8.14-1.56,2.35-3.57,4-3.72,2.43-.21,5,0,7.26-.82,3.8-1.37,8.09-.43,11.64-2.79,1.14-.76,2.54-1.11,3.76-1.78a2,2,0,0,0,1-1.27c.32-3.39.48-6.8.8-10.2a15.51,15.51,0,0,1,.85-3.38c.1-.26.7-.33,1.05-.54a9,9,0,0,0,4.05-4,17.21,17.21,0,0,1,4.37-5.27c2.32-2,5-3.86,8.13-4.18a61.39,61.39,0,0,1,9.59-.17,4.81,4.81,0,0,1,2.75,1.85,45.26,45.26,0,0,1,4.54,6c3,5,4.18,10.23,2.36,16.19-1.31,4.28-4.46,6.75-7.26,9.62-1,1-2.81,1.32-4.29,1.85-3.13,1.14-6.42,1.93-9.37,3.43a20.41,20.41,0,0,1-5.88,1.84c-1.62.27-3.61-.79-5.22-1.65-1.11-.59-1.2-1.89-.68-3.21A15.87,15.87,0,0,0,215.88,341.19Zm.2-.4c.51.07,1,.3,1.22.14,1.68-1.46,3.39-.51,5.14-.22,2.12.35,4.29.79,6.18-.92a4.46,4.46,0,0,1,2.09-.72,19,19,0,0,0,3.52-.55A11.09,11.09,0,0,0,241,331a9.44,9.44,0,0,0-.17-5.62c-1.44-3.6-2.73-7.32-7-9.15a7.28,7.28,0,0,0-4.7-.65,7,7,0,0,0-4.1,2.64,11.18,11.18,0,0,1-6.26,4.93,51.62,51.62,0,0,0-1.63,5.65c-.39,2.28-.9,4.71-.49,6.91A8.42,8.42,0,0,1,216.08,340.79Z"/><path class="cls-1" d="M186.74,268.47c1.82-.14,2.61,1.15,3.14,2.48,1.71,4.2,3.17,8.51,5,12.68,1.16,2.71,2.7,5.26,4.1,7.87,2,3.66,3.84,7.39,6,10.93,1.79,2.91,4.26,5.44,5.86,8.43.93,1.72,3.25,2.1,3.39,4.51.14,2.61-2.36,5.18-4.9,4.65a5,5,0,0,1-3.36-2c-1.56-2.19-3.56-4-4.86-6.47-2.65-5-5.65-9.85-8.44-14.79-.4-.7-.3-1.67-.69-2.38-1.25-2.34-2.71-4.57-3.92-6.93-.94-1.83-1.58-3.81-2.45-5.67-1-2.23-2.15-4.45-3.36-6.6-1-1.69-1-2.81.4-4.21C183.76,269.75,184.78,268.29,186.74,268.47Z"/><path class="cls-1" d="M402.05,97.87c-2.47,0-3.69-1.24-4.05-3.69-.46-3.08-1-6.17-1.74-9.21-.53-2.19,1.34-2.3,2.37-3a5.81,5.81,0,0,1,2.95-.49c2.81,0,3.08.55,3.43,3.3.29,2.3,1.27,4.5,1.85,6.76C407.85,95.48,406,97.9,402.05,97.87Z"/><path class="cls-1" d="M437.38,77.86c2.83,0,3,.07,3.6,2.67a65.49,65.49,0,0,1,1.72,7.75c.32,2.64-.52,5.11-3.13,5.72-1.95.45-3.16-1-4-2.18a14.41,14.41,0,0,1-2.58-8,6.44,6.44,0,0,0-.18-1.6,1.93,1.93,0,0,1,1-2.65C435,78.85,435.81,77.2,437.38,77.86Z"/><path class="cls-1" d="M453.37,213.55c-1.79,0-3.58-.08-5.36,0s-3.27.43-4.92.53a30.06,30.06,0,0,1-3.13-.2c-2.53-.13-5.06-.38-7.58-.31-2.86.08-5.72.44-8.57.73-4.46.45-9,.57-13.36,1.55-2.76.62-5.33,0-8,.22-1.43.13-2.94.59-4.27.28a16.67,16.67,0,0,1-4.73-2.2c-1.15-.69-.52-3,.94-3.9,1.88-1.21,4-1.12,6.08-1.08,3.1.05,6.2,0,9.31,0a30.8,30.8,0,0,0,3.33,0c4.67-.55,9.32-1.19,14-1.76,1-.11,1.94,0,2.91,0,3.14-.11,6.27-.28,9.41-.34s6.09.12,9.12-.06c3.57-.2,7.13-.88,10.7-1,1.89,0,3.78.87,5.71,1.13,3.09.43,4.28,2.88,5.71,5.08,2.35,3.65,2.61,7.61,2.06,11.85a15.67,15.67,0,0,1-1.91,5.13c-.65,1.3-.9,2.79-1.55,4.09a28.56,28.56,0,0,1-2.34,3.58,21.32,21.32,0,0,1-2.84,3.76,51.48,51.48,0,0,1-7.86,6.25c-1.66,1-4,.78-6,1.26-1.1.26-2.09,1-3.18,1.22-1.66.41-3.37.62-5.07.91a49.44,49.44,0,0,1-6.47,1c-2.44.08-4.88-.31-7.33-.47-.7,0-1.4,0-2.11,0-3.7,0-7.4.86-11.09-.72-1.64-.69-3.69-.39-5.55-.61a8.87,8.87,0,0,1-2.73-.58c-3.79-1.81-7.68-3.79-10.47-6.82-1.88-2-4.71-3.64-5.27-6.74s-1.73-5.94-1.31-9.12c.11-.91-.35-1.89-.29-2.82.22-3.15,2.7-4.75,4.84-6.41a2.26,2.26,0,0,1,3.17.68,31.87,31.87,0,0,1,2.16,3.36,4.54,4.54,0,0,1,0,2c-.21,3.67-.62,7.38,1.08,10.83a8.59,8.59,0,0,0,2.08,2.93,40.69,40.69,0,0,0,7.26,5.29,26.87,26.87,0,0,0,7.51,1.94,40.81,40.81,0,0,0,8,.7c2.15-.07,4.35.16,6.37-.11a16.45,16.45,0,0,1,6.09-.08c3.91,1,6.95-1.61,10.49-2,1.38-.15,2.81-.39,3.32-2.07.06-.19.49-.34.76-.37,3.19-.34,4.84-2.58,6.31-5.06a31.76,31.76,0,0,1,2.14-3.43,16.84,16.84,0,0,0,3.2-9.59,14.34,14.34,0,0,0-1.3-5.64c-.82-2.21-3-2.47-5-2.73a33.15,33.15,0,0,0-4.46,0Z"/><path class="cls-1" d="M432.19,187.34h-4.42a3,3,0,0,1-1.08-.05c-3.11-1.22-6.39-2.18-9.26-3.83-1.68-1-2.86-3-4-4.66a28,28,0,0,1-1.8-4.19,6.06,6.06,0,0,1,.76-6.1,1.39,1.39,0,0,1,.92-.42c1.17-.16,2.36-.27,3.54-.37s1.53.41,2,1.4a47.51,47.51,0,0,0,3.58,7c1.65,2.53,4.44,3.38,7.29,3.51a44.85,44.85,0,0,0,10.07-.51,9.73,9.73,0,0,0,6.45-4.19,9.28,9.28,0,0,0,.57-1.48c.42-.9.88-1.79,1.35-2.67.17-.31.58-.6.57-.89-.1-2.44,2.33-2.23,3.55-3.12.87-.63,2.8-.37,4,.14s1.52,2,1.93,3.39c.89,3-1.57,4.57-2.47,6.75s-2.94,3.36-4.84,4.62c-1.2.8-2.13,2-3.39,2.71a16.61,16.61,0,0,1-5,1.78c-2.58.42-5.23.43-7.84.65A23.49,23.49,0,0,0,432.19,187.34Z"/><path class="cls-1" d="M151.45,248.85c-1.3-.64-2.58-1.21-3.79-1.89-1-.56-1.56-3.61-.9-4.58a7,7,0,0,1,1.59-1.91c1.53-1.08,1.33-2.37.79-3.81s-1.67-1.73-3-1.66c-1,.05-1.92,0-2.84,0-1.47-3.42-1.71-4.48,1.62-6.68a4.44,4.44,0,0,1,3.23-.5,23.68,23.68,0,0,1,6.39,2.53,6.14,6.14,0,0,1,2.58,3.76c.37,2.21-.17,4.56-.08,6.84a4.49,4.49,0,0,0,1.08,2.76c1.37,1.46,2,2.88,1.36,4.89s-.92,4.15-1.43,6.2c-.74,2.94-5.73,4.35-7.7,2.06-.63-.73-.65-2.26-.47-3.34A31.51,31.51,0,0,1,151.45,248.85Z"/><path class="cls-1" d="M107,188.68c-4.27-.23-9.45-3.72-10.89-7.66-.84-2.31-1.5-4.68-2.15-7.05a1.54,1.54,0,0,1,.92-2.05c1.18-.55,2.15-1.54,3.33-2.11,1.55-.76,2-.31,2.67,1.24,1.27,3.18,1.91,6.73,4.46,9.24.85.83,2.26,1.14,3.45,1.59a15.47,15.47,0,0,1,2.68.75c1.83,1.15,1.39,4.09-.75,5A27.27,27.27,0,0,1,107,188.68Z"/><path class="cls-1" d="M124.79,184.69a9.31,9.31,0,0,1-8.08-5.87,44.34,44.34,0,0,0-2.73-5.13c-.83-1.5,0-4.56,1.5-5.83,1.14-.94,4.48-1.24,5.46-.4a2.89,2.89,0,0,1,.61,1.24,81.62,81.62,0,0,0,2.85,7.71,4.65,4.65,0,0,0,2.93,2.12,2.26,2.26,0,0,1,1.94,2.34c0,.9,0,2.34-1.55,2.71A22.58,22.58,0,0,0,124.79,184.69Z"/><path class="cls-1" d="M146.38,180.83c-2.08-.6-4.46-1.25-6-3.5-1-1.48-2.18-2.86-3.17-4.36a3.43,3.43,0,0,1,2.32-5.15,4.72,4.72,0,0,0,1.21-.43c1.45-.74,3.15,0,4.42,2a26.23,26.23,0,0,0,2.69,3.93c.77.81,2,1.13,3,1.77,1.69,1.13,2,2.34,1.23,4.14-.15.33-.48.75-.79.81C149.79,180.34,148.26,180.54,146.38,180.83Z"/><path class="cls-1" d="M116.72,223.86c-.85.46-1.46.75-2,1.09-1,.62-1.93,1.5-3.24.64a53.34,53.34,0,0,1-4.52-3,2.51,2.51,0,0,1-.22-2.21c.71-2,1.14-4.13,3.46-5.22,1.91-.89,3-.35,4.56.85C117.87,218.42,116.51,221.47,116.72,223.86Z"/><path class="cls-1" d="M167,208.33c-.64.9-1.1,2.12-2,2.63a5.29,5.29,0,0,1-5.42.12,13.27,13.27,0,0,0-2.52-.82,1.93,1.93,0,0,1-.65-.23c-1-.8-.61-3.79-.06-4.89,1.25-2.45,3.46-2.69,5.69-3.19s3.44.24,3.88,2.46c.19,1,.47,2,.69,2.94a3.47,3.47,0,0,1,0,.72Z"/></g></g></svg>