<svg xmlns="http://www.w3.org/2000/svg" viewBox="0 0 245.92 245.92"><defs><style>.cls-1{fill:#d97979;}.cls-2{fill:#fff;}</style></defs><title>hospital-res-icon</title><g id="レイヤー_2" data-name="レイヤー 2"><g id="予約制"><circle class="cls-1" cx="122.96" cy="122.96" r="122.96"/><path class="cls-2" d="M61.52,121.07H39.26a2.46,2.46,0,0,1,0-4.92h25.5c-3.48-2.52-7.74-5.28-11.28-7.38-1.08-.66-1.5-1.2-1.5-2.16A2.59,2.59,0,0,1,54.44,104a4.22,4.22,0,0,1,2.16.72c2.4,1.32,5.22,3.12,7.26,4.5,5.1-2.34,12.06-6.72,12.06-7,0-.12-.12-.12-.66-.12H45.38a2.4,2.4,0,0,1,0-4.8h35.1c2.46,0,3.78,1.14,3.78,3,0,1.26-.6,2.16-2.34,3.6a98.53,98.53,0,0,1-13.5,8.52c1.08.84,1.86,1.5,1.86,2.58a2.58,2.58,0,0,1-.24,1.2H85.1c2.7,0,4.14,1.08,4.14,3.06,0,3.24-6.06,10.26-8.52,12.6-1.08,1.08-2.1,1.92-3.36,1.92a2.73,2.73,0,0,1-2.76-2.64,2.68,2.68,0,0,1,1.2-2.16c4.2-3.78,6.6-7.14,6.6-7.5s-.3-.36-.78-.36H66.56v22.86c0,4.92-3,5.58-7.86,5.58-3.72,0-6.3,0-6.3-2.82,0-1.62,1.14-2.46,2.76-2.46.72,0,2.64.24,4.14.24,1.86,0,2.22-.48,2.22-2.58Z"/><path class="cls-2" d="M102.56,141.11c-1.32,4.26-1.74,5.64-3.66,5.64a2.37,2.37,0,0,1-2.64-2.22A8.46,8.46,0,0,1,97,142a62.61,62.61,0,0,0,3.12-10.86c.3-1.62,1.2-2.34,2.28-2.34a2.42,2.42,0,0,1,2.4,2.46A75.43,75.43,0,0,1,102.56,141.11Zm5.1-15.36c-1.44.12-6.48.6-8.16.6A2.32,2.32,0,0,1,97,123.77c0-2.1,1.86-2.22,2.94-2.34,2-1.86,5-4.86,6.54-6.72a77,77,0,0,0-7.14-4.92c-1.32-.84-1.5-1.62-1.5-2.22a2.61,2.61,0,0,1,2.46-2.58,2.42,2.42,0,0,1,1.2.42c2.34-3,2.7-3.48,5.94-8.16.72-1,1.2-1.38,2-1.38a2.5,2.5,0,0,1,2.46,2.4c0,.72,0,1.08-3.36,5.58-1.08,1.5-2.22,2.88-3.18,4,1.44,1,3.18,2.22,4.38,3.18.36-.48,3.42-4.32,5.1-7,.72-1.08,1.2-1.5,2.28-1.5a2.39,2.39,0,0,1,2.4,2.34c0,1.14-.36,1.62-2.82,4.68a121.92,121.92,0,0,1-9.9,11.52c3.78-.24,5.82-.48,9.6-1-1.14-1.86-1.26-2-1.26-2.76a2.48,2.48,0,0,1,2.52-2.16c1,0,1.32.48,2.22,1.86.6,1.14,3.18,5.82,3.24,7.32a2.34,2.34,0,0,1-2.52,2.28c-1.32,0-1.62-.72-2.28-2.28-1.5.24-4,.54-5.76.72v22.44a2.43,2.43,0,0,1-4.86,0Zm12.18,18.84c-1.68,0-2.16-1.14-2.34-2.52a86,86,0,0,0-1.62-8.76,12.33,12.33,0,0,1-.54-2.46,2.25,2.25,0,0,1,2.46-2.4c1.56,0,2.1,1.2,2.58,2.94a80,80,0,0,1,2,11.1C122.42,143.69,121.52,144.59,119.84,144.59Zm9.78-34.86a66.58,66.58,0,0,1-3.48,5.94c-1.08,1.5-1.8,2.16-2.94,2.16a2.51,2.51,0,0,1-2.52-2.4,3,3,0,0,1,.6-1.68c3-4.62,4.86-7.44,7-14.52.48-1.56.6-2.52,1.08-3.12a2.46,2.46,0,0,1,2.1-.9,2.32,2.32,0,0,1,2.46,2.28c0,1.2-1.68,5.88-2.28,7.5h13.86c3.06,0,4.56,1.26,4.56,5.1,0,11.94-1.14,25.68-1.56,29-1.08,8.22-2.52,10.5-8.76,10.5a27,27,0,0,1-5.28-.36,2.83,2.83,0,0,1-2.52-2.7,2.21,2.21,0,0,1,2.28-2.4c1.26,0,3.18.48,5.4.48,2.52,0,3.06-.66,3.78-5.1a210.21,210.21,0,0,0,1.56-27.42c0-1.86-.12-2.4-1.62-2.4Zm5.1,13.2c1,2.28,2.64,5.7,2.64,7a2.59,2.59,0,0,1-2.76,2.46c-1.32,0-1.74-.6-2.4-2.4a89.53,89.53,0,0,0-4-8.7,5.68,5.68,0,0,1-.78-2.34,2.51,2.51,0,0,1,2.7-2.4C131.3,116.57,131.9,117.11,134.72,122.93Z"/><path class="cls-2" d="M176.12,102.35h9.72a2.31,2.31,0,0,1,0,4.62h-9.72v6.66H187.7a2.37,2.37,0,0,1,0,4.74H176.12v5.34h8a3.92,3.92,0,0,1,4.2,4.26v13.62c0,3.3-.6,5.82-6.48,5.82-2.7,0-4.14-.72-4.14-2.58,0-1.38.66-2.58,2.22-2.58.6,0,1.14.18,1.86.18,1.2,0,1.62-.36,1.62-1.5V129.65a1.13,1.13,0,0,0-1.2-1.2h-6.06v20.1a2.37,2.37,0,0,1-4.74,0v-20.1h-6a1.13,1.13,0,0,0-1.2,1.2v15.66a2.43,2.43,0,1,1-4.86,0V128a3.92,3.92,0,0,1,4.2-4.26h7.86v-5.34H158.9a2.37,2.37,0,0,1,0-4.74h12.48V107h-6.84c-2.52,4.8-3.66,5.46-5,5.46a2.34,2.34,0,0,1-2.52-2.28,3.1,3.1,0,0,1,.9-2,31.84,31.84,0,0,0,5.1-10.8,2.27,2.27,0,0,1,2.28-1.92,2.5,2.5,0,0,1,2.7,2.16c0,1.08-.18,1.44-1.44,4.8h4.8v-5a2.37,2.37,0,0,1,4.74,0Zm16.8-1.62a2.46,2.46,0,0,1,4.92,0v34.14a2.46,2.46,0,0,1-4.92,0Zm11.34-3.06a2.43,2.43,0,0,1,4.86,0v45.6c0,4.44-.54,6.54-7.2,6.54-3.12,0-5.52,0-5.52-2.76a2.37,2.37,0,0,1,2.58-2.58c1,0,2.52.24,3.3.24,1.62,0,2-.36,2-1.74Z"/></g></g></svg>